<svg xmlns="http://www.w3.org/2000/svg" viewBox="0 0 120 120">
    <defs>
        <style>
            .cls-1,.cls-2,.cls-3,.cls-4,.cls-5,.cls-6{fill:none}.cls-1,.cls-2,.cls-3,.cls-4,.cls-5{stroke:#505050}.cls-1{stroke-width:2px}.cls-2,.cls-3,.cls-4,.cls-5{stroke-linecap:round}.cls-2,.cls-3,.cls-4{stroke-miterlimit:10}.cls-2,.cls-3{stroke-width:1.2px}.cls-3{stroke-linejoin:round}.cls-4,.cls-5{stroke-width:2.5px}.cls-7,.cls-8{stroke:none}.cls-8{fill:#505050}
        </style>
    </defs>
    <g id="Account_Lookup" transform="translate(-901 -324)">
        <g id="AccountLookup_Header" transform="translate(14417.848 1200.295)">
            <path id="TWO" d="M36.27 41.594H7.031C3.556 41.594.8 39.085.8 35.922V6.472C.8 3.309 3.676.8 7.031.8h39.544a6 6 0 0 1 6.231 5.672v19.415" class="cls-1" transform="translate(-13484.3 -840.3)"/>
            <g id="Group_6763" data-name="Group 6763" transform="translate(-13473.796 -828.593)">
                <path id="Line_753" d="M0 0h12.511" class="cls-2" data-name="Line 753" transform="translate(20.861 2.181)"/>
                <path id="Line_754" d="M0 0h12.511" class="cls-2" data-name="Line 754" transform="translate(20.861 7.635)"/>
                <g id="Group_6760" data-name="Group 6760">
                    <path id="Path_1290_4_" d="M1874.31 1007.327c0 2.952-1.871 6.244-4.49 6.244-2.494 0-4.615-3.292-4.615-6.244a4.193 4.193 0 0 1 3.991-4.427h.624c2.619 0 4.49 1.362 4.49 4.427z" class="cls-3" transform="translate(-1860.192 -1002.9)"/>
                    <path id="Path_1291_4_" d="M1869.063 1011.9a2.588 2.588 0 0 1-1.746 2.611c-2 .908-3.866.681-5.113 2.157a5.115 5.115 0 0 0-1 3.519 1.249 1.249 0 0 0 1 1.249 37.815 37.815 0 0 0 8.728.749" class="cls-3" transform="translate(-1861.181 -1001.682)"/>
                    <path id="Path_1292_4_" d="M1870.792 1011.9a2.587 2.587 0 0 0 1.746 2.611c2 .908 3.867.681 5.114 2.157a5.114 5.114 0 0 1 1 3.519 1.25 1.25 0 0 1-1.123 1.249 44.767 44.767 0 0 1-8.674.746" class="cls-3" transform="translate(-1859.294 -1001.682)"/>
                </g>
                <g id="Group_6762" data-name="Group 6762" transform="translate(18.97 7.014)">
                    <path id="Line_757" d="M0 0l6.763 6.739" class="cls-4" data-name="Line 757" transform="translate(26.936 27.014)"/>
                    <path id="Path_6368" d="M12.1 0a12.841 12.841 0 0 1 12.445 12.723 12 12 0 0 1-12.1 12.363A12.841 12.841 0 0 1 0 12.364 12 12 0 0 1 12.1 0z" class="cls-5" data-name="Path 6368" transform="rotate(-44.03 21.087 8.526)"/>
                </g>
            </g>
        </g>
        <g id="Path_6429" class="cls-6" data-name="Path 6429">
            <path d="M60 0A60 60 0 1 1 0 60 60 60 0 0 1 60 0z" class="cls-7" transform="translate(901 324)"/>
            <path d="M60 117c7.696 0 15.16-1.507 22.186-4.478a56.998 56.998 0 0 0 9.681-5.255 57.424 57.424 0 0 0 8.438-6.962 57.424 57.424 0 0 0 6.962-8.438 56.998 56.998 0 0 0 5.255-9.68C115.493 75.16 117 67.696 117 60c0-7.696-1.507-15.16-4.478-22.186a57 57 0 0 0-5.255-9.681 57.426 57.426 0 0 0-6.962-8.438 57.424 57.424 0 0 0-8.438-6.962 56.998 56.998 0 0 0-9.68-5.255C75.16 4.507 67.696 3 60 3c-7.696 0-15.16 1.507-22.186 4.478a57 57 0 0 0-9.681 5.255 57.425 57.425 0 0 0-8.438 6.962 57.425 57.425 0 0 0-6.962 8.438 57 57 0 0 0-5.255 9.68C4.507 44.84 3 52.304 3 60c0 7.696 1.507 15.16 4.478 22.186a56.998 56.998 0 0 0 5.255 9.681 57.424 57.424 0 0 0 6.962 8.438 57.426 57.426 0 0 0 8.438 6.962 57 57 0 0 0 9.68 5.255C44.84 115.493 52.304 117 60 117m0 3C26.863 120 0 93.137 0 60S26.863 0 60 0s60 26.863 60 60-26.863 60-60 60z" class="cls-8" transform="translate(901 324)"/>
        </g>
    </g>
</svg>
