<svg xmlns="http://www.w3.org/2000/svg" viewBox="0 0 150 150">
  <defs>
    <style>
      .cls-1 {
        fill: #613b8c;
      }

      .cls-2, .cls-3, .cls-4, .cls-5, .cls-6 {
        fill: none;
        stroke-width: 1.5px;
      }

      .cls-2, .cls-4, .cls-5, .cls-6 {
        stroke: #fff;
      }

      .cls-2, .cls-3, .cls-5 {
        stroke-linecap: round;
      }

      .cls-2, .cls-4 {
        stroke-linejoin: round;
      }

      .cls-2, .cls-3, .cls-4, .cls-5 {
        stroke-miterlimit: 10;
      }

      .cls-3 {
        stroke: #505050;
      }
    </style>
  </defs>
  <g id="Account_Lookup_bttn" transform="translate(-1032 -319)">
    <ellipse id="Account_Lookup_bttn-2" data-name="Account_Lookup_bttn" class="cls-1" cx="75" cy="75" rx="75" ry="75" transform="translate(1032 319)"/>
    <g id="Account_Lookup_bttn-3" data-name="Account_Lookup_bttn" transform="translate(-469 -462)">
      <g id="Group_4906" data-name="Group 4906" transform="translate(1542.819 851.961)">
        <path id="Path_3737" data-name="Path 3737" class="cls-2" d="M467.269,1028.062h-1.392a45.013,45.013,0,0,1-10.905-1.044,2.748,2.748,0,0,1-1.972-2.552c0-1.392.232-4.06,1.624-5.685a8.188,8.188,0,0,1,4.524-2.552,14.7,14.7,0,0,0,2.668-.928,2.914,2.914,0,0,0,1.972-2.9" transform="translate(-453 -1011.472)"/>
        <path id="Path_3738" data-name="Path 3738" class="cls-2" d="M464.3,1028.062h1.392a45.012,45.012,0,0,0,10.905-1.044,2.748,2.748,0,0,0,1.972-2.552c0-1.392-.232-4.06-1.624-5.685a8.188,8.188,0,0,0-4.524-2.552,14.7,14.7,0,0,1-2.668-.928,2.914,2.914,0,0,1-1.972-2.9" transform="translate(-451.191 -1011.472)"/>
        <path id="Path_3739" data-name="Path 3739" class="cls-2" d="M461.1,1025.3" transform="translate(-451.703 -1009.406)"/>
        <path id="Path_3740" data-name="Path 3740" class="cls-2" d="M458.2,1011.6" transform="translate(-452.167 -1011.6)"/>
      </g>
      <path id="Path_3741" data-name="Path 3741" class="cls-3" d="M505,1023.4" transform="translate(1098.145 -157.749)"/>
      <path id="Path_3742" data-name="Path 3742" class="cls-3" d="M489.6,1040.6" transform="translate(1095.68 -154.995)"/>
      <path id="Path_3743" data-name="Path 3743" class="cls-4" d="M488.9,1040.737H450.844a3.912,3.912,0,0,1-3.944-3.945V995.144a3.912,3.912,0,0,1,3.944-3.944H521.96a3.912,3.912,0,0,1,3.944,3.944v41.648a3.912,3.912,0,0,1-3.944,3.945h-3.016" transform="translate(1088.843 -162.905)"/>
      <line id="Line_444" data-name="Line 444" class="cls-2" x2="26.335" transform="translate(1578.551 839.084)"/>
      <line id="Line_445" data-name="Line 445" class="cls-2" x2="26.335" transform="translate(1578.551 846.161)"/>
      <line id="Line_446" data-name="Line 446" class="cls-2" x2="26.335" transform="translate(1578.551 853.237)"/>
      <g id="Group_5073" data-name="Group 5073" transform="translate(1580.175 862.866)">
        <ellipse id="SVGID_49_" class="cls-2" cx="12.645" cy="12.761" rx="12.645" ry="12.761" transform="translate(0 0)"/>
        <line id="Line_613" data-name="Line 613" class="cls-5" x2="11.252" y2="10.789" transform="translate(21.462 22.158)"/>
      </g>
      <path id="Path_3972" data-name="Path 3972" class="cls-6" d="M1867.342,556.128c-3.68,0-6.542-4.988-6.542-9.322,0-4.089,2.535-6.705,6.542-6.705,3.925,0,6.214,2.535,6.214,6.705C1873.557,551.221,1871.022,556.128,1867.342,556.128Z" transform="translate(-310.827 297.751)"/>
    </g>
  </g>
</svg>
