<svg xmlns="http://www.w3.org/2000/svg" viewBox="0 0 149.389 150">
  <defs>
    <style>
      .cls-1 {
        fill: #613b8c;
      }

      .cls-2, .cls-3, .cls-4, .cls-5, .cls-6 {
        fill: none;
        stroke-width: 1.5px;
      }

      .cls-2, .cls-4, .cls-5, .cls-6 {
        stroke: #fff;
      }

      .cls-2, .cls-3, .cls-5 {
        stroke-linecap: round;
      }

      .cls-2, .cls-4 {
        stroke-linejoin: round;
      }

      .cls-2, .cls-3, .cls-4, .cls-5 {
        stroke-miterlimit: 10;
      }

      .cls-3 {
        stroke: #505050;
      }
    </style>
  </defs>
  <g id="Account_Lookup_Purple_Fill" transform="translate(-3039.401 -992.708)">
    <ellipse id="SVGID_42_" class="cls-1" cx="74.694" cy="75" rx="74.694" ry="75" transform="translate(3039.401 992.708)"/>
    <g id="Group_4906" data-name="Group 4906" transform="translate(3085.359 1066.791)">
      <path id="Path_3737" data-name="Path 3737" class="cls-2" d="M465.534,1026.157h-1.223a39.541,39.541,0,0,1-9.579-.917A2.414,2.414,0,0,1,453,1023c0-1.223.2-3.567,1.427-4.993a7.193,7.193,0,0,1,3.974-2.242,12.913,12.913,0,0,0,2.344-.815,2.56,2.56,0,0,0,1.732-2.547" transform="translate(-453 -1011.585)"/>
      <path id="Path_3738" data-name="Path 3738" class="cls-2" d="M464.3,1026.157h1.223a39.541,39.541,0,0,0,9.579-.917,2.414,2.414,0,0,0,1.732-2.242c0-1.223-.2-3.567-1.427-4.993a7.193,7.193,0,0,0-3.974-2.242,12.913,12.913,0,0,1-2.344-.815,2.56,2.56,0,0,1-1.732-2.547" transform="translate(-452.785 -1011.585)"/>
      <path id="Path_3739" data-name="Path 3739" class="cls-2" d="M461.1,1025.3" transform="translate(-452.846 -1011.339)"/>
      <path id="Path_3740" data-name="Path 3740" class="cls-2" d="M458.2,1011.6" transform="translate(-452.901 -1011.6)"/>
    </g>
    <path id="Path_3741" data-name="Path 3741" class="cls-3" d="M505,1023.4" transform="translate(2633.348 55.415)"/>
    <path id="Path_3742" data-name="Path 3742" class="cls-3" d="M489.6,1040.6" transform="translate(2633.055 55.742)"/>
    <path id="Path_3743" data-name="Path 3743" class="cls-4" d="M483.789,1034.712H450.365a3.436,3.436,0,0,1-3.465-3.465V994.665a3.436,3.436,0,0,1,3.465-3.465h62.466a3.436,3.436,0,0,1,3.465,3.465v36.583a3.436,3.436,0,0,1-3.465,3.465h-2.649" transform="translate(2632.243 54.803)"/>
    <line id="Line_444" data-name="Line 444" class="cls-2" x2="23.132" transform="translate(3116.745 1055.48)"/>
    <line id="Line_445" data-name="Line 445" class="cls-2" x2="23.132" transform="translate(3116.745 1061.696)"/>
    <line id="Line_446" data-name="Line 446" class="cls-2" x2="23.132" transform="translate(3116.745 1067.912)"/>
    <g id="Group_5073" data-name="Group 5073" transform="translate(3118.172 1076.369)">
      <ellipse id="SVGID_49_" class="cls-2" cx="11.107" cy="11.209" rx="11.107" ry="11.209" transform="translate(0 0)"/>
      <line id="Line_613" data-name="Line 613" class="cls-5" x2="9.884" y2="9.477" transform="translate(18.852 19.463)"/>
    </g>
    <path id="Path_3972" data-name="Path 3972" class="cls-6" d="M1866.547,554.178c-3.233,0-5.746-4.381-5.746-8.188,0-3.591,2.227-5.89,5.746-5.89,3.448,0,5.459,2.227,5.459,5.89C1872.005,549.869,1869.779,554.178,1866.547,554.178Z" transform="translate(1230.842 514.297)"/>
  </g>
</svg>
