<svg xmlns="http://www.w3.org/2000/svg" viewBox="0 0 81.72 81.617">
  <defs>
    <style>
      .cls-1, .cls-2, .cls-3, .cls-4, .cls-5, .cls-6, .cls-7, .cls-8 {
        fill: none;
      }

      .cls-1, .cls-3, .cls-4, .cls-5, .cls-7, .cls-8 {
        stroke: #613b8c;
      }

      .cls-1, .cls-4, .cls-8 {
        stroke-width: 1.5px;
      }

      .cls-4, .cls-7, .cls-8 {
        stroke-linecap: round;
      }

      .cls-4 {
        stroke-linejoin: round;
      }

      .cls-4, .cls-5, .cls-7 {
        stroke-miterlimit: 10;
      }

      .cls-5 {
        stroke-width: 1.4px;
      }

      .cls-6 {
        stroke: #010101;
        stroke-width: 2px;
      }
    </style>
  </defs>
  <g id="Add_International_Customer" transform="translate(-805.25 -479.133)">
    <path id="Path_2021_1_" class="cls-1" d="M40.722,80.754A39.912,39.912,0,1,1,56.5,77.641h0A38.679,38.679,0,0,1,40.722,80.754Z" transform="translate(805.201 479.239)"/>
    <circle id="Ellipse_424" data-name="Ellipse 424" class="cls-2" cx="13.629" cy="13.629" r="13.629" transform="translate(836.157 493.135)"/>
    <path id="Path_3891" data-name="Path 3891" class="cls-3" d="M29.6,24.332A13.093,13.093,0,1,1,42.478,39.785a10.61,10.61,0,0,1-3.219-.429" transform="translate(807.308 480.179)"/>
    <path id="Path_460_1_" class="cls-4" d="M41.988,29.819c0,5.259-3.112,10.946-7.083,10.946s-7.4-5.688-7.4-10.946S30.934,22.2,34.9,22.2,41.988,24.561,41.988,29.819Z" transform="translate(807.154 480.808)"/>
    <path id="Path_461_1_" class="cls-4" d="M32.563,38.5a4.474,4.474,0,0,1-2.79,4.4c-3.327,1.61-6.01,1.288-8.156,3.756-1.4,1.61-1.717,4.293-1.717,6.117a2.09,2.09,0,0,0,1.717,2.146c2.039.537,6.224,1.4,13.844,1.288" transform="translate(806.598 482)"/>
    <path id="Path_3892" data-name="Path 3892" class="cls-4" d="M42.341,54.7a49.173,49.173,0,0,1-7.941.322" transform="translate(807.659 483.186)"/>
    <path id="Path_3893" data-name="Path 3893" class="cls-4" d="M37,38.5a4.474,4.474,0,0,0,2.79,4.4c2.683,1.288,4.937,1.288,6.761,2.576" transform="translate(807.849 482)"/>
    <circle id="Ellipse_45_3_" class="cls-5" cx="7.834" cy="7.834" r="7.834" transform="translate(849.786 527.154)"/>
    <path id="Path_486_1_" class="cls-6" d="M46.2,51.5" transform="translate(808.522 482.952)"/>
    <path id="Path_3894" data-name="Path 3894" class="cls-7" d="M43.8,37.034s3.327-2.79,3.327-10.517C47.127,19.649,43.8,16,43.8,16" transform="translate(808.347 480.354)"/>
    <path id="Path_3895" data-name="Path 3895" class="cls-7" d="M36.7,22.654A14.706,14.706,0,0,1,39.49,16" transform="translate(807.827 480.354)"/>
    <path id="Path_3896" data-name="Path 3896" class="cls-7" d="M51.946,27.2a11.921,11.921,0,0,1-4.722,1.932A23.132,23.132,0,0,1,41,29.454" transform="translate(808.142 481.174)"/>
    <line id="Line_567" data-name="Line 567" class="cls-8" y2="7.405" transform="translate(857.62 531.232)"/>
    <line id="Line_568" data-name="Line 568" class="cls-8" x2="7.405" transform="translate(853.864 534.988)"/>
  </g>
</svg>
