<svg xmlns="http://www.w3.org/2000/svg" viewBox="0 0 80.1 80">
  <defs>
    <style>
      .cls-1 {
        fill: #4b2b6f;
      }

      .cls-2, .cls-3, .cls-4, .cls-5, .cls-6, .cls-7 {
        fill: none;
        stroke: #fff;
      }

      .cls-3, .cls-6, .cls-7 {
        stroke-linecap: round;
      }

      .cls-3 {
        stroke-linejoin: round;
      }

      .cls-3, .cls-4, .cls-6 {
        stroke-miterlimit: 10;
      }

      .cls-3, .cls-7 {
        stroke-width: 1.5px;
      }

      .cls-4 {
        stroke-width: 1.4px;
      }

      .cls-5 {
        stroke-width: 2px;
      }
    </style>
  </defs>
  <g id="Add_International_Customer_Selected" transform="translate(-907.201 -480)">
    <path id="Path_2021_2_" class="cls-1" d="M142.029,80.754A39.91,39.91,0,1,1,157.7,77.641h0A38.184,38.184,0,0,1,142.029,80.754Z" transform="translate(805.201 479.239)"/>
    <path id="Path_3885" data-name="Path 3885" class="cls-2" d="M130.8,24.332a13.093,13.093,0,1,1,12.878,15.454,10.61,10.61,0,0,1-3.219-.429" transform="translate(807.308 480.179)"/>
    <path id="Path_460_3_" class="cls-3" d="M143.188,29.819c0,5.259-3.112,10.946-7.083,10.946s-7.4-5.688-7.4-10.946,3.434-7.619,7.4-7.619S143.188,24.561,143.188,29.819Z" transform="translate(807.154 480.808)"/>
    <path id="Path_461_3_" class="cls-3" d="M133.863,38.5a4.474,4.474,0,0,1-2.79,4.4c-3.327,1.61-6.01,1.288-8.156,3.756-1.4,1.61-1.717,4.293-1.717,6.117a2.09,2.09,0,0,0,1.717,2.146c2.039.537,6.224,1.4,13.844,1.288" transform="translate(806.605 482)"/>
    <path id="Path_3886" data-name="Path 3886" class="cls-3" d="M143.541,54.7a49.173,49.173,0,0,1-7.941.322" transform="translate(807.659 483.186)"/>
    <path id="Path_3887" data-name="Path 3887" class="cls-3" d="M138.3,38.5a4.474,4.474,0,0,0,2.79,4.4c2.683,1.288,4.937,1.288,6.761,2.576" transform="translate(807.856 482)"/>
    <circle id="Ellipse_45_4_" class="cls-4" cx="7.834" cy="7.834" r="7.834" transform="translate(950.986 527.154)"/>
    <path id="Path_486_2_" class="cls-5" d="M147.4,51.5" transform="translate(808.522 482.952)"/>
    <path id="Path_3888" data-name="Path 3888" class="cls-6" d="M145,37.034s3.327-2.79,3.327-10.517C148.327,19.649,145,16,145,16" transform="translate(808.347 480.354)"/>
    <path id="Path_3889" data-name="Path 3889" class="cls-6" d="M138,22.654A14.706,14.706,0,0,1,140.79,16" transform="translate(807.835 480.354)"/>
    <path id="Path_3890" data-name="Path 3890" class="cls-6" d="M153.246,27.2a11.921,11.921,0,0,1-4.722,1.932,23.132,23.132,0,0,1-6.224.322" transform="translate(808.149 481.174)"/>
    <line id="Line_565" data-name="Line 565" class="cls-7" y2="7.405" transform="translate(958.82 531.232)"/>
    <line id="Line_566" data-name="Line 566" class="cls-7" x2="7.405" transform="translate(955.171 534.988)"/>
  </g>
</svg>
