<svg xmlns="http://www.w3.org/2000/svg" viewBox="0 0 81.617 81.617">
  <defs>
    <style>
      .cls-1, .cls-2, .cls-3, .cls-4 {
        fill: none;
        stroke-width: 1.5px;
      }

      .cls-1, .cls-2, .cls-4 {
        stroke: #613b8c;
      }

      .cls-2, .cls-4 {
        stroke-linecap: round;
      }

      .cls-2 {
        stroke-linejoin: round;
        stroke-miterlimit: 10;
      }

      .cls-3 {
        stroke: #010101;
      }
    </style>
  </defs>
  <g id="Add_Customer" transform="translate(-118.351 -155.523)">
    <path id="Path_2021_54_" class="cls-1" d="M1735.591,360.583a39.99,39.99,0,1,1,15.575-3.157h0A39.624,39.624,0,0,1,1735.591,360.583Z" transform="translate(-1576.499 -124.192)"/>
    <path id="Path_460_4_" class="cls-2" d="M1739.155,306.7c0,5.472-3.262,11.471-7.367,11.471-4.209,0-7.788-6-7.788-11.471s3.578-8,7.788-8C1735.892,298.595,1739.155,301.121,1739.155,306.7Z" transform="translate(-1575.011 -123.243)"/>
    <path id="Path_461_4_" class="cls-2" d="M1728.971,316.3a4.823,4.823,0,0,1-3.052,4.736c-3.473,1.684-6.314,1.263-8.63,4-1.473,1.789-1.789,4.631-1.789,6.42a2.464,2.464,0,0,0,1.789,2.315c2.21.631,6.63,1.368,14.628,1.263" transform="translate(-1575.456 -122.321)"/>
    <path id="Path_3771" data-name="Path 3771" class="cls-2" d="M1739.509,333.8c-.316,0-5.788.421-8.209.316" transform="translate(-1574.629 -121.404)"/>
    <path id="Path_3772" data-name="Path 3772" class="cls-2" d="M1734.1,316.3a4.823,4.823,0,0,0,3.052,4.736c2.631,1.263,4.841,1.368,6.841,2.526" transform="translate(-1574.482 -122.321)"/>
    <path id="Path_3021_4_" class="cls-1" d="M1747.314,322.9a8.314,8.314,0,1,1-8.314,8.314,8.331,8.331,0,0,1,8.314-8.314Z" transform="translate(-1574.225 -121.975)"/>
    <path id="Path_486_48_" class="cls-3" d="M1744,330.4" transform="translate(-1573.963 -121.582)"/>
    <line id="Line_496" data-name="Line 496" class="cls-4" y2="7.156" transform="translate(173.194 205.661)"/>
    <line id="Line_497" data-name="Line 497" class="cls-4" x2="7.262" transform="translate(169.616 209.239)"/>
  </g>
</svg>
