<!-- Generated by IcoMoon.io -->
<svg version="1.1" xmlns="http://www.w3.org/2000/svg" width="32" height="32" viewBox="0 0 32 32">
<title>Associate-Login</title>
<path fill="#505050" d="M16 32c-8.837 0-16-7.163-16-16s7.163-16 16-16c8.837 0 16 7.163 16 16v0c-0.009 8.833-7.167 15.991-15.999 16h-0.001zM16 0.456c-8.585 0-15.544 6.959-15.544 15.544s6.959 15.544 15.544 15.544c8.585 0 15.544-6.959 15.544-15.544v0c-0.011-8.58-6.964-15.533-15.543-15.544h-0.001z"></path>
<path fill="#505050" d="M18.095 21.585h-8.942v-0.404c0-0.153 0-0.326 0-0.463 0.082-0.663 0.274-1.265 0.558-1.812l-0.014 0.029c0.251-0.592 0.674-1.070 1.205-1.384l0.014-0.007c0.664-0.369 1.439-0.708 2.247-0.973l0.096-0.027 0.189-0.065c0.381-0.134 0.652-0.248 0.932-0.368 0.198-0.135 0.327-0.359 0.327-0.614 0-0.013-0-0.027-0.001-0.040l0 0.002c-0.65-0.967-1.1-2.123-1.26-3.369l-0.004-0.040c-0.054-0.305-0.086-0.655-0.086-1.013s0.031-0.709 0.091-1.050l-0.005 0.036c0.235-1.284 0.899-1.988 2.033-2.147 0.219-0.035 0.471-0.055 0.728-0.055 0.312 0 0.617 0.030 0.912 0.086l-0.030-0.005c1.168 0.171 2.073 1.103 2.202 2.269l0.001 0.012c0.028 0.252 0.045 0.545 0.045 0.841 0 1.179-0.256 2.298-0.717 3.304l0.020-0.050c-0.12 0.274-0.236 0.5-0.365 0.717l0.016-0.030-0.13 0.241-0.029 0.059-0.059 0.033c-1.069 0.627-1.776 1.771-1.776 3.080 0 0.002 0 0.004 0 0.006v-0c0 0.003-0 0.007-0 0.011 0 1.116 0.504 2.115 1.298 2.78l0.006 0.005zM9.623 21.129h7.28c-0.655-0.72-1.056-1.681-1.056-2.736 0-0.003 0-0.005 0-0.008v0c-0-0.009-0-0.019-0-0.029 0-1.457 0.776-2.734 1.937-3.438l0.018-0.010 0.104-0.189c0.105-0.177 0.214-0.391 0.31-0.612l0.016-0.040c0.412-0.899 0.653-1.951 0.653-3.059 0-0.284-0.016-0.564-0.046-0.839l0.003 0.034c-0.127-0.997-0.782-1.665-1.841-1.874-0.239-0.048-0.513-0.075-0.794-0.075-0.234 0-0.464 0.019-0.687 0.056l0.024-0.003c-0.938 0.134-1.447 0.681-1.646 1.776-0.050 0.282-0.078 0.607-0.078 0.938s0.028 0.656 0.083 0.972l-0.005-0.034c0.154 1.207 0.572 2.293 1.194 3.231l-0.017-0.028c0.042 0.059 0.073 0.129 0.087 0.205l0.001 0.003c0.003 0.031 0.005 0.067 0.005 0.103 0 0.437-0.238 0.818-0.592 1.021l-0.006 0.003c-0.28 0.127-0.58 0.248-0.978 0.385l-0.186 0.065c-0.88 0.285-1.635 0.616-2.349 1.012l0.068-0.034c-0.46 0.274-0.817 0.679-1.024 1.163l-0.006 0.016c-0.248 0.473-0.425 1.022-0.502 1.604l-0.003 0.025c0.013 0.121 0.016 0.261 0.016 0.394z"></path>
<path fill="#505050" d="M19.787 21.582c-1.715 0-3.105-1.39-3.105-3.105s1.39-3.105 3.105-3.105v0c1.715 0 3.105 1.39 3.105 3.105s-1.39 3.105-3.105 3.105v0zM19.787 15.827c-1.463 0-2.649 1.186-2.649 2.649s1.186 2.649 2.649 2.649v0c0.011 0 0.024 0 0.037 0 1.42 0 2.571-1.151 2.571-2.571 0-0.028-0-0.055-0.001-0.082l0 0.004c0-0.013 0-0.027 0-0.042 0-1.44-1.167-2.607-2.607-2.607-0 0-0 0-0 0h0zM19.93 20.103c-0 0-0.001 0-0.001 0-0.050 0-0.098-0.011-0.141-0.030l0.002 0.001c-0.101-0.046-0.222-0.166-0.228-0.459 0-0.14 0-0.284 0-0.443v-0.039h-0.108c-0.326 0-0.619 0-0.922 0-0.013 0.001-0.028 0.001-0.042 0.001-0.214 0-0.407-0.089-0.544-0.232l-0-0c-0.090-0.102-0.146-0.238-0.146-0.386 0-0.028 0.002-0.056 0.006-0.083l-0 0.003c0.014-0.349 0.3-0.627 0.651-0.627 0.027 0 0.053 0.002 0.079 0.005l-0.003-0c0.3 0 0.596 0 0.916 0h0.104c0-0.15 0-0.293 0-0.44s0-0.398 0.235-0.495c0.043-0.016 0.093-0.026 0.145-0.026 0.123 0 0.234 0.052 0.311 0.136l0 0c0.342 0.277 0.675 0.567 1.013 0.854l0.326 0.277c0.111 0.084 0.182 0.214 0.186 0.361v0.001c-0.004 0.146-0.077 0.274-0.188 0.354l-0.001 0.001c-0.459 0.394-0.906 0.776-1.359 1.144-0.077 0.070-0.178 0.115-0.288 0.124l-0.002 0zM19.79 18.675h0.228v0.877c0.42-0.326 0.837-0.691 1.251-1.043l0.029-0.026-0.326-0.28c-0.326-0.27-0.629-0.541-0.948-0.802v0c0 0.147 0 0.293 0 0.45v0.427h-0.574c-0.326 0-0.626 0-0.925 0-0.212 0-0.254 0.052-0.267 0.209-0.002 0.009-0.003 0.019-0.003 0.029 0 0.034 0.011 0.066 0.029 0.092l-0-0c0.059 0.046 0.134 0.073 0.216 0.073 0.012 0 0.024-0.001 0.036-0.002l-0.002 0c0.3 0 0.6 0 0.916 0z"></path>
</svg>
