<svg xmlns="http://www.w3.org/2000/svg" viewBox="0 0 42.5 19.83">
  <defs>
    <style>
      .cls-1 {
        fill: #349815;
      }

      .cls-2 {
        fill: #333;
      }
    </style>
  </defs>
  <g id="Battery_Device" data-name="Battery Device" transform="translate(-2799 -1238)">
    <path id="Path_2861" data-name="Path 2861" class="cls-1" d="M9.12,12.608H36.585v13.12H9.12Z" transform="translate(2793.219 1228.749)"/>
    <path id="Path_2860" data-name="Path 2860" class="cls-2" d="M45.179,12.078V29.317H8.428V12.078Zm.6-1.294H7.77a.632.632,0,0,0-.6.647V29.964a.632.632,0,0,0,.6.647H45.837a.632.632,0,0,0,.6-.647V11.372a.6.6,0,0,0-.657-.588Z" transform="translate(2791.83 1227.219)"/>
    <path id="Path_2862" data-name="Path 2862" class="cls-2" d="M32.617,15.31v5.354H30.645V15.31Zm.329-1.294h-2.63a.9.9,0,0,0-.876.941v6.06a.9.9,0,0,0,.876.941h2.629a.9.9,0,0,0,.876-.941v-6.06a.9.9,0,0,0-.876-.941Z" transform="translate(2807.679 1229.93)"/>
  </g>
</svg>
