<svg xmlns="http://www.w3.org/2000/svg" viewBox="0 0 58.066 19.5">
  <defs>
    <style>
      .cls-1, .cls-4 {
        fill: #505050;
      }

      .cls-2 {
        fill: none;
        stroke: #505050;
        stroke-linejoin: round;
        stroke-width: 1.5px;
      }

      .cls-3, .cls-4 {
        stroke: none;
      }
    </style>
  </defs>
  <g id="Group_10712" data-name="Group 10712" transform="translate(-2045 -1398.75)">
    <g id="Path_1997" data-name="Path 1997" class="cls-1" transform="translate(2045 1387.064)">
      <path class="cls-3" d="M 1.342309951782227 30.4949836730957 L 0.1000000014901161 30.4949836730957 L 0.1000000014901161 12.03600311279297 L 4.980770111083984 12.03600311279297 C 5.640759944915771 12.03600311279297 6.310699939727783 12.13476371765137 7.089109897613525 12.34680366516113 C 7.643301486968994 12.52810287475586 8.15378475189209 12.83695030212402 8.60173225402832 13.26343631744385 C 9.028935432434082 13.72947406768799 9.351764678955078 14.22618579864502 9.561260223388672 14.73979377746582 C 9.78242015838623 15.34245300292969 9.899999618530273 16.02615356445312 9.899999618530273 16.71367263793945 C 9.899999618530273 17.44301414489746 9.788459777832031 18.13180351257324 9.558989524841309 18.81939315795898 C 9.357766151428223 19.3674430847168 9.006434440612793 19.91112899780273 8.48592472076416 20.47867584228516 C 8.004688262939453 20.94329643249512 6.898582935333252 21.52939414978027 6.789477348327637 21.58666610717773 C 6.671090126037598 21.6207389831543 5.46254825592041 21.96323585510254 4.736239910125732 21.9632740020752 C 4.681990146636963 21.9632740020752 4.631199836730957 21.96132278442383 4.585269927978516 21.95747375488281 L 4.580100059509277 21.9570426940918 L 4.574920177459717 21.95714378356934 L 1.440310001373291 22.02000427246094 L 1.342309951782227 22.02197265625 L 1.342309951782227 22.1199836730957 L 1.342309951782227 30.4949836730957 Z M 4.458624362945557 20.77411270141602 C 4.55004358291626 20.779296875 4.642144203186035 20.78193283081055 4.732429981231689 20.78193283081055 C 5.796549797058105 20.78197288513184 6.736859798431396 20.43265342712402 7.527249813079834 19.74367332458496 L 7.531449794769287 19.74001312255859 L 7.535220146179199 19.73590278625488 C 8.278384208679199 18.92610549926758 8.656476020812988 17.89666938781738 8.599998474121094 16.83680725097656 C 8.599514007568359 15.64899635314941 8.268502235412598 14.73953914642334 7.616129875183105 14.13369369506836 C 6.962570190429688 13.52675342559814 5.978859901428223 13.21901321411133 4.692309856414795 13.21901321411133 L 1.442309975624084 13.21901321411133 L 1.342309951782227 13.21901321411133 L 1.342309951782227 13.31901359558105 L 1.342309951782227 20.67411422729492 L 1.342309951782227 20.77411270141602 L 1.442309975624084 20.77411270141602 L 4.458624362945557 20.77411270141602 Z"/>
      <path class="cls-4" d="M 1.242310047149658 30.39498329162598 L 1.242310047149658 22.1199836730957 L 1.242310047149658 21.92395401000977 L 1.438300013542175 21.92002296447754 L 4.572909832000732 21.85716247558594 L 4.583280086517334 21.85695266723633 L 4.593609809875488 21.85782432556152 C 4.636809825897217 21.86144256591797 4.684800148010254 21.86327362060547 4.73622989654541 21.86327362060547 C 5.43273401260376 21.86323547363281 6.591208934783936 21.53933143615723 6.752010822296143 21.49337959289551 C 6.899613380432129 21.41556930541992 7.952878475189209 20.85304832458496 8.414438247680664 20.40868377685547 C 8.923872947692871 19.85274696350098 9.267640113830566 19.32141876220703 9.465136528015137 18.78475189208984 C 9.690465927124023 18.10851097106934 9.800000190734863 17.4310302734375 9.800000190734863 16.71367263793945 C 9.800000190734863 16.03905296325684 9.684964179992676 15.36850166320801 9.467326164245605 14.77428817749023 C 9.262659072875977 14.27373504638672 8.947415351867676 13.78903293609619 8.530254364013672 13.3334493637085 C 8.095076560974121 12.91979885101318 7.599794387817383 12.61990261077881 7.058025360107422 12.44198799133301 C 6.290469169616699 12.23323726654053 5.630279541015625 12.1360034942627 4.980770111083984 12.1360034942627 L 0.2000000029802322 12.1360034942627 L 0.2000000029802322 30.39498329162598 L 1.242310047149658 30.39498329162598 M 4.455905914306641 20.87411308288574 L 1.442309975624084 20.87411308288574 L 1.242310047149658 20.87411308288574 L 1.242310047149658 20.67411422729492 L 1.242310047149658 13.31901359558105 L 1.242310047149658 13.11901378631592 L 1.442309975624084 13.11901378631592 L 4.692309856414795 13.11901378631592 C 6.00492000579834 13.11901378631592 7.011529922485352 13.43574333190918 7.684179782867432 14.06042385101318 C 8.357242584228516 14.68547630310059 8.698997497558594 15.6186056137085 8.699996948242188 16.83401298522949 C 8.757162094116211 17.9200267791748 8.369784355163574 18.97441291809082 7.608890056610107 19.80352401733398 L 7.601359844207764 19.81173324584961 L 7.592959880828857 19.81905364990234 C 6.795269966125488 20.5143928527832 5.806180000305176 20.88193321228027 4.732439994812012 20.88193321228027 C 4.641254901885986 20.88193321228027 4.548246383666992 20.87930488586426 4.455905914306641 20.87411308288574 M 1.442309975624084 30.59498405456543 L 0 30.59498405456543 L 0 11.93600368499756 L 4.980770111083984 11.93600368499756 C 5.730770111083984 11.93600368499756 6.423079967498779 12.06173324584961 7.115389823913574 12.25032329559326 C 7.692309856414795 12.43891334533691 8.211540222167969 12.75323295593262 8.673080444335938 13.19328308105469 C 9.076919555664062 13.63333320617676 9.423080444335938 14.13624382019043 9.653849601745605 14.70202350616455 C 9.88461971282959 15.33066368103027 10 16.02216339111328 10 16.71367263793945 C 10 17.46804428100586 9.88461971282959 18.15954399108887 9.653849601745605 18.85105323791504 C 9.423080444335938 19.47969245910645 9.019229888916016 20.04547309875488 8.557689666748047 20.54838371276855 C 8.038459777832031 21.05129432678223 6.826920032501221 21.67993354797363 6.826920032501221 21.67993354797363 C 6.826920032501221 21.67993354797363 5.520255088806152 22.06322860717773 4.736242771148682 22.06326866149902 C 4.680201530456543 22.06327247619629 4.626953601837158 22.06131744384766 4.576920032501221 22.0571231842041 L 1.442309975624084 22.1199836730957 L 1.442309975624084 30.59498405456543 Z M 1.442309975624084 13.31901359558105 L 1.442309975624084 20.67411422729492 L 4.461540222167969 20.67411422729492 C 4.552194595336914 20.67931175231934 4.642635345458984 20.68193054199219 4.73243522644043 20.68193435668945 C 5.728454113006592 20.68197250366211 6.667719841003418 20.36026573181152 7.461540222167969 19.66829299926758 C 8.153849601745605 18.91391372680664 8.557689666748047 17.9080924987793 8.5 16.83940315246582 C 8.5 14.5134334564209 7.230770111083984 13.31901359558105 4.692309856414795 13.31901359558105 L 1.442309975624084 13.31901359558105 Z"/>
    </g>
    <g id="Battery_PED" data-name="Battery PED" transform="translate(-253 -8914)">
      <path id="Path_4796" data-name="Path 4796" class="cls-2" d="M36.9,23.211V29.32H.76v-18H36.9v6.109h2.351c.274,0,.507.326.507.723v4.378c0,.4-.223.723-.507.723Z" transform="translate(2315.557 10302.18)"/>
    </g>
  </g>
</svg>
