<svg xmlns="http://www.w3.org/2000/svg" viewBox="0 0 38.077 30.938">
  <defs>
    <style>
      .cls-1 {
        fill: #613b8c;
      }
    </style>
  </defs>
  <g id="_001-photo-camera" data-name="001-photo-camera" transform="translate(-1014.991 -262)">
    <g id="Group_10004" data-name="Group 10004" transform="translate(1023.279 268.069)">
      <g id="Group_10003" data-name="Group 10003">
        <path id="Path_6827" data-name="Path 6827" class="cls-1" d="M122.18,129.6a10.739,10.739,0,1,0,10.74,10.739A10.751,10.751,0,0,0,122.18,129.6Zm0,19.1a8.36,8.36,0,1,1,8.36-8.36A8.37,8.37,0,0,1,122.18,148.7Z" transform="translate(-111.44 -129.6)"/>
      </g>
    </g>
    <g id="Group_10006" data-name="Group 10006" transform="translate(1014.991 262)">
      <g id="Group_10005" data-name="Group 10005">
        <path id="Path_6828" data-name="Path 6828" class="cls-1" d="M34.543,52.76H27.8l-1.045-2.571A4.121,4.121,0,0,0,23.257,48h-8.45a4.138,4.138,0,0,0-3.533,2.257l-1.015,2.5H3.521A3.479,3.479,0,0,0,0,56.188V75.546a3.461,3.461,0,0,0,3.521,3.391H34.543a3.468,3.468,0,0,0,3.534-3.39V56.188A3.486,3.486,0,0,0,34.543,52.76ZM35.7,75.546a1.109,1.109,0,0,1-1.154,1.011H3.521a1.1,1.1,0,0,1-1.141-1.01V56.188a1.112,1.112,0,0,1,1.141-1.048h7.54a1.189,1.189,0,0,0,1.1-.743l1.284-3.175a1.781,1.781,0,0,1,1.36-.842h8.45a1.79,1.79,0,0,1,1.328.772L25.9,54.4a1.192,1.192,0,0,0,1.1.743h7.54A1.133,1.133,0,0,1,35.7,56.188Z" transform="translate(0 -48)"/>
      </g>
    </g>
    <g id="Group_10008" data-name="Group 10008" transform="translate(1018.533 270.319)">
      <g id="Group_10007" data-name="Group 10007">
        <ellipse id="Ellipse_618" data-name="Ellipse 618" class="cls-1" cx="1.213" cy="1.213" rx="1.213" ry="1.213"/>
      </g>
    </g>
    <g id="Group_10010" data-name="Group 10010" transform="translate(1029.233 274.022)">
      <g id="Group_10009" data-name="Group 10009">
        <path id="Path_6829" data-name="Path 6829" class="cls-1" d="M196.29,209.648a4.786,4.786,0,1,0,4.786,4.786A4.792,4.792,0,0,0,196.29,209.648Zm0,7.193a2.407,2.407,0,1,1,2.406-2.407A2.409,2.409,0,0,1,196.29,216.841Z" transform="translate(-191.504 -209.648)"/>
      </g>
    </g>
  </g>
</svg>
