<svg xmlns="http://www.w3.org/2000/svg" viewBox="0 0 47.252 47.252">
    <defs>
        <style>
            .cls-1{fill:#613b8c;fill-rule:evenodd}
        </style>
    </defs>
    <path id="Cancel_Purple_SFF" d="M79.252 55.626a23.626 23.626 0 1 0-23.626 23.626 23.626 23.626 0 0 0 23.626-23.626zm-44.627 0a21 21 0 1 1 21 21 21 21 0 0 1-21-21zm22.857 0l6.947 6.947a1.313 1.313 0 1 1-1.856 1.856l-6.947-6.947-6.947 6.947a1.313 1.313 0 1 1-1.856-1.856l6.947-6.947-6.947-6.947a1.313 1.313 0 0 1 1.856-1.856l6.947 6.947 6.947-6.947a1.313 1.313 0 1 1 1.856 1.856z" class="cls-1" transform="translate(-32 -32)"/>
</svg>
