<svg id="Layer_1" data-name="Layer 1" xmlns="http://www.w3.org/2000/svg" viewBox="0 0 100 100"><defs><style>.cls-1{fill:#505050;}</style></defs><title>Clock</title><g id="SVGID"><path class="cls-1" d="M50,97.9A47.9,47.9,0,1,1,97.7,50,47.86,47.86,0,0,1,50,97.9ZM50,3.5A46.5,46.5,0,1,0,96.3,50,46.45,46.45,0,0,0,50,3.5Z"/></g><path class="cls-1" d="M50,50.7a.7.7,0,0,1-.7-.7V14.6a.7.7,0,0,1,1.4,0V50A.7.7,0,0,1,50,50.7Z"/><path class="cls-1" d="M71.1,68.8a.7.7,0,0,1-.46-.17l-21.1-18.1a.7.7,0,1,1,.91-1.06l21.1,18.1a.7.7,0,0,1-.46,1.23Z"/></svg>