<svg id="Layer_1" data-name="Layer 1" xmlns="http://www.w3.org/2000/svg" viewBox="0 0 100 100"><defs><style>.cls-1{fill:#fff;}</style></defs><title>Close White</title><g id="SVGID"><path class="cls-1" d="M50,98.2A48.2,48.2,0,1,1,98,50,48.15,48.15,0,0,1,50,98.2ZM50,3.8A46.2,46.2,0,1,0,96,50,46.15,46.15,0,0,0,50,3.8Z"/></g><path class="cls-1" d="M66,66.73a.7.7,0,0,1-.5-.21l-32-32.05a.7.7,0,1,1,1-1l32,32.05a.7.7,0,0,1-.5,1.2Z"/><path class="cls-1" d="M34,66.73a.7.7,0,0,1-.5-1.2l32-32.05a.7.7,0,1,1,1,1l-32,32.05A.7.7,0,0,1,34,66.73Z"/></svg>