<svg xmlns="http://www.w3.org/2000/svg" viewBox="0 0 28 28">
    <defs>
        <style>
            .cls-1{fill:#613b8c;fill-rule:evenodd}
        </style>
    </defs>
    <path id="Close_Bttn_Purple" d="M60 46a14 14 0 1 0-14 14 14 14 0 0 0 14-14zm-26.444 0A12.444 12.444 0 1 1 46 58.444 12.444 12.444 0 0 1 33.556 46zM47.1 46l4.117 4.117a.778.778 0 1 1-1.1 1.1L46 47.1l-4.117 4.117a.778.778 0 0 1-1.1-1.1L44.9 46l-4.117-4.117a.778.778 0 1 1 1.1-1.1L46 44.9l4.117-4.117a.778.778 0 1 1 1.1 1.1z" class="cls-1" transform="translate(-32 -32)"/>
</svg>
