<!-- Generated by IcoMoon.io -->
<svg version="1.1" xmlns="http://www.w3.org/2000/svg" width="32" height="32" viewBox="0 0 32 32">
<title>Close-Black</title>
<path fill="#505050" d="M16 31.424c-0.019 0-0.041 0-0.064 0-8.518 0-15.424-6.906-15.424-15.424s6.906-15.424 15.424-15.424c8.518 0 15.424 6.905 15.424 15.424v0c0 0.005 0 0.010 0 0.016 0 8.493-6.871 15.381-15.357 15.408h-0.003zM16 1.216c-0.019-0-0.041-0-0.064-0-8.165 0-14.784 6.619-14.784 14.784s6.619 14.784 14.784 14.784c8.165 0 14.784-6.619 14.784-14.784v0c0-0.005 0-0.010 0-0.016 0-8.139-6.585-14.741-14.717-14.768h-0.003z"></path>
<path fill="#505050" d="M21.12 21.354c0 0-0 0-0 0-0.063 0-0.119-0.026-0.16-0.067l-10.24-10.24c-0.041-0.041-0.066-0.098-0.066-0.16 0-0.125 0.101-0.226 0.226-0.226 0.062 0 0.119 0.025 0.16 0.066l10.24 10.24c0.042 0.041 0.067 0.097 0.067 0.16 0 0.124-0.1 0.224-0.224 0.224-0.001 0-0.002 0-0.003-0h0z"></path>
<path fill="#505050" d="M10.88 21.354c-0.001 0-0.002 0-0.003 0-0.124 0-0.224-0.1-0.224-0.224 0-0.063 0.026-0.119 0.067-0.16l10.24-10.24c0.041-0.041 0.098-0.066 0.16-0.066 0.125 0 0.226 0.101 0.226 0.226 0 0.062-0.025 0.119-0.066 0.16l-10.24 10.24c-0.040 0.040-0.096 0.064-0.157 0.064-0.001 0-0.002 0-0.003-0h0z"></path>
</svg>
