<svg xmlns="http://www.w3.org/2000/svg" viewBox="0 0 121.589 122">
  <defs>
    <style>
      .cls-1, .cls-2 {
        fill: none;
        stroke: #505050;
        stroke-linejoin: round;
        stroke-miterlimit: 10;
        stroke-width: 2px;
      }

      .cls-1 {
        stroke-linecap: round;
      }
    </style>
  </defs>
  <g id="Confirm_Email" transform="translate(-4008.701 -410.908)">
    <ellipse id="SVGID_33_" class="cls-1" cx="59.795" cy="60" rx="59.795" ry="60" transform="translate(4009.701 411.908)"/>
    <g id="Group_5028" data-name="Group 5028" transform="translate(4038.009 446.78)">
      <path id="Path_3765" data-name="Path 3765" class="cls-1" d="M1113.005,579.792h-10.256a5.953,5.953,0,0,1-5.949-5.949V542.049a5.953,5.953,0,0,1,5.949-5.949h50.872a5.953,5.953,0,0,1,5.949,5.949v31.795a5.953,5.953,0,0,1-5.949,5.949h-9.846" transform="translate(-1096.8 -536.1)"/>
      <path id="Path_3766" data-name="Path 3766" class="cls-1" d="M1098.3,538.6l25.949,18.974a7.553,7.553,0,0,0,4,1.539" transform="translate(-1096.761 -536.036)"/>
      <path id="Path_3767" data-name="Path 3767" class="cls-1" d="M1157.449,538.6,1131.5,557.574a7.553,7.553,0,0,1-4,1.539" transform="translate(-1096.013 -536.036)"/>
      <line id="Line_492" data-name="Line 492" class="cls-2" y1="22.564" x2="22.564" transform="translate(1.539 19.487)"/>
      <line id="Line_493" data-name="Line 493" class="cls-2" x1="22.564" y1="22.667" transform="translate(38.564 19.282)"/>
      <ellipse id="Ellipse_261" data-name="Ellipse 261" class="cls-1" cx="13.744" cy="13.744" rx="13.744" ry="13.744" transform="translate(18.154 35.077)"/>
      <path id="Path_3768" data-name="Path 3768" class="cls-1" d="M1121.1,583.808l5.436,5.538,9.949-9.846" transform="translate(-1096.177 -534.987)"/>
    </g>
  </g>
</svg>
