<svg id="Layer_1" data-name="Layer 1" xmlns="http://www.w3.org/2000/svg" viewBox="0 0 100 100"><defs><style>.cls-1{fill:#505050;}</style></defs><title>Customer_Cart</title><g id="SVGID"><path class="cls-1" d="M50,98.6A48.6,48.6,0,1,1,98.4,50,48.55,48.55,0,0,1,50,98.6ZM50,2.8A47.2,47.2,0,1,0,97,50,47.15,47.15,0,0,0,50,2.8Z"/></g><path class="cls-1" d="M43.6,58.23a1.89,1.89,0,0,1-1-.29,1.4,1.4,0,0,1-.44-.69l-6.77-22v0H33.29a.7.7,0,1,1,0-1.4h2.13a1.18,1.18,0,0,1,.88.29,2,2,0,0,1,.39.71l6.76,22v0l.22,0H61l0-.09,3.27-13.18a.7.7,0,1,1,1.36.34l-3.27,13.2c-.18.68-.4.84-.48.91a1.5,1.5,0,0,1-1,.24Z"/><path class="cls-1" d="M64.15,47.74H46.61a.7.7,0,0,1,0-1.4H64.15a.7.7,0,1,1,0,1.4Z"/><path class="cls-1" d="M47,61a.95.95,0,1,1-.95.95A1,1,0,0,1,47,61m0-1.5a2.45,2.45,0,1,0,2.45,2.45A2.45,2.45,0,0,0,47,59.5Z"/><path class="cls-1" d="M57.34,61a.95.95,0,1,1-.95.95,1,1,0,0,1,.95-.95m0-1.5a2.45,2.45,0,1,0,2.45,2.45,2.45,2.45,0,0,0-2.45-2.45Z"/></svg>