<svg xmlns="http://www.w3.org/2000/svg" viewBox="0 0 149.389 150">
  <defs>
    <style>
      .cls-1 {
        fill: #613b8c;
      }

      .cls-2, .cls-3, .cls-4, .cls-5 {
        fill: none;
        stroke-width: 1.5px;
      }

      .cls-2 {
        stroke: #505050;
      }

      .cls-2, .cls-3, .cls-5 {
        stroke-linecap: round;
        stroke-miterlimit: 10;
      }

      .cls-3, .cls-4, .cls-5 {
        stroke: #fff;
      }

      .cls-5 {
        stroke-linejoin: round;
      }
    </style>
  </defs>
  <g id="Customer_Search_Purple_Fill" transform="translate(-3039.401 -540.808)">
    <ellipse id="SVGID_50_" class="cls-1" cx="74.694" cy="75" rx="74.694" ry="75" transform="translate(3039.401 540.808)"/>
    <path id="Path_3710" data-name="Path 3710" class="cls-2" d="M506.8,571.5" transform="translate(2633.382 55.415)"/>
    <path id="Path_3711" data-name="Path 3711" class="cls-2" d="M491.4,588.7" transform="translate(2633.089 55.742)"/>
    <g id="Group_4888" data-name="Group 4888" transform="translate(3088.62 582.369)">
      <path id="Path_3712" data-name="Path 3712" class="cls-3" d="M504.022,568.724c-2.548-3.159-5.5-3.872-8.56-4.789a26.513,26.513,0,0,1-4.993-1.732c-4.178-1.936-3.668-5.3-3.668-5.5" transform="translate(-455.618 -527.235)"/>
      <path id="Path_3714" data-name="Path 3714" class="cls-3" d="M483,586.555a21.237,21.237,0,0,1-2.548,0c-11.515,0-17.935-1.325-20.584-2.038a4.981,4.981,0,0,1-3.668-4.891c0-2.649.408-7.745,2.955-10.8s5.5-3.872,8.56-4.789a26.518,26.518,0,0,0,4.993-1.732c4.178-1.936,3.668-5.3,3.668-5.5" transform="translate(-456.2 -527.233)"/>
      <path id="Path_3715" data-name="Path 3715" class="cls-3" d="M480.3,586a21.237,21.237,0,0,0,2.548,0c2.853,0,5.4-.1,7.643-.2" transform="translate(-455.742 -526.682)"/>
      <path id="Path_3973" data-name="Path 3973" class="cls-4" d="M1873.518,571.259c-7.155,0-12.718-9.7-12.718-18.123,0-7.948,4.928-13.036,12.718-13.036,7.63,0,12.082,4.928,12.082,13.036C1885.6,561.721,1880.672,571.259,1873.518,571.259Z" transform="translate(-1847.969 -540.1)"/>
    </g>
    <g id="Group_4891" data-name="Group 4891" transform="translate(3120.209 622.431)">
      <ellipse id="SVGID_49_" class="cls-5" cx="11.107" cy="11.209" rx="11.107" ry="11.209" transform="translate(0 0)"/>
      <line id="Line_428" data-name="Line 428" class="cls-3" x2="8.152" y2="7.948" transform="translate(18.852 19.463)"/>
    </g>
  </g>
</svg>
