<svg id="Layer_1" data-name="Layer 1" xmlns="http://www.w3.org/2000/svg" viewBox="0 0 100 100"><defs><style>.cls-1{fill:#505050;}</style></defs><title>Customer Search</title><path class="cls-1" d="M50.34,29.15c4.58,0,7.2,2.88,7.2,7.9,0,5.43-3.08,11.5-7.2,11.5s-7.6-6.29-7.6-11.5c0-4.95,2.84-7.9,7.6-7.9m0-1.4c-5.5,0-9,3.6-9,9.3,0,6,3.9,12.9,9,12.9s8.6-6.8,8.6-12.9c0-5.8-3.2-9.3-8.6-9.3Z"/><path class="cls-1" d="M50.51,68.78l-.63,0h-.48c-7.79,0-12.17-.89-14.09-1.42a4.06,4.06,0,0,1-3-4c0-1.53.21-5.34,2.16-7.74,1.77-2.19,3.87-2.78,5.89-3.36l.26-.07A16.76,16.76,0,0,0,43.9,51c2-.95,2.16-2.41,2.12-3l.7-.08h.7a4.44,4.44,0,0,1-2.91,4.33A18,18,0,0,1,41,53.52l-.25.07c-2,.56-3.7,1.05-5.19,2.89-1.71,2.11-1.84,5.79-1.84,6.86A2.65,2.65,0,0,0,35.66,66c1.89.52,6.13,1.38,13.75,1.38l.54,0a6.43,6.43,0,0,0,1.08,0,.7.7,0,0,1,.17,1.39A5.85,5.85,0,0,1,50.51,68.78Z"/><path class="cls-1" d="M66.34,57.65a.7.7,0,0,1-.61-.36,5.82,5.82,0,0,0-.54-.81C63.7,54.65,62,54.16,60,53.59l-.26-.07a18,18,0,0,1-3.52-1.25,4.43,4.43,0,0,1-2.89-4.35.73.73,0,0,1,.72-.67.69.69,0,0,1,.68.69A3.07,3.07,0,0,0,56.83,51a16.74,16.74,0,0,0,3.29,1.16l.27.08c2,.58,4.13,1.17,5.89,3.36a7.17,7.17,0,0,1,.68,1,.7.7,0,0,1-.61,1Z"/><path class="cls-1" d="M49.63,68a13.36,13.36,0,0,0,1.7,0c1.94,0,3.66-.06,5.18-.15"/><path class="cls-1" d="M50.23,68.78a5.85,5.85,0,0,1-.68,0,.7.7,0,0,1,.17-1.39,6.43,6.43,0,0,0,1.08,0l.54,0c1.8,0,3.53,0,5.14-.15a.7.7,0,0,1,.08,1.4c-1.64.1-3.4.15-5.23.15h-.48Z"/><g id="SVGID"><path class="cls-1" d="M50,98.6A48.6,48.6,0,1,1,98.4,50,48.55,48.55,0,0,1,50,98.6ZM50,2.8A47.2,47.2,0,1,0,97,50,47.15,47.15,0,0,0,50,2.8Z"/></g><g id="SVGID-2" data-name="SVGID"><path class="cls-1" d="M65,74.81a9.31,9.31,0,1,1,9.28-9.31A9.31,9.31,0,0,1,65,74.81Zm0-17.23a7.91,7.91,0,1,0,7.88,7.91A7.9,7.9,0,0,0,65,57.59Z"/></g><path class="cls-1" d="M54.27,69.2ZM58,65.5Zm-3.3-3.4Z"/><path class="cls-1" d="M77.25,78.71a.7.7,0,0,1-.48-.2l-6.34-6.1a.7.7,0,1,1,1-1l6.34,6.1a.7.7,0,0,1-.48,1.21Z"/></svg>