<svg xmlns="http://www.w3.org/2000/svg" viewBox="0 0 80 69.238">
  <defs>
    <style>
      .cls-1 {
        fill: #a31818;
      }
    </style>
  </defs>
  <g id="Group_4755" data-name="Group 4755" transform="translate(-3934.5 -1285.5)">
    <path id="Path_2462" data-name="Path 2462" class="cls-1" d="M-76.6,358.138h-66.04a6.988,6.988,0,0,1-6.025-3.388,6.483,6.483,0,0,1,0-6.778l33.022-55.684a6.852,6.852,0,0,1,6.019-3.388,6.852,6.852,0,0,1,6.025,3.388l33.022,55.684a6.483,6.483,0,0,1,0,6.778A7.132,7.132,0,0,1-76.6,358.138Zm-33.024-65.51a2.834,2.834,0,0,0-2.666,1.578l-33.022,55.684a2.893,2.893,0,0,0,0,3.048,3.348,3.348,0,0,0,2.666,1.578h66.04a2.834,2.834,0,0,0,2.666-1.578,2.893,2.893,0,0,0,0-3.048l-33.022-55.684A3.087,3.087,0,0,0-109.627,292.627Z" transform="translate(4084.125 996.6)"/>
    <rect id="Rectangle_583" data-name="Rectangle 583" class="cls-1" width="2.539" height="4.154" rx="1.269" transform="translate(3973.62 1338.698)"/>
    <path id="Path_3663" data-name="Path 3663" class="cls-1" d="M1.269,0A1.269,1.269,0,0,1,2.539,1.269V24.118a1.269,1.269,0,1,1-2.539,0V1.269A1.269,1.269,0,0,1,1.269,0Z" transform="translate(3973.62 1307.541)"/>
  </g>
</svg>
