<svg xmlns="http://www.w3.org/2000/svg" viewBox="0 0 35 35">
    <defs>
        <style>
            .cls-1{fill:#fff}
        </style>
    </defs>
    <path id="Gift_Receipt_Checked_AN" d="M31.232 0H3.866A3.864 3.864 0 0 0 0 3.866v27.268A3.864 3.864 0 0 0 3.866 35H31.13A3.864 3.864 0 0 0 35 31.134V3.866A3.717 3.717 0 0 0 31.232 0zm-1.425 11.6L14.242 26.555a.8.8 0 0 1-1.119 0l-7.731-7.529a1.85 1.85 0 0 1 0-2.747 1.9 1.9 0 0 1 2.645 0l5.7 5.494L27.162 8.852a1.9 1.9 0 0 1 2.645 0 2.032 2.032 0 0 1 0 2.748z" class="cls-1"/>
</svg>
