<svg xmlns="http://www.w3.org/2000/svg" viewBox="2047 -14390 120 120">
    <defs>
        <style>
            .cls-1,.cls-5{fill:none}.cls-1,.cls-2,.cls-3{stroke:#505050;stroke-miterlimit:10}.cls-1{stroke-width:2px}.cls-2{fill:#505050}.cls-3{fill:#511891}.cls-4{stroke:none}
        </style>
    </defs>
    <g id="Gift_Card_Black" transform="translate(-6929 -13088)">
        <g id="Ellipse_207" class="cls-1" data-name="Ellipse 207" transform="translate(8976 -1302)">
            <circle cx="60" cy="60" r="60" class="cls-4"/>
            <circle cx="60" cy="60" r="59" class="cls-5"/>
        </g>
        <path id="Path_498" d="M280.6 618.333h-15.922a34.442 34.442 0 0 0-.744-6.845c0-.3-.149-.6-.149-.893a.671.671 0 0 0-.446-.446 13.627 13.627 0 0 0-2.53-.149c-4.464 0-9.077 1.488-12.5 2.678a6.961 6.961 0 0 0-4.167-1.339 6.651 6.651 0 0 0-4.167 1.339 35.141 35.141 0 0 0-12.5-2.678 14.449 14.449 0 0 0-2.53.149.475.475 0 0 0-.446.446 1.618 1.618 0 0 0-.149.744 50.706 50.706 0 0 0-.744 6.845h-.744a4.448 4.448 0 0 0-4.462 4.316v34.076a4.353 4.353 0 0 0 4.464 4.315H280.6a4.448 4.448 0 0 0 4.464-4.315V622.5a4.531 4.531 0 0 0-4.464-4.167zm-19.791-7.143a7.856 7.856 0 0 1 1.935.149v.446a46.373 46.373 0 0 1 .744 6.547v1.191a31.524 31.524 0 0 1-.744 6.547v.149a8.478 8.478 0 0 1-1.935.149 32.78 32.78 0 0 1-5.357-.6c-.149 0-.3-.149-.6-.149-.149 0-.3-.149-.6-.149-1.786-.446-3.423-1.042-4.911-1.488a7.832 7.832 0 0 0 1.935-4.018v-.446h3.571a.64.64 0 0 0 .6-.6c0-.3-.149-.446-.446-.6h-3.72a7.373 7.373 0 0 0-2.083-4.613 32.316 32.316 0 0 1 11.611-2.515zm-21.13 13.393a6.857 6.857 0 0 0 3.869 1.488 6.915 6.915 0 0 1-2.083 3.422 20.6 20.6 0 0 0-3.274 4.018 27.786 27.786 0 0 1-3.869-7.143 45.175 45.175 0 0 0 5.357-1.785zm8.928 0q2.455.893 5.357 1.786a27.782 27.782 0 0 1-3.869 7.143 20.606 20.606 0 0 0-3.274-4.018c-1.19-1.19-1.934-1.934-2.083-3.422a6.268 6.268 0 0 0 3.869-1.489zm-4.464-12.053a6.774 6.774 0 0 1 2.976.744c.149.149.446.149.6.3l.446.447a6.262 6.262 0 0 1 2.083 4.166v1.34a.9.9 0 0 1-.149.6 5.718 5.718 0 0 1-1.935 3.274l-.446.446a2.055 2.055 0 0 1-.6.446 7.11 7.11 0 0 1-2.679.893h-1.19a7.109 7.109 0 0 1-2.678-.893c-.149-.149-.446-.3-.6-.446l-.446-.446a6.654 6.654 0 0 1-1.934-3.274.9.9 0 0 0-.149-.6v-1.34a6.262 6.262 0 0 1 2.083-4.166l.446-.447a1.129 1.129 0 0 1 .6-.3 11.787 11.787 0 0 1 3.572-.744zm-18.749-.893v-.3a8.478 8.478 0 0 1 1.934-.149 30.832 30.832 0 0 1 11.458 2.53 7.373 7.373 0 0 0-2.083 4.613h-3.72c-.3 0-.446.3-.446.6a.64.64 0 0 0 .6.6h3.563v.446a6.828 6.828 0 0 0 1.934 4.018 38.345 38.345 0 0 1-4.911 1.488c-.149 0-.3.149-.6.149-.149 0-.3.149-.6.149a21.909 21.909 0 0 1-5.357.6 7.855 7.855 0 0 1-1.934-.149v-.149a31.536 31.536 0 0 1-.6-6.547v-1.191a46.061 46.061 0 0 1 .762-6.708zm58.48 45.088A3.3 3.3 0 0 1 280.6 660h-57.736a3.3 3.3 0 0 1-3.274-3.274v-34.078a3.3 3.3 0 0 1 3.274-3.274h.744a32.969 32.969 0 0 0 .744 6.7.9.9 0 0 0 .149.6.671.671 0 0 0 .446.446 13.6 13.6 0 0 0 2.53.149 25.86 25.86 0 0 0 5.8-.744 29.7 29.7 0 0 0 4.613 8.184.547.547 0 0 0 .446.149c.149 0 .3-.149.446-.3a20.945 20.945 0 0 1 3.571-4.464 9.562 9.562 0 0 0 1.934-2.53 14.322 14.322 0 0 0 1.934 2.53 20.946 20.946 0 0 1 3.571 4.464c.149.149.3.149.446.3.149 0 .3-.149.446-.149a29.7 29.7 0 0 0 4.613-8.184 25.859 25.859 0 0 0 5.8.744 13.6 13.6 0 0 0 2.53-.149.475.475 0 0 0 .446-.446.894.894 0 0 1 .149-.6 34.445 34.445 0 0 0 .744-6.845H280.9a3.3 3.3 0 0 1 3.274 3.274v34.225z" class="cls-2" data-name="Path 498" transform="translate(8784.857 -1876.834)"/>
        <path id="Path_499" d="M258.962 629.7h-22.32c-.6 0-1.042.3-1.042.6s.446.6 1.042.6h22.321c.6 0 1.042-.3 1.042-.6-.005-.451-.447-.6-1.043-.6z" class="cls-3" data-name="Path 499" transform="translate(8793.252 -1867.219)"/>
        <path id="Path_500" d="M258.962 632.9h-22.32c-.6 0-1.042.3-1.042.6s.446.6 1.042.6h22.321c.6 0 1.042-.3 1.042-.6s-.447-.6-1.043-.6z" class="cls-3" data-name="Path 500" transform="translate(8793.252 -1865.657)"/>
        <path id="Path_501" d="M258.962 636.2h-22.32c-.6 0-1.042.3-1.042.6s.446.6 1.042.6h22.321c.6 0 1.042-.3 1.042-.6s-.447-.6-1.043-.6z" class="cls-3" data-name="Path 501" transform="translate(8793.252 -1864.047)"/>
    </g>
</svg>
