<svg xmlns="http://www.w3.org/2000/svg" viewBox="8126.043 -752.75 21.962 31.502">
  <defs>
    <style>
      .cls-1 {
        fill: none;
        stroke: #fff;
        stroke-miterlimit: 10;
        stroke-width: 1.5px;
      }
    </style>
  </defs>
  <g id="Go_To_Payment" transform="translate(7695 -1216)">
    <path id="Path_4482" data-name="Path 4482" class="cls-1" d="M25.674,47.515V40.6a38.209,38.209,0,0,0-4.681,1.711c-1.663.9-1.521,2.756-1.806,4.348-.475,2.638-.356,5.394-1.687,7.818" transform="translate(414.2 432.881)"/>
    <path id="Path_4483" data-name="Path 4483" class="cls-1" d="M39.2,70.746A3.065,3.065,0,0,0,42.218,69.7" transform="translate(397.657 410.696)"/>
    <path id="Path_4484" data-name="Path 4484" class="cls-1" d="M37.1,30.688c2.5.214,5.156-2.448,5.988-5.061a7.643,7.643,0,0,0,.594-2.828c-.475-2.709-.855-1.307.333-3.469.855-1.545,1.449-2.875,2.139-4.182.808-1.521.76-3.208.261-3.731-1.331-1.331-2.352,1.236-2.923,2.139A16.763,16.763,0,0,1,40.617,17.1V2.007A1.3,1.3,0,0,1,41.924.7H51.69A1.3,1.3,0,0,1,53,2.007V19.686a1.3,1.3,0,0,1-1.307,1.307H43.231" transform="translate(399.258 463.3)"/>
    <path id="Path_4485" data-name="Path 4485" class="cls-1" d="M64.8,87.906c.333.879,1.378,1.83,2.376,1.093,1.212-.9.309-1.521.143-2.186-.119-.261-.238-.5-.333-.713" transform="translate(378.14 398.193)"/>
    <path id="Path_4486" data-name="Path 4486" class="cls-1" d="M74.1,86.1a3.725,3.725,0,0,0,.475.713,1.4,1.4,0,0,0,1.545.333,1.376,1.376,0,0,0,.642-1.046" transform="translate(371.05 398.193)"/>
    <line id="Line_766" data-name="Line 766" class="cls-1" y2="20.269" transform="translate(449.451 464.024)"/>
  </g>
</svg>
