<svg xmlns="http://www.w3.org/2000/svg" viewBox="0 0 42.5 44.594">
  <defs>
    <style>
      .cls-1 {
        fill: #505050;
        stroke: #505050;
        stroke-width: 0.5px;
      }
    </style>
  </defs>
  <g id="Home" transform="translate(0.25 0.344)">
    <g id="Group_4450" data-name="Group 4450" transform="translate(0 0)">
      <path id="Path_3484" data-name="Path 3484" class="cls-1" d="M41.55,19.32,22.022.415a1.464,1.464,0,0,0-2.043,0L.451,19.32a1.475,1.475,0,0,0,1.021,2.537h2.6V42.524A1.479,1.479,0,0,0,5.54,44H15.847a1.479,1.479,0,0,0,1.472-1.476V30.714h7.362v11.81A1.479,1.479,0,0,0,26.154,44H36.461a1.479,1.479,0,0,0,1.472-1.476V21.857h2.6A1.476,1.476,0,0,0,41.55,19.32Zm-3.617,1.061a1.479,1.479,0,0,0-1.472,1.476V42.524H26.154V30.714a1.479,1.479,0,0,0-1.472-1.476H17.319a1.479,1.479,0,0,0-1.472,1.476v11.81H5.54V21.857a1.479,1.479,0,0,0-1.472-1.476h-2.6L21,1.476l19.537,18.9Z" transform="translate(0)"/>
    </g>
  </g>
</svg>
