<svg xmlns="http://www.w3.org/2000/svg" viewBox="0 0 41.05 41">
  <defs>
    <style>
      .cls-1 {
        fill: #fff;
      }

      .cls-2, .cls-3 {
        fill: #592990;
      }

      .cls-3 {
        stroke: #592990;
        stroke-width: 0.1px;
      }
    </style>
  </defs>
  <g id="Group_5290" data-name="Group 5290" transform="translate(-844.95 -1545)">
    <circle id="Ellipse_431" data-name="Ellipse 431" class="cls-1" cx="20.5" cy="20.5" r="20.5" transform="translate(845 1545)"/>
    <path id="Path_4032" data-name="Path 4032" class="cls-2" d="M35.488,18.805A16.65,16.65,0,0,0,34,52.025c.532.038,1.065.076,1.6.076a16.65,16.65,0,0,0,1.521-33.22c-.571-.038-1.1-.076-1.635-.076Zm.076,33.639c-.532,0-1.065-.038-1.6-.076A16.972,16.972,0,0,1,35.488,18.5c.532,0,1.065.038,1.6.076a16.974,16.974,0,0,1-1.521,33.868Z" transform="translate(833.474 1533.556)"/>
    <path id="Path_4033" data-name="Path 4033" class="cls-2" d="M35.4.5A16.54,16.54,0,1,0,48.1,6.484,16.539,16.539,0,0,0,35.4.5Zm0,33.639a17.048,17.048,0,1,1,10.84-3.928A17.027,17.027,0,0,1,35.4,34.135Z" transform="translate(833.598 1545)"/>
    <path id="Path_4031" data-name="Path 4031" class="cls-3" d="M17.115,5.048A16.476,16.476,0,1,0,33.546,21.525h0A16.532,16.532,0,0,0,17.115,5.048Zm0,33.639A17.144,17.144,0,1,1,34.23,21.563,17.132,17.132,0,0,1,17.115,38.688Z" transform="translate(845 1542.278)"/>
  </g>
</svg>
