<svg xmlns="http://www.w3.org/2000/svg" viewBox="0 0 42.5 19.83">
  <defs>
    <style>
      .cls-1 {
        fill: #349815;
      }
    </style>
  </defs>
  <g id="Ipad_Battery_Level" data-name="Ipad Battery Level" transform="translate(-1449.959 -45.077)">
    <path id="Path_2861" data-name="Path 2861" class="cls-1" d="M9.12,12.608H36.585v13.12H9.12Z" transform="translate(1444.178 35.826)"/>
    <path id="Path_2860" data-name="Path 2860" d="M45.179,12.078V29.317H8.428V12.078Zm.6-1.294H7.77a.632.632,0,0,0-.6.647V29.964a.632.632,0,0,0,.6.647H45.837a.632.632,0,0,0,.6-.647V11.372a.6.6,0,0,0-.657-.588Z" transform="translate(1442.789 34.296)"/>
    <path id="Path_2862" data-name="Path 2862" d="M32.617,15.31v5.354H30.645V15.31Zm.329-1.294h-2.63a.9.9,0,0,0-.876.941v6.06a.9.9,0,0,0,.876.941h2.629a.9.9,0,0,0,.876-.941v-6.06a.9.9,0,0,0-.876-.941Z" transform="translate(1458.638 37.007)"/>
  </g>
</svg>
