<svg xmlns="http://www.w3.org/2000/svg" viewBox="-5436 -3297 82.011 81.945">
  <defs>
    <style>
      .cls-1, .cls-2 {
        fill: #613b8c;
      }

      .cls-2 {
        stroke: #613b8c;
        stroke-width: 0.3px;
      }
    </style>
  </defs>
  <g id="Symbol_133_1" data-name="Symbol 133 – 1" transform="translate(-5985 -3557)">
    <g id="Group_2734" data-name="Group 2734" transform="translate(4.766 -65.455)">
      <path id="Path_2378" data-name="Path 2378" class="cls-1" d="M473.3,667.4A41.149,41.149,0,0,1,433.4,636a40.978,40.978,0,1,1,79.7-19.1h0a40.934,40.934,0,0,1-30.3,49.4A43.261,43.261,0,0,1,473.3,667.4Zm0-80a40.432,40.432,0,0,0-9.1,1.1,38.867,38.867,0,1,0,9.1-1.1Z" transform="translate(112 -260)"/>
    </g>
    <g id="Group_2738" data-name="Group 2738" transform="translate(522.043 339.063)">
      <g id="Group_2697" data-name="Group 2697" transform="translate(47 -53.063)">
        <path id="Path_2471" data-name="Path 2471" class="cls-1" d="M24.55,8.164c-1.436,0-2.739-.017-4.042.017-.184,0-.484.334-.5.534-.067.718-.033,1.453-.033,2.171,0,.635-.267,1.136-.952,1.136-.7,0-1.019-.468-1-1.169.017-.852,0-1.72,0-2.622a6.3,6.3,0,0,0-.685-.084c-2.639,0-5.294.017-7.933-.017-.6,0-.868.15-.818.785.05.668.017,1.336,0,2-.017.635-.351,1.1-1.019,1.086s-.952-.484-.969-1.136V8.13c-1.436,0-2.772-.017-4.108.017-.15,0-.367.267-.434.451a1.779,1.779,0,0,0-.017.668V30.893c0,2.789,1.286,4.058,4.092,4.058h10.1c.251,0,.568-.083.735.05.317.251.785.635.752.919-.033.351-.5.668-.818.952-.117.1-.384.033-.568.033H5.812A5.4,5.4,0,0,1,0,31.127V7.746c0-1.286.234-1.52,1.486-1.52,1.369,0,2.722-.05,4.092.017.785.05,1.035-.251,1.169-.969A6.57,6.57,0,0,1,13.628-.053a6.661,6.661,0,0,1,6.179,5.511c.117.685.384.785.969.768,1.5-.033,3.006-.017,4.509,0,.9,0,1.2.3,1.236,1.2.017.668,0,1.336,0,2,0,.685-.284,1.186-1.019,1.152-.668-.033-.952-.484-.952-1.136ZM8.7,6.16h9.252a4.685,4.685,0,0,0-4.927-4.242C10.6,2.1,8.584,4.055,8.7,6.16Z" transform="translate(0 0.063)"/>
        <path id="Path_2472" data-name="Path 2472" class="cls-1" d="M119.148,72.277c.468-4.108,2.4-6.246,5.545-6.279,3.156-.033,5.094,2.088,5.628,6.279h3.791c1.119,0,1.436.317,1.436,1.436,0,4.426.017,8.851,0,13.277a4.672,4.672,0,0,1-4.927,4.927q-5.887.025-11.774,0a4.637,4.637,0,0,1-4.91-4.843c-.017-4.476-.017-8.968,0-13.444,0-1.019.334-1.336,1.353-1.353Zm.083,2.021c-.952,0-1.754.033-2.555-.017-.585-.033-.768.15-.768.752.017,4.058,0,8.133.017,12.191A2.631,2.631,0,0,0,118.63,90q6.137.05,12.275,0a2.6,2.6,0,0,0,2.705-2.605c.05-4.175.033-8.35,0-12.525a.762.762,0,0,0-.418-.551c-.969-.05-1.921-.033-2.973-.033,0,.635.017,1.152,0,1.687-.017.651-.351,1.086-1,1.086-.618,0-.935-.418-.952-1.052a8.426,8.426,0,0,1,0-.919c.067-.618-.167-.835-.8-.818-1.47.033-2.956.017-4.426.017-1.737,0-1.737,0-1.87,1.737-.05.618-.317,1.052-.952,1.035a.936.936,0,0,1-.985-1.086Zm9.018-2.071a3.5,3.5,0,0,0-1.7-3.774,3.578,3.578,0,0,0-3.908.267,3.259,3.259,0,0,0-1.236,3.524C123.674,72.227,125.962,72.227,128.25,72.227Z" transform="translate(-94.899 -54.965)"/>
      </g>
    </g>
    <g id="Group_2812" data-name="Group 2812" transform="translate(594.766 279.844)">
      <path id="Path_2210" data-name="Path 2210" class="cls-2" d="M10.733,1.4h0a2.7,2.7,0,0,1,2.022.856,2.754,2.754,0,0,1,.778,2.022A2.824,2.824,0,0,1,12.677,6.3L7.466,11.511l-.233-.233c-.544-.622-1.167-1.167-1.789-1.789L2.255,6.3A3.149,3.149,0,0,1,1.4,4.2a2.824,2.824,0,0,1,.856-2.022A2.909,2.909,0,0,1,4.2,1.4a2.711,2.711,0,0,1,1.944.7l.078.078c.078.078.078.156.156.233L7.389,3.656,8.477,2.489a2.373,2.373,0,0,1,1.011-.778A2.282,2.282,0,0,1,10.733,1.4m0-1.4A5.006,5.006,0,0,0,8.866.389a4.559,4.559,0,0,0-1.4,1.089c-.156-.078-.233-.233-.311-.311A4.31,4.31,0,0,0,4.2,0,4.418,4.418,0,0,0,1.322,1.089a4.319,4.319,0,0,0-.078,6.144c1.633,1.711,3.344,3.344,4.978,4.978l1.244,1.244c.078-.078.078-.156.156-.156l6.067-6.067A4.11,4.11,0,0,0,14.933,4.2a4.36,4.36,0,0,0-1.167-3.033A4.745,4.745,0,0,0,10.733,0Z" transform="translate(0)"/>
    </g>
  </g>
</svg>
