<svg xmlns="http://www.w3.org/2000/svg" viewBox="0 0 80 80">
  <defs>
    <style>
      .cls-1, .cls-2, .cls-6 {
        fill: none;
      }

      .cls-2, .cls-3 {
        stroke: #0a6962;
      }

      .cls-2 {
        stroke-width: 2px;
      }

      .cls-3, .cls-5 {
        fill: #0a6962;
      }

      .cls-4, .cls-5 {
        stroke: none;
      }
    </style>
  </defs>
  <g id="Group_6694" data-name="Group 6694" transform="translate(10594 -2909.597)">
    <g id="Group_6578" data-name="Group 6578" transform="translate(-12127 -1890)">
      <g id="Path_2021_54_" class="cls-1" transform="translate(-162.6 4519.015)">
        <path class="cls-4" d="M1735.591,360.583a39.99,39.99,0,1,1,15.575-3.157h0A39.623,39.623,0,0,1,1735.591,360.583Z"></path>
        <path class="cls-5" d="M 1735.591064453125 357.5829162597656 C 1740.59716796875 357.5829162597656 1745.442260742188 356.6012878417969 1749.993408203125 354.6646423339844 C 1754.589111328125 352.7120361328125 1758.668212890625 349.919189453125 1762.1171875 346.3636474609375 C 1765.451293945312 342.9264526367188 1768.059448242188 338.9256286621094 1769.869262695312 334.4722900390625 C 1771.679809570312 330.0169067382812 1772.5986328125 325.3360595703125 1772.60009765625 320.5597534179688 C 1772.601684570312 315.6141357421875 1771.61376953125 310.7793273925781 1769.663818359375 306.1896667480469 C 1766.764282226562 299.3650512695312 1761.9580078125 293.6284790039062 1755.764770507812 289.60009765625 C 1752.776000976562 287.6561279296875 1749.528564453125 286.1528625488281 1746.112548828125 285.1321411132812 C 1742.672241210938 284.1041259765625 1739.117553710938 283.5828857421875 1735.547241210938 283.5828857421875 C 1730.605590820312 283.5828857421875 1725.774658203125 284.5708312988281 1721.190307617188 286.5186157226562 C 1714.447998046875 289.3876342773438 1708.7607421875 294.1058044433594 1704.743408203125 300.1629943847656 C 1700.724365234375 306.2225646972656 1698.60009765625 313.2868041992188 1698.60009765625 320.5919494628906 C 1698.60009765625 325.5909118652344 1699.5771484375 330.4371643066406 1701.504150390625 334.99609375 C 1703.365966796875 339.4009704589844 1706.032348632812 343.3568115234375 1709.429321289062 346.7537231445312 C 1712.826171875 350.1506042480469 1716.781982421875 352.8170166015625 1721.186889648438 354.6788635253906 C 1725.745849609375 356.6058654785156 1730.592041015625 357.5829162597656 1735.591064453125 357.5829162597656 M 1735.591064453125 360.5829162597656 C 1713.49072265625 360.5829162597656 1695.60009765625 342.6921997070312 1695.60009765625 320.5919494628906 C 1695.60009765625 304.4902954101562 1705.1767578125 290.072509765625 1720.015625 283.7581481933594 C 1725.08837890625 281.6028442382812 1730.360961914062 280.5828552246094 1735.547241210938 280.5828552246094 C 1751.126586914062 280.5828552246094 1765.950561523438 289.7781066894531 1772.424926757812 305.0165405273438 C 1781.054321289062 325.3277282714844 1771.477905273438 348.7960815429688 1751.16650390625 357.4257507324219 C 1746.22021484375 359.5305786132812 1740.958251953125 360.5829162597656 1735.591064453125 360.5829162597656 Z"></path>
      </g>
      <g id="Ellipse_137" data-name="Ellipse 137" class="cls-2" transform="translate(1551.347 4824.382)">
        <ellipse class="cls-4" cx="3.795" cy="3.795" rx="3.795" ry="3.795"></ellipse>
        <ellipse class="cls-6" cx="3.795" cy="3.795" rx="2.795" ry="2.795"></ellipse>
      </g>
      <g id="Ellipse_140" data-name="Ellipse 140" class="cls-2" transform="translate(1551.347 4836.527)">
        <ellipse class="cls-4" cx="3.795" cy="3.795" rx="3.795" ry="3.795"></ellipse>
        <ellipse class="cls-6" cx="3.795" cy="3.795" rx="2.795" ry="2.795"></ellipse>
      </g>
      <g id="Ellipse_143" data-name="Ellipse 143" class="cls-2" transform="translate(1551.347 4848.671)">
        <ellipse class="cls-4" cx="3.795" cy="3.795" rx="3.795" ry="3.795"></ellipse>
        <ellipse class="cls-6" cx="3.795" cy="3.795" rx="2.795" ry="2.795"></ellipse>
      </g>
      <g id="Ellipse_138" data-name="Ellipse 138" class="cls-2" transform="translate(1563.492 4824.382)">
        <ellipse class="cls-4" cx="3.795" cy="3.795" rx="3.795" ry="3.795"></ellipse>
        <ellipse class="cls-6" cx="3.795" cy="3.795" rx="2.795" ry="2.795"></ellipse>
      </g>
      <g id="Ellipse_141" data-name="Ellipse 141" class="cls-2" transform="translate(1563.492 4836.527)">
        <ellipse class="cls-4" cx="3.795" cy="3.795" rx="3.795" ry="3.795"></ellipse>
        <ellipse class="cls-6" cx="3.795" cy="3.795" rx="2.795" ry="2.795"></ellipse>
      </g>
      <g id="Ellipse_144" data-name="Ellipse 144" class="cls-2" transform="translate(1563.492 4848.671)">
        <ellipse class="cls-4" cx="3.795" cy="3.795" rx="3.795" ry="3.795"></ellipse>
        <ellipse class="cls-6" cx="3.795" cy="3.795" rx="2.795" ry="2.795"></ellipse>
      </g>
      <g id="Ellipse_139" data-name="Ellipse 139" class="cls-2" transform="translate(1575.636 4824.382)">
        <ellipse class="cls-4" cx="3.795" cy="3.795" rx="3.795" ry="3.795"></ellipse>
        <ellipse class="cls-6" cx="3.795" cy="3.795" rx="2.795" ry="2.795"></ellipse>
      </g>
      <g id="Ellipse_142" data-name="Ellipse 142" class="cls-2" transform="translate(1575.636 4836.527)">
        <ellipse class="cls-4" cx="3.795" cy="3.795" rx="3.795" ry="3.795"></ellipse>
        <ellipse class="cls-6" cx="3.795" cy="3.795" rx="2.795" ry="2.795"></ellipse>
      </g>
      <g id="Ellipse_145" data-name="Ellipse 145" class="cls-2" transform="translate(1575.636 4848.671)">
        <ellipse class="cls-4" cx="3.795" cy="3.795" rx="3.795" ry="3.795"></ellipse>
        <ellipse class="cls-6" cx="3.795" cy="3.795" rx="2.795" ry="2.795"></ellipse>
      </g>
      <path id="Path_3260" data-name="Path 3260" class="cls-3" d="M0,5.584a.683.683,0,0,1,.166-.4l4.7-5A.588.588,0,0,1,5.7.161a.61.61,0,0,1,.023.831L1.948,5H17.63a.588.588,0,1,1,0,1.175H1.948l3.773,4a.61.61,0,0,1-.023.831.588.588,0,0,1-.831-.023l-4.7-5A.523.523,0,0,1,0,5.584Z" transform="translate(1598.014 4836.526) rotate(90)"></path>
    </g>
  </g>
</svg>
