<svg xmlns="http://www.w3.org/2000/svg" id="Key_In_PED_White_SFF" viewBox="0 0 30.761 20.919">
    <defs>
        <style>
            .cls-1,.cls-4{fill:none}.cls-1,.cls-2{stroke:#613b8c}.cls-1{stroke-width:1.5px}.cls-2{fill:#613b8c}.cls-3{stroke:none}
        </style>
    </defs>
    <g id="Ellipse_137" class="cls-1" data-name="Ellipse 137">
        <ellipse cx="2.457" cy="2.49" class="cls-3" rx="2.457" ry="2.49"/>
        <ellipse cx="2.457" cy="2.49" class="cls-4" rx="1.707" ry="1.74"/>
    </g>
    <g id="Ellipse_140" class="cls-1" data-name="Ellipse 140" transform="translate(0 7.969)">
        <ellipse cx="2.457" cy="2.49" class="cls-3" rx="2.457" ry="2.49"/>
        <ellipse cx="2.457" cy="2.49" class="cls-4" rx="1.707" ry="1.74"/>
    </g>
    <g id="Ellipse_143" class="cls-1" data-name="Ellipse 143" transform="translate(0 15.938)">
        <ellipse cx="2.457" cy="2.49" class="cls-3" rx="2.457" ry="2.49"/>
        <ellipse cx="2.457" cy="2.49" class="cls-4" rx="1.707" ry="1.74"/>
    </g>
    <g id="Ellipse_138" class="cls-1" data-name="Ellipse 138" transform="translate(7.864)">
        <ellipse cx="2.457" cy="2.49" class="cls-3" rx="2.457" ry="2.49"/>
        <ellipse cx="2.457" cy="2.49" class="cls-4" rx="1.707" ry="1.74"/>
    </g>
    <g id="Ellipse_141" class="cls-1" data-name="Ellipse 141" transform="translate(7.864 7.969)">
        <ellipse cx="2.457" cy="2.49" class="cls-3" rx="2.457" ry="2.49"/>
        <ellipse cx="2.457" cy="2.49" class="cls-4" rx="1.707" ry="1.74"/>
    </g>
    <g id="Ellipse_144" class="cls-1" data-name="Ellipse 144" transform="translate(7.864 15.938)">
        <ellipse cx="2.457" cy="2.49" class="cls-3" rx="2.457" ry="2.49"/>
        <ellipse cx="2.457" cy="2.49" class="cls-4" rx="1.707" ry="1.74"/>
    </g>
    <g id="Ellipse_139" class="cls-1" data-name="Ellipse 139" transform="translate(15.728)">
        <ellipse cx="2.457" cy="2.49" class="cls-3" rx="2.457" ry="2.49"/>
        <ellipse cx="2.457" cy="2.49" class="cls-4" rx="1.707" ry="1.74"/>
    </g>
    <g id="Ellipse_142" class="cls-1" data-name="Ellipse 142" transform="translate(15.728 7.969)">
        <ellipse cx="2.457" cy="2.49" class="cls-3" rx="2.457" ry="2.49"/>
        <ellipse cx="2.457" cy="2.49" class="cls-4" rx="1.707" ry="1.74"/>
    </g>
    <g id="Ellipse_145" class="cls-1" data-name="Ellipse 145" transform="translate(15.728 15.938)">
        <ellipse cx="2.457" cy="2.49" class="cls-3" rx="2.457" ry="2.49"/>
        <ellipse cx="2.457" cy="2.49" class="cls-4" rx="1.707" ry="1.74"/>
    </g>
    <path id="Path_3260" d="M0 3.615a.439.439 0 0 1 .109-.262L3.193.119A.39.39 0 0 1 3.739.1a.388.388 0 0 1 .015.538L1.278 3.234h10.29a.381.381 0 1 1 0 .761H1.278l2.476 2.593a.394.394 0 0 1-.015.538.39.39 0 0 1-.545-.015L.109 3.876A.336.336 0 0 1 0 3.615z" class="cls-2" data-name="Path 3260" transform="rotate(90 11.124 19.093)"/>
</svg>
