<svg xmlns="http://www.w3.org/2000/svg" viewBox="10484 -767 120 120">
  <defs>
    <style>
      .cls-1, .cls-2, .cls-6 {
        fill: none;
      }

      .cls-2, .cls-3 {
        stroke: #505050;
      }

      .cls-2 {
        stroke-width: 2px;
      }

      .cls-3, .cls-5 {
        fill: #505050;
      }

      .cls-3 {
        stroke-width: 0.5px;
      }

      .cls-4, .cls-5 {
        stroke: none;
      }
    </style>
  </defs>
  <g id="Keypad_Grey" transform="translate(8607 -3371)">
    <g id="Path_3290" data-name="Path 3290" class="cls-1" transform="translate(1877 2604)">
      <path class="cls-4" d="M60,0a60.115,60.115,0,0,1,59.606,53.085A58.789,58.789,0,0,1,120,60,60,60,0,1,1,60,0Z"/>
      <path class="cls-5" d="M 59.9999885559082 118 C 67.83081817626953 118 75.42635345458984 116.4667663574219 82.57560729980469 113.4428939819336 C 86.01190185546875 111.9894485473633 89.32638549804688 110.1903991699219 92.42695617675781 108.0956954956055 C 95.49858856201172 106.0205459594727 98.38706970214844 103.6373138427734 101.0121917724609 101.0121994018555 C 103.6373062133789 98.38707733154297 106.0205535888672 95.49858093261719 108.095703125 92.42694854736328 C 110.1904067993164 89.32637786865234 111.9894561767578 86.01190948486328 113.4429016113281 82.57559967041016 C 116.4667739868164 75.42636108398438 118.0000076293945 67.83082580566406 118.0000076293945 59.99596405029297 C 118.0045013427734 57.7722282409668 117.8764572143555 55.52484512329102 117.6197204589844 53.31887817382812 C 116.7763214111328 46.15618133544922 114.651237487793 39.3118782043457 111.3035202026367 32.97611236572266 C 108.0547027587891 26.82756233215332 103.7652740478516 21.35689544677734 98.55438995361328 16.71609687805176 C 93.343505859375 12.07527923583984 87.41458892822266 8.445512771606445 80.93233489990234 5.927596092224121 C 74.25270843505859 3.333012819290161 67.20896911621094 2.011579513549805 60.00000381469727 1.999996185302734 C 52.16917037963867 1.999996185302734 44.57363891601562 3.53322958946228 37.42440414428711 6.557096004486084 C 33.98808670043945 8.01054573059082 30.67362213134766 9.809596061706543 27.57305526733398 11.90429592132568 C 24.50142097473145 13.97944641113281 21.61292266845703 16.36268043518066 18.9878044128418 18.98779678344727 C 16.3626880645752 21.61291313171387 13.97945499420166 24.50141334533691 11.90430545806885 27.57304573059082 C 9.809604644775391 30.67361259460449 8.010555267333984 33.98807907104492 6.55710506439209 37.42439651489258 C 3.533238410949707 44.57363128662109 2.000005006790161 52.16916275024414 2.000005006790161 59.99999618530273 C 2.000005006790161 67.83082580566406 3.533238410949707 75.42636108398438 6.55710506439209 82.57559967041016 C 8.010555267333984 86.01190948486328 9.809604644775391 89.32637786865234 11.90430545806885 92.42694854736328 C 13.97945499420166 95.49858093261719 16.3626880645752 98.38707733154297 18.9878044128418 101.0121994018555 C 21.61292266845703 103.6373138427734 24.50142097473145 106.0205459594727 27.57303810119629 108.0956954956055 C 30.67362213134766 110.1903991699219 33.98808670043945 111.9894485473633 37.42438888549805 113.4428939819336 C 44.57363891601562 116.4667663574219 52.16915512084961 118 59.9999885559082 118 M 59.9999885559082 120 C 26.86292266845703 120 5.076090474176453e-06 93.13707733154297 5.076090474176453e-06 59.99999618530273 C 5.076090474176453e-06 26.86291313171387 26.86292266845703 -3.814697265625e-06 60.00000381469727 -3.814697265625e-06 C 90.44432067871094 0.0488961860537529 116.0458068847656 22.84954643249512 119.6060028076172 53.08499526977539 C 119.8731231689453 55.38026428222656 120.0046691894531 57.68926239013672 120.0000076293945 59.99999618530273 C 120.0000076293945 93.13707733154297 93.1370849609375 120 59.9999885559082 120 Z"/>
    </g>
    <g id="Group_6655" data-name="Group 6655" transform="translate(0 1)">
      <g id="Ellipse_137" data-name="Ellipse 137" class="cls-2" transform="translate(1904.781 2640)">
        <ellipse class="cls-4" cx="5.692" cy="5.692" rx="5.692" ry="5.692"/>
        <ellipse class="cls-6" cx="5.692" cy="5.692" rx="4.692" ry="4.692"/>
      </g>
      <g id="Ellipse_140" data-name="Ellipse 140" class="cls-2" transform="translate(1904.781 2658.217)">
        <ellipse class="cls-4" cx="5.692" cy="5.692" rx="5.692" ry="5.692"/>
        <ellipse class="cls-6" cx="5.692" cy="5.692" rx="4.692" ry="4.692"/>
      </g>
      <g id="Ellipse_143" data-name="Ellipse 143" class="cls-2" transform="translate(1904.781 2676.434)">
        <ellipse class="cls-4" cx="5.692" cy="5.692" rx="5.692" ry="5.692"/>
        <ellipse class="cls-6" cx="5.692" cy="5.692" rx="4.692" ry="4.692"/>
      </g>
      <g id="Ellipse_138" data-name="Ellipse 138" class="cls-2" transform="translate(1922.998 2640)">
        <ellipse class="cls-4" cx="5.692" cy="5.692" rx="5.692" ry="5.692"/>
        <ellipse class="cls-6" cx="5.692" cy="5.692" rx="4.692" ry="4.692"/>
      </g>
      <g id="Ellipse_141" data-name="Ellipse 141" class="cls-2" transform="translate(1922.998 2658.217)">
        <ellipse class="cls-4" cx="5.692" cy="5.692" rx="5.692" ry="5.692"/>
        <ellipse class="cls-6" cx="5.692" cy="5.692" rx="4.692" ry="4.692"/>
      </g>
      <g id="Ellipse_144" data-name="Ellipse 144" class="cls-2" transform="translate(1922.998 2676.434)">
        <ellipse class="cls-4" cx="5.692" cy="5.692" rx="5.692" ry="5.692"/>
        <ellipse class="cls-6" cx="5.692" cy="5.692" rx="4.692" ry="4.692"/>
      </g>
      <g id="Ellipse_139" data-name="Ellipse 139" class="cls-2" transform="translate(1941.215 2640)">
        <ellipse class="cls-4" cx="5.692" cy="5.692" rx="5.692" ry="5.692"/>
        <ellipse class="cls-6" cx="5.692" cy="5.692" rx="4.692" ry="4.692"/>
      </g>
      <g id="Ellipse_142" data-name="Ellipse 142" class="cls-2" transform="translate(1941.215 2658.217)">
        <ellipse class="cls-4" cx="5.692" cy="5.692" rx="5.692" ry="5.692"/>
        <ellipse class="cls-6" cx="5.692" cy="5.692" rx="4.692" ry="4.692"/>
      </g>
      <g id="Ellipse_145" data-name="Ellipse 145" class="cls-2" transform="translate(1941.215 2676.434)">
        <ellipse class="cls-4" cx="5.692" cy="5.692" rx="5.692" ry="5.692"/>
        <ellipse class="cls-6" cx="5.692" cy="5.692" rx="4.692" ry="4.692"/>
      </g>
      <path id="Path_3260" data-name="Path 3260" class="cls-3" d="M0,8.375a1.024,1.024,0,0,1,.249-.6L7.3.276A.882.882,0,0,1,8.548.242a.914.914,0,0,1,.034,1.246L2.922,7.5H26.445a.882.882,0,1,1,0,1.762H2.922l5.66,6.005a.914.914,0,0,1-.034,1.246A.882.882,0,0,1,7.3,16.474L.25,8.981A.784.784,0,0,1,0,8.375Z" transform="translate(1974.781 2658.216) rotate(90)"/>
    </g>
  </g>
</svg>
