<svg xmlns="http://www.w3.org/2000/svg" xmlns:xlink="http://www.w3.org/1999/xlink" viewBox="0 0 60.279 44.975">
  <defs>
    <style>
      .cls-1 {
        fill: url(#linear-gradient);
      }

      .cls-2 {
        fill: url(#linear-gradient-2);
      }

      .cls-3 {
        fill: silver;
      }

      .cls-4 {
        fill: url(#linear-gradient-3);
      }
    </style>
    <linearGradient id="linear-gradient" x1="0.01" y1="0.507" x2="1.227" y2="0.507" gradientUnits="objectBoundingBox">
      <stop offset="0" stop-color="#626262"/>
      <stop offset="1" stop-color="#4b4b4b"/>
    </linearGradient>
    <linearGradient id="linear-gradient-2" x1="-0.002" y1="0.494" x2="1.005" y2="0.494" gradientUnits="objectBoundingBox">
      <stop offset="0" stop-color="#7a7a7a"/>
      <stop offset="1" stop-color="#5a5a5a"/>
    </linearGradient>
    <linearGradient id="linear-gradient-3" x1="-0.241" y1="0.497" x2="1.007" y2="0.497" gradientUnits="objectBoundingBox">
      <stop offset="0" stop-color="#747474"/>
      <stop offset="1" stop-color="#d5d5d5"/>
    </linearGradient>
  </defs>
  <g id="Mastercard" transform="translate(-406 -503.9)">
    <path id="path2988" d="M57.787,689.6a1.841,1.841,0,0,0-.615-.388,2.138,2.138,0,0,0-.78-.138,3.032,3.032,0,0,0-.466.037,2.124,2.124,0,0,0-.473.131,1.812,1.812,0,0,0-.441.26,1.575,1.575,0,0,0-.363.417,1.746,1.746,0,0,0-.675-.62,2.057,2.057,0,0,0-.974-.225,2.407,2.407,0,0,0-.381.032,1.807,1.807,0,0,0-.391.111,1.6,1.6,0,0,0-.371.215,1.53,1.53,0,0,0-.321.344V689.2H50.5v4.735h1.046V691.3a1.363,1.363,0,0,1,.1-.536,1.151,1.151,0,0,1,.267-.393,1.112,1.112,0,0,1,.391-.24,1.394,1.394,0,0,1,.478-.081,1.048,1.048,0,0,1,.819.321,1.322,1.322,0,0,1,.291.919v2.634h1.046V691.3a1.359,1.359,0,0,1,.1-.536,1.148,1.148,0,0,1,.266-.393,1.11,1.11,0,0,1,.391-.24,1.4,1.4,0,0,1,.478-.081,1.05,1.05,0,0,1,.819.321,1.321,1.321,0,0,1,.291.919v2.634H58.33v-2.975a1.991,1.991,0,0,0-.142-.761,1.726,1.726,0,0,0-.4-.6" transform="translate(358.541 -145.318)"/>
    <path id="path2990" d="M200.445,689.768a1.91,1.91,0,0,0-.638-.506,2.016,2.016,0,0,0-.911-.19,2.508,2.508,0,0,0-.968.185,2.412,2.412,0,0,0-.782.517,2.383,2.383,0,0,0-.525.788,2.726,2.726,0,0,0,0,2,2.369,2.369,0,0,0,1.307,1.305,2.508,2.508,0,0,0,.968.185,2.041,2.041,0,0,0,.911-.188,1.89,1.89,0,0,0,.638-.5v.568h1.075V689.2h-1.075Zm-.041,2.4a1.427,1.427,0,0,1-.3.479,1.4,1.4,0,0,1-.468.319,1.66,1.66,0,0,1-1.233,0,1.39,1.39,0,0,1-.466-.326,1.432,1.432,0,0,1-.293-.482,1.732,1.732,0,0,1,0-1.177,1.43,1.43,0,0,1,.293-.481,1.379,1.379,0,0,1,.466-.326,1.66,1.66,0,0,1,1.233,0,1.4,1.4,0,0,1,.468.319,1.427,1.427,0,0,1,.3.479,1.738,1.738,0,0,1,0,1.206" transform="translate(221.398 -145.318)"/>
    <path id="path2992" d="M302.09,691.635a2.73,2.73,0,0,0-1.261-.452l-.509-.074c-.113-.017-.22-.035-.319-.057a1.056,1.056,0,0,1-.257-.087.489.489,0,0,1-.172-.138.332.332,0,0,1-.064-.208.468.468,0,0,1,.244-.408,1.281,1.281,0,0,1,.687-.156,2.561,2.561,0,0,1,.455.04,3.933,3.933,0,0,1,.425.1,3.211,3.211,0,0,1,.365.131,3.011,3.011,0,0,1,.278.135l.463-.8a3.224,3.224,0,0,0-.9-.368,4.436,4.436,0,0,0-1.1-.131,3.112,3.112,0,0,0-.849.106,1.974,1.974,0,0,0-.641.3,1.319,1.319,0,0,0-.407.477,1.386,1.386,0,0,0-.142.633,1.148,1.148,0,0,0,.424.927,2.43,2.43,0,0,0,1.248.462l.515.064a1.669,1.669,0,0,1,.648.19.387.387,0,0,1,.206.334.472.472,0,0,1-.283.422,1.786,1.786,0,0,1-.839.156,3.294,3.294,0,0,1-.543-.04,2.822,2.822,0,0,1-.437-.106,2.171,2.171,0,0,1-.355-.153,2.623,2.623,0,0,1-.291-.185l-.5.776a2.678,2.678,0,0,0,.561.312,3.947,3.947,0,0,0,.576.185,3.768,3.768,0,0,0,.535.089q.252.023.443.022a3.621,3.621,0,0,0,.949-.114,2.155,2.155,0,0,0,.7-.319,1.425,1.425,0,0,0,.437-.489,1.3,1.3,0,0,0,.152-.625,1.114,1.114,0,0,0-.453-.947" transform="translate(125.773 -145.399)"/>
    <path id="path2994" d="M465.741,689.76a2.11,2.11,0,0,0-.736-.509,2.415,2.415,0,0,0-.944-.18,2.655,2.655,0,0,0-1,.18,2.247,2.247,0,0,0-.775.509,2.308,2.308,0,0,0-.5.788,2.758,2.758,0,0,0-.18,1.013,2.714,2.714,0,0,0,.185,1.023,2.26,2.26,0,0,0,.52.785,2.311,2.311,0,0,0,.8.5,2.811,2.811,0,0,0,1.019.178,3.771,3.771,0,0,0,1.068-.148,2.719,2.719,0,0,0,.96-.519l-.535-.736a2.441,2.441,0,0,1-.682.368,2.224,2.224,0,0,1-.744.131,1.815,1.815,0,0,1-.5-.069,1.338,1.338,0,0,1-.438-.215,1.311,1.311,0,0,1-.335-.373,1.5,1.5,0,0,1-.19-.548h3.643c.007-.059.012-.122.016-.188s.005-.132.005-.2a2.846,2.846,0,0,0-.172-1.011,2.355,2.355,0,0,0-.479-.786m-3.008,1.4a1.707,1.707,0,0,1,.144-.472,1.27,1.27,0,0,1,.265-.371,1.123,1.123,0,0,1,.386-.24,1.455,1.455,0,0,1,.512-.084,1.172,1.172,0,0,1,.839.307,1.453,1.453,0,0,1,.412.86Z" transform="translate(-27.807 -145.318)"/>
    <path id="path2996" d="M704.911,689.768a1.91,1.91,0,0,0-.638-.506,2.015,2.015,0,0,0-.911-.19,2.5,2.5,0,0,0-.968.185,2.414,2.414,0,0,0-.782.517,2.374,2.374,0,0,0-.525.788,2.723,2.723,0,0,0,0,2,2.389,2.389,0,0,0,.525.789,2.421,2.421,0,0,0,.782.516,2.507,2.507,0,0,0,.968.185,2.04,2.04,0,0,0,.911-.188,1.891,1.891,0,0,0,.638-.5v.568h1.076V689.2h-1.076Zm-.041,2.4a1.432,1.432,0,0,1-.3.479,1.408,1.408,0,0,1-.469.319,1.66,1.66,0,0,1-1.232,0,1.389,1.389,0,0,1-.466-.326,1.433,1.433,0,0,1-.293-.482,1.731,1.731,0,0,1,0-1.177,1.431,1.431,0,0,1,.293-.481,1.38,1.38,0,0,1,.466-.326,1.659,1.659,0,0,1,1.232,0,1.4,1.4,0,0,1,.469.319,1.431,1.431,0,0,1,.3.479,1.742,1.742,0,0,1,0,1.206" transform="translate(-252.688 -145.318)"/>
    <path id="path2998" d="M387.229,671.65a1.5,1.5,0,0,1-.512.094.908.908,0,0,1-.306-.05.636.636,0,0,1-.247-.155.752.752,0,0,1-.167-.274,1.177,1.177,0,0,1-.062-.4V668.8h1.727v-.939h-1.727v-1.433h-1.081v1.433h-.983v.939h.983v2.08a1.852,1.852,0,0,0,.466,1.392,1.808,1.808,0,0,0,1.3.447,2.413,2.413,0,0,0,.841-.138,3.678,3.678,0,0,0,.46-.208l-.368-.865a2.856,2.856,0,0,1-.329.143" transform="translate(45.246 -123.983)"/>
    <path id="path3000" d="M563.309,689.071a2.045,2.045,0,0,0-.818.158,1.708,1.708,0,0,0-.612.587V689.2H560.9v4.735h.987v-2.6a1.548,1.548,0,0,1,.088-.539,1.153,1.153,0,0,1,.242-.4,1,1,0,0,1,.371-.247,1.3,1.3,0,0,1,.473-.084,2.184,2.184,0,0,1,.422.045,1.779,1.779,0,0,1,.216.055l.318-.988a2.1,2.1,0,0,0-.264-.063,2.844,2.844,0,0,0-.445-.032" transform="translate(-121.123 -145.318)"/>
    <path id="path3002" d="M811.582,689.071a2.047,2.047,0,0,0-.819.158,1.706,1.706,0,0,0-.612.587V689.2h-.977v4.735h.987v-2.6a1.551,1.551,0,0,1,.087-.539,1.151,1.151,0,0,1,.242-.4.992.992,0,0,1,.37-.247,1.3,1.3,0,0,1,.473-.084,2.175,2.175,0,0,1,.422.045,1.769,1.769,0,0,1,.216.055l.318-.988a2.1,2.1,0,0,0-.264-.063,2.857,2.857,0,0,0-.445-.032" transform="translate(-354.445 -145.318)"/>
    <path id="path3004" d="M869.93,657.931v2.5a1.913,1.913,0,0,0-.638-.507,2.018,2.018,0,0,0-.911-.19,2.5,2.5,0,0,0-.967.185,2.406,2.406,0,0,0-.782.517,2.378,2.378,0,0,0-.525.788,2.723,2.723,0,0,0,0,2,2.387,2.387,0,0,0,.525.789,2.416,2.416,0,0,0,.782.516,2.506,2.506,0,0,0,.967.185,2.044,2.044,0,0,0,.911-.188,1.893,1.893,0,0,0,.638-.5v.568h1.076v-6.659Zm-.041,4.9a1.428,1.428,0,0,1-.3.479,1.4,1.4,0,0,1-.468.319,1.658,1.658,0,0,1-1.233,0,1.393,1.393,0,0,1-.466-.326,1.437,1.437,0,0,1-.294-.482,1.735,1.735,0,0,1,0-1.177,1.435,1.435,0,0,1,.294-.481,1.378,1.378,0,0,1,.466-.326,1.66,1.66,0,0,1,1.233,0,1.4,1.4,0,0,1,.468.319,1.429,1.429,0,0,1,.3.479,1.741,1.741,0,0,1,0,1.206" transform="translate(-407.769 -115.979)"/>
    <path id="path3006" d="M619.441,690.467a1.461,1.461,0,0,1,.489-.312,1.668,1.668,0,0,1,.612-.111,1.989,1.989,0,0,1,.674.111,1.63,1.63,0,0,1,.522.3l.518-.827a2.661,2.661,0,0,0-.656-.367,3.039,3.039,0,0,0-2.115,0,2.573,2.573,0,0,0-.839.524,2.456,2.456,0,0,0,0,3.554,2.572,2.572,0,0,0,.839.524,3.037,3.037,0,0,0,2.115,0,2.659,2.659,0,0,0,.656-.366l-.518-.827a1.635,1.635,0,0,1-.522.3,1.989,1.989,0,0,1-.674.111,1.66,1.66,0,0,1-.612-.111,1.425,1.425,0,0,1-.813-.79,1.66,1.66,0,0,1,0-1.231,1.448,1.448,0,0,1,.324-.48" transform="translate(-174.681 -145.318)"/>
    <path id="path3008" d="M979.95,761.077a.53.53,0,0,1,.2.038.521.521,0,0,1,.164.1.489.489,0,0,1,.11.153.458.458,0,0,1,0,.375.487.487,0,0,1-.11.154.521.521,0,0,1-.164.1.529.529,0,0,1-.2.038.546.546,0,0,1-.205-.038.517.517,0,0,1-.165-.1.476.476,0,0,1-.11-.154.461.461,0,0,1,0-.375.479.479,0,0,1,.11-.153.52.52,0,0,1,.165-.1.545.545,0,0,1,.205-.038m0,.832a.368.368,0,0,0,.256-.1.343.343,0,0,0,.077-.383.341.341,0,0,0-.077-.111.368.368,0,0,0-.256-.1.374.374,0,0,0-.26.1.343.343,0,0,0,0,.494.375.375,0,0,0,.26.1m.029-.564a.215.215,0,0,1,.139.039.13.13,0,0,1,.048.105.115.115,0,0,1-.034.085.174.174,0,0,1-.1.044l.139.154h-.15l-.124-.15h-.015v.15h-.125v-.428Zm-.1.1v.078h.094a.092.092,0,0,0,.044-.008.032.032,0,0,0,.016-.03.033.033,0,0,0-.016-.03.087.087,0,0,0-.044-.009Z" transform="translate(-514.448 -213.16)"/>
    <path id="path3010" class="cls-1" d="M23.05,17.844A17.561,17.561,0,0,1,30.1,3.853,18.98,18.98,0,0,0,18.58,0C8.319,0,0,7.989,0,17.844S8.319,35.688,18.58,35.688A18.979,18.979,0,0,0,30.1,31.835,17.56,17.56,0,0,1,23.05,17.844" transform="translate(406 503.9)"/>
    <path id="path3012" class="cls-2" d="M382.75,80.609A17.56,17.56,0,0,0,389.805,94.6a17.4,17.4,0,0,0,0-27.982,17.561,17.561,0,0,0-7.055,13.991" transform="translate(46.3 441.135)"/>
    <path id="path3014" class="cls-3" d="M975.457,464.571v-.522h-.22V463.9h.6v.143h-.22v.522Zm1.165,0v-.462l-.156.4h-.172l-.156-.4v.461h-.162v-.67h.233l.172.426.171-.426h.233v.666h-.162Z" transform="translate(-510.506 66.825)"/>
    <path id="path3016" class="cls-4" d="M511.432,0a18.979,18.979,0,0,0-11.525,3.853,17.4,17.4,0,0,1,0,27.982,18.978,18.978,0,0,0,11.525,3.853c10.262,0,18.58-7.989,18.58-17.844S521.693,0,511.432,0" transform="translate(-63.802 503.9)"/>
  </g>
</svg>
