<?xml version="1.0" encoding="utf-8"?>
<!-- Generator: Adobe Illustrator 22.1.0, SVG Export Plug-In . SVG Version: 6.00 Build 0)  -->
<svg version="1.1" id="Layer_1" xmlns="http://www.w3.org/2000/svg" xmlns:xlink="http://www.w3.org/1999/xlink" x="0px" y="0px"
	 viewBox="0 0 400 153.8" style="enable-background:new 0 0 400 153.8;" xml:space="preserve">
<g>
	<path d="M54.6,0H55l1.1,0.7v1.5l1.5,1.5v1.1c-0.5,1-0.7,1.6-0.7,1.9c0,0.5-0.1,1.2-0.4,2.2h0.4v0.4L56.1,10v1.5
		c-0.3,0.5-0.4,0.9-0.4,1.1c-0.1,0.2-0.2,0.6-0.4,0.9c-0.1,0.4-0.2,0.7-0.3,0.8C55,14.6,55,14.7,55,14.9l-0.4,2.6l-0.4,0.7
		c0,0.1,0,0.4-0.1,0.7c-0.1,0.4-0.2,0.9-0.3,1.7c-0.1,0.7-0.2,1.5-0.4,2.4v1.1h0.4l-0.7,1.5v1.5c0,1.7-0.1,2.8-0.4,3.3l-0.4,1.1
		L52,38.6l-1.1,4.8v1.1l-0.4,0.4v2.6c0,0.1-0.1,0.3-0.2,0.6c-0.1,0.3-0.2,0.4-0.2,0.6c-0.2,1.2-0.4,2-0.4,2.2c0,0.5,0.1,0.9,0.4,1.1
		l-0.7,1.5l0.4,1.5l-0.4,1.5v1.1L49,61.3l-0.7,1.9v4.5l-0.4,1.9l0.4,3.3l-0.7,7.8l0.4,5.2l-0.4,1.9h0.4v2.6v23.4l0.7,9.7l-0.4,1.9
		c0,1.1,0.4,2.6,1.1,4.5c0.1,0.2,0.2,0.6,0.4,0.9c0.1,0.4,0.2,0.7,0.4,0.9l-1.5,1.5v3h-1.5c-1.1,0-2.7-0.6-4.8-1.9l-0.4-0.7
		l-0.4-1.1l-1.1-1.1l-1.9-5.2h-0.4c-0.5-1-0.7-2-0.7-3l-0.4-1.1v-1.1l-0.7-1.1l-0.4-0.7l-1.9-7.1h-0.4l-0.4-1.1v-1.1l-1.5-3.3
		c0-0.7-0.1-1.4-0.4-1.9v-1.5l-0.4,0.4v-1.5l-0.7-3l-0.7-3.3l-0.4-0.7v-1.9l-0.7-1.5l0.4-0.7h-0.4l-0.7-2.2l-0.4-1.5v-1.1l-0.4-1.5
		l-0.7-3v-5.6l-1.1-4.5c-0.2-0.5-0.4-1.4-0.4-2.6l-2.6-15.6h-0.4v1.5c0,1.5,0,2.9,0,4.2s0,2.4-0.1,3.3c-0.1,0.9-0.1,1.6-0.2,2.3
		c-0.1,0.7-0.1,1.2-0.1,1.6v0.6c-0.5,1.5-0.7,2.8-0.7,4.1v2.2V75v3.3L20,82.4v3.3v1.1l-0.4,1.5l0.4,0.4v4.5
		c-0.5,0.7-0.7,1.6-0.7,2.6v1.9l-0.4,1.1v1.1v1.1l-0.7,1.1v4.5c0,0.7-0.1,1.4-0.4,1.9c-0.2,0-0.4,0.4-0.4,1.1h-0.4v5.2h-0.4
		l-0.7,7.4l-1.1,4.1v0.4v1.5c0,0.5-0.1,1-0.4,1.5h-0.4v2.6c-0.1,0.2-0.2,0.6-0.4,0.9c-0.1,0.4-0.2,0.7-0.4,0.9l-0.4,3
		c-0.7,3.1-1.6,5.4-2.6,7.1l-0.4,0.4c-1.5,0.5-2.4,0.7-2.6,0.7c-0.5,0-0.9-0.1-1.1-0.4l-1.1-0.4l-0.4-1.1L4.5,143
		c-0.7-1.5-1.1-2.7-1.1-3.7L3,136.7l-0.4-1.5l-1.5-7.8L0,121.4l0.7-1.1l0.7-0.4l1.1,0.7c0,0.1,0.1,0.3,0.2,0.6
		c0.1,0.2,0.2,0.4,0.2,0.6c0.7,1.1,1.1,2,1.1,2.6l0.4,1.5l0.7,1.5l0.4,1.1l0.7,1.9h0.7l0.4-0.4l1.5-6.3h0.4v-1.5l0.7-0.7l0.7-7.4
		l1.9-7.8l0.4-3l0.7-4.5l0.4-5.2l1.1-4.1v-2.6l0.4-0.4v-1.1l-0.4-0.7v-0.4c0-0.1,0.1-0.4,0.2-0.8c0.1-0.4,0.2-0.8,0.2-1
		c0-0.1,0.1-0.3,0.2-0.6c0.1-0.2,0.2-0.4,0.2-0.6h-0.4V81H16l0.4-4.5v-1.1v-1.9c0.2-0.2,0.4-0.7,0.4-1.5h0.4l-0.4-1.1l0.4-0.4v-1.1
		v-2.6l0.4-3.3v-1.1v-2.6l0.4-1.1v-1.1l0.4-4.5l-0.4-2.2l0.4-3.3l0.7-8.2l0.7-4.8l-0.7-2.6l0.4-2.2v-1.5v-0.4v-0.4
		c-0.3-0.2-0.4-0.5-0.4-0.7c-0.4-1.1-0.7-3.3-1.1-6.7c0-0.2-0.1-0.6-0.4-1.1h0.4v-0.4c-0.2-0.7-0.4-1.6-0.4-2.6
		c0-0.7,0.1-1.5,0.4-2.2c0-0.1-0.1-0.3-0.2-0.6c-0.1-0.2-0.2-0.4-0.2-0.6c-0.2-0.7-0.4-1.6-0.4-2.6c0-0.5,0.1-0.9,0.4-1.1l0.7-1.1
		V5.2l0.4-0.7h1.1l1.5,0.7l2.6,0.7l0.4,0.4l0.4,1.1l0.4,3.7l1.1,3.7v1.9v0.4v1.1h0.4l2.2,16.7v0.7v1.1c0.2,0.2,0.4,0.7,0.4,1.5v1.1
		l0.7,4.8l1.1,4.5l0.4,5.2l0.7,2.6v1.9v1.5l1.1,2.6l0.4,2.6l1.1,4.5v0.7v1.9h0.4l0.4,2.2h0.4l0.4,3.3c0.9,1.6,1.5,3.6,1.9,5.9
		l0.7,2.6l0.4,1.1V88c0.7,3.2,1.4,5.3,1.9,6.3c0.2,0.7,0.5,1.6,0.7,2.6H42v-1.9l0.7-4.5v-5.9l0.4-2.2v-0.7c0-0.1-0.1-0.3-0.2-0.6
		c-0.1-0.2-0.2-0.4-0.2-0.6l0.4-1.9l0.4-3l0.4-4.5v-1.1l-0.4-0.4c0.2-0.5,0.4-0.9,0.4-1.1c0.1-0.6,0.2-1.2,0.4-1.9
		c0.1-0.6,0.2-1.1,0.3-1.4c0.1-0.3,0.1-0.6,0.1-0.8c-0.3-0.2-0.4-0.6-0.4-1.1l0.4-2.2l0.4-4.5c0-0.5,0.1-1.2,0.4-2.2v-1.5
		c0.2-0.2,0.4-0.6,0.4-1.1v-4.1c0-0.5,0.1-0.9,0.4-1.1v-1.1c0.2-0.2,0.4-0.6,0.4-1.1c0-0.7-0.1-1.2-0.4-1.5l0.7-2.6l-0.4-1.1
		l0.7-1.5v-1.1v-2.2l0.7-3.3l0.4-1.1l0.4-1.5v-1.5L49,26v-1.5v-1.1l1.9-8.5l0.7-6.7c0-0.1,0-0.4,0.1-0.7c0.1-0.4,0.2-0.9,0.3-1.6
		c0.1-0.7,0.2-1.4,0.4-2.1l1.1-3.3L54.6,0z M106.6,55.3l1.1,0.4l1.5,0.7l0.4,1.5c0,2.2,0.2,4.3,0.7,6.3c0.5,3,0.7,4.6,0.7,4.8
		l-0.4,11.5l0.4,3l-0.4,1.9l0.4,1.5l0.7-4.1h0.4l1.5-5.2c0-0.7,0.1-1.1,0.4-1.1c0-0.7,0.2-1.7,0.7-3c0.7-1.2,1.1-2.7,1.1-4.5v-0.4
		l1.9-4.8c0.5-1.5,0.9-2.5,1.1-3l1.5-0.4l0.7,0.7l0.4,2.2l-0.4,0.4v2.2l-0.4,2.2l-0.4,3v0.7v0.4v1.1l-0.7,1.9l0.7,5.9L120,91.7
		l0.4,3.7v1.9l0.7,2.6l0.4-1.5l0.4-1.5l0.7-3l0.7-2.2l0.4-3l0.7-1.9l1.9-9.7l0.4-1.5c0.1-0.6,0.6-2.5,1.5-5.6
		c1.5-3.7,2.2-6.2,2.2-7.4v-1.1c0.4-1.5,1.1-2.4,2.2-2.6l1.1,0.4l0.7,0.7l-0.7,4.1v0.4v0.7v0.4l0.4,1.9c-0.3,0.5-0.4,1.1-0.4,1.9
		v2.6l0.4,0.7l-0.7,2.2l0.4,2.6v10c0.2,0.5,0.4,1,0.4,1.5v1.1c0,0.5-0.1,0.9-0.4,1.1l0.4,1.5l0.4,3.7v4.5c0,0.7,0.1,1.4,0.4,1.9
		c0,0.5,0.1,1,0.4,1.5v1.9l1.1,3l0.4,3.7h0.4l0.7-0.7l0.4-1.5v-1.1l0.4-1.1c0.5-1,0.7-1.9,0.7-2.6v-1.1l0.4-2.6v-2.6l0.7-4.8
		l0.7-7.1l0.7-2.6l0.7-3l1.5-4.5v-1.1h0.4l1.1-3.7l1.1-1.1l1.9-4.1l1.1-1.5l1.1-1.5h0.4l0.4-0.7h0.4c1-1,2.1-1.6,3.3-1.9v-0.4
		c0.4,0,0.8-0.1,1.2-0.2c0.4-0.1,0.8-0.2,1-0.2c0.1,0,0.7,0.4,1.9,1.1l0.4-0.4l1.1-0.7l1.9,0.4l0.7,2.6l-0.4,1.9l-0.7,2.6v5.6
		l-0.7,7.4v2.6v4.5l0.4,6.3c0.5,4,0.7,6.2,0.7,6.7c0.2,0.3,0.4,0.6,0.4,1.1v1.5l0.4,1.1l1.1-0.7v-1.5l0.7-0.7c0-0.1,0.1-0.3,0.2-0.6
		c0.1-0.2,0.2-0.4,0.2-0.6l0.4-3.3l0.7-1.9l0.4-1.5l0.7-2.6c0-1,0.2-2,0.7-3c0.2-0.2,0.4-0.6,0.4-1.1c0-0.7,0.1-1.4,0.4-1.9l1.9-7.4
		c0.4-1.9,0.4-5.8,0-11.9c0-0.4,0.1-0.9,0.2-1.6c0.1-0.7,0.2-1.1,0.2-1.4l1.1-2.6c0-0.5,0.2-1.1,0.7-1.9l0.7-1.5l0.7-0.4
		c0.7,0.4,1.2,0.9,1.5,1.5l1.1,7.1l0.4,1.9c-0.3,1.2-0.4,2.8-0.4,4.8v1.5l0.4,5.6l-0.4,3l0.4,2.6l-0.4,1.9l0.4,1.5v1.9l0.4,3.3v4.8
		v0.4c0,1,0.1,2,0.4,3h0.4l0.7-0.4l0.7-3.7c0.9-1.6,1.6-3.6,2.2-5.9V91l0.4-1.1l0.7-1.5c0.2-0.5,0.6-1.6,1.1-3.3
		c0-0.5,0.1-1,0.2-1.5l0.2-0.7l0.7-3l1.5-5.6l1.5-5.2V68l1.9-6.3l1.1-0.7l1.5-0.4c0.7,1,1.1,2.4,1.1,4.1v0.7l-0.4,5.9v2.2
		c0,2.5-0.2,6.1-0.7,10.8v1.5l-0.4,7.4l0.4,1.1v1.1c0,6.7,0.7,11.5,2.2,14.5h0.4c1-1.4,1.5-3.1,1.5-5.2h0.4l0.4-1.1v-0.7
		c0-0.2,0.1-0.7,0.3-1.2c0.2-0.6,0.3-1.1,0.5-1.8l1.5-0.4l0.7,0.4v0.4l0.7,0.7l-0.4,1.9l-0.7,2.6l-0.4,2.2c-0.5,0.7-0.7,1.5-0.7,2.2
		v0.7v0.4h-0.4l-0.4,1.5c-1,1.4-1.5,3.1-1.5,5.2l-1.1,1.9l-0.4,0.7h-0.4l-1.1,2.2l-1.9,1.9h-1.1l-0.7-0.4l-2.2-2.6v-1.9h-0.4
		l-0.7-3.7v-1.5c-0.7-4.1-1.1-6.4-1.1-7.1c-0.3-0.5-0.4-1-0.4-1.5c-0.3-0.2-0.4-0.6-0.4-1.1V104v-1.5v-2.2h0.4v-6.7h-0.7V94v1.1
		c-0.4,3.2-0.7,5.3-1.1,6.3c-0.2,0.3-0.4,0.5-0.4,0.7l-0.4,2.6c-1,1.6-1.5,3.1-1.5,4.5l-1.1,2.2v1.5l-1.9,4.8l-0.7,3.3l-2.2,3
		l-1.9,0.4h-0.4l-1.1-1.5l-0.7-1.9V120l-0.4-0.4v-1.1c-0.5-1.5-0.9-2.7-1.1-3.7l0.4-0.4v-0.7l-0.4-2.2l0.4-4.1v-0.7l-0.4-2.2v-1.1
		c0-1.7,0.2-4.9,0.7-9.7v-1.1h-0.4v0.4l-1.1,3h0.4l-0.4,0.4v1.1l-0.7,1.1l-1.5,6.7l-0.7,2.6l-0.4,1.5v1.1H166v1.1
		c-0.6,1.2-1.2,3.2-1.9,5.9c-0.3,0.2-0.4,0.6-0.4,1.1c-1.1,3.2-2.2,4.8-3.3,4.8c-0.9,0-1.6-0.5-2.2-1.5l-0.7-2.2l-0.7-4.8l-1.1-0.4
		l-3,4.8l-1.5,2.6l-0.4,0.4c-1.1,1.5-2.1,2.2-3,2.2c-0.5,0-1-0.2-1.5-0.7l-1.5-1.1l-0.7-1.1l-1.5-2.2v-1.1l-0.7-1.1l-1.1-3.3
		c-0.7,2.5-1.6,4.2-2.6,5.2h0.4c-0.7,1.1-1.1,1.9-1.1,2.2l-0.7,1.1l-0.4,1.1h-0.4l-0.7,0.7c-1.1-0.2-1.8-0.5-2.1-0.8
		c-0.3-0.3-0.6-1-0.8-2.1c-0.2-0.2-0.4-0.6-0.4-1.1h-0.4c-1.5-2.5-2.2-5.1-2.2-7.8v-0.4c-0.5-1.2-0.7-2.6-0.7-4.1
		c-0.2-2-0.4-3.6-0.4-4.8c0-0.2-0.1-0.6-0.4-1.1v-0.4V101l-0.4-2.2c0-0.2-0.1-0.5-0.2-0.8c-0.1-0.3-0.2-0.5-0.2-0.6v-0.7v-2.2V94
		h-0.4l-0.4,1.5l-1.9,7.1l-0.4,2.6l-0.4,2.2v1.1l-0.4,0.7l-0.4,2.6l-0.4,2.2v1.5v1.1l-0.7,3.7l0.4,0.4v1.1h-0.4l-0.7,1.9H120
		l-1.1-0.4l-3-2.2l-0.7-3V117v-1.1l-0.7-4.1l-0.7-1.5v-1.1v-1.1h-0.4c0.2-0.7,0.4-1.7,0.4-3v-1.9c-0.1-1-0.2-1.9-0.4-2.7
		c-0.1-0.8-0.2-1.4-0.3-1.8c-0.1-0.4-0.1-0.6-0.1-0.7v-0.4v-1.5v-1.1h-0.4l-0.4,1.1v1.1c0,0.1-0.1,0.3-0.2,0.6
		c-0.1,0.2-0.2,0.4-0.2,0.6c-0.1,0.6-0.2,1.2-0.4,1.9c-0.1,0.6-0.2,1.1-0.3,1.3c-0.1,0.2-0.1,0.4-0.1,0.6l-0.7,2.2
		c-0.5,1-0.7,2.5-0.7,4.5l-1.5,3.7l0.4,0.4l-0.4,1.5l-0.4,4.1l-0.7,2.6l-1.1,2.2l-0.4,1.1l-1.1,0.4c-1.4,1-2.4,1.5-3,1.5
		c-0.2,0-0.9-0.2-1.9-0.7v-0.4l-0.4-0.4l0.4-1.5l0.7-3.7v-1.1c0.1-0.2,0.2-0.5,0.3-0.7c0.1-0.2,0.2-0.6,0.5-1.2
		c0.2-0.6,0.5-1.4,0.7-2.2l-0.4-0.7c0.6-2.5,1.1-6.2,1.5-11.1v-5.2l0.7-5.9l-0.4-2.6c0.2-0.2,0.4-0.6,0.4-1.1
		c0.2-0.7,0.4-1.5,0.4-2.2v-0.4h0.4l-0.4-2.2c0-0.2,0.1-0.6,0.2-1c0.1-0.4,0.2-0.7,0.2-0.8c0-2.8-0.4-4.8-1.1-5.9h-0.4v0.7
		c-0.1,0.5-0.4,1.9-0.7,4.1c0,0.2-0.1,0.5-0.2,0.8c-0.1,0.3-0.2,0.5-0.2,0.7c-0.7,1.9-1.1,2.8-1.1,3v1.9l-0.7,1.5l-1.1,5.2
		c0,0.7-0.1,1.4-0.4,1.9c-0.2,0.7-0.4,1.9-0.4,3.3v1.5l-1.5,3c-1,3.3-1.5,5.3-1.5,5.9v0.4h-0.7l-1.9,6.3h-0.4v1.1l-0.4,1.1h-0.4
		l-0.4,1.1l-1.5,2.6c-1.1,2.2-2.4,3.3-3.7,3.3c-1,0-1.9-0.3-2.8-1c-0.9-0.7-1.3-1.6-1.3-2.7l-0.4-2.2l-0.4-2.2
		c-0.3-0.2-0.4-0.7-0.4-1.5v-2.6l-0.7-1.5l-0.4,0.4l-0.7,1.1l-0.4,1.5l-0.7,0.4l-0.7,2.6c-1,0.7-1.6,1.9-1.9,3.3h-0.4v0.7l-1.1,1.5
		l-1.1,1.1c-1.2,1.2-2.5,1.9-3.7,1.9c-1.7,0-3.2-0.9-4.5-2.6h-0.4c0-0.1-0.1-0.3-0.2-0.6c-0.1-0.2-0.2-0.4-0.2-0.6
		c-0.5-0.7-0.9-1.2-1.1-1.5c-0.3-0.2-0.4-0.5-0.4-0.7l-0.4-0.4l-0.7-1.1l-1.1-0.4c-0.6,1.6-1.5,2.8-2.6,3.7l-0.4,0.4l-1.1,1.9
		l-0.7,0.7l-0.7,0.7c-0.1,0.1-0.3,0.3-0.4,0.6c-0.1,0.2-0.2,0.4-0.4,0.6c-0.2,0.3-0.5,0.6-0.7,1.1l-1.9-0.4v-0.4l-0.4-0.4l1.5-2.2
		l0.4-0.4l1.5-2.6v-0.4l2.2-1.9c0.5-0.5,0.7-0.9,0.7-1.1c0.7-1.4,1.4-2.2,1.9-2.6l0.4-1.1l-0.4-0.4h-0.4v-0.4l-0.4-1.1v-1.9
		l-1.1-2.6v-1.5v-0.4v-1.1l-0.4-5.9l0.7-4.5v-2.2l0.4-1.9l-0.4-0.4l0.4-1.1l1.9-8.9v-1.1v-1.5c1.4-4.7,2.8-8.4,4.5-11.1h0.4v-0.4
		c2-2.7,4.8-4.1,8.5-4.1l1.1,0.4V62l0.4,0.4c1.7,2.2,2.6,5.6,2.6,10c0,0.7-0.2,3.1-0.7,7.1c-0.2,1.9-0.6,3.2-1.1,4.1L74.3,88
		c-0.4,0.6-0.7,1.6-1.1,3L72,95.1h-0.4l-0.7,2.6l-0.7,1.9v0.4l-1.5,2.6h-0.4l-0.4,1.9h-0.4c-1.5,2.1-2.2,3.8-2.2,5.2v1.1v1.1
		c0.4,1.6,0.9,3,1.5,4.1l0.4,1.1v0.7h0.4v0.4H68l0.4,0.7h0.4v0.4l1.1,1.5l0.7-0.4l0.4-1.1h0.4l0.4-1.5h0.4l2.2-4.8l0.4-1.1L75,111
		l1.5-3h0.4l2.2-6.3l0.7-1.5h0.4v-4.1c0.5-1.7,0.9-4.5,1.1-8.2v-0.4l0.7-3v-3l0.4-1.5v-0.7l0.7-4.1v-1.9c0-0.1,0.1-0.3,0.2-0.6
		c0.1-0.2,0.2-0.4,0.2-0.6c0-0.1,0.1-0.3,0.2-0.7c0.1-0.3,0.2-0.6,0.2-0.8l-0.4-1.9l1.5-3.7v-1.5l0.7-0.7l1.1-0.4l1.9-1.9l0.7-0.4
		l1.5,0.7c0.2,0.7,0.4,1.4,0.4,1.9v1.1L91,65.4h0.4c0.7,1.5,1.1,2.5,1.1,3c0,0.2-0.1,0.4-0.4,0.4l-0.7,4.1v1.5L91,76.1L90.6,78
		l-0.4,1.1v0.4v1.1l-0.4,4.1l-0.7,3v8.9l-0.7,4.1v2.2l-0.4,2.6l0.4,3l-0.4,1.5l0.7,1.9v0.4h0.4l0.7-1.5h0.4l0.7-3.3l0.7-1.5l1.9-6.3
		l0.7-3c0.5-1.2,1-3.3,1.5-6.3c0.1-0.5,0.2-1.1,0.4-1.9s0.2-1.3,0.3-1.7c0.1-0.4,0.1-0.7,0.1-0.9c0.1-0.1,0.4-0.7,0.7-1.9l1.5-4.1
		v-1.1c0.2-2.2,0.7-4.3,1.5-6.3l-0.4-0.7l1.1-2.6l3.7-11.1h0.4C105.2,57.4,105.7,56.6,106.6,55.3z M72.1,65.7l-0.7,0.4l-1.1,1.5
		h-0.4c0,0.5-0.1,0.9-0.4,1.1c0,0.1-0.1,0.3-0.2,0.7c-0.1,0.3-0.2,0.6-0.2,0.8c-1.5,4.5-2.2,6.9-2.2,7.4v1.5l-1.1,3.3v2.2l-1.1,5.6
		l0.4,4.8l-0.4,0.7v1.1v4.5h0.7c0.7-1.5,1.1-2.4,1.1-2.6l0.7-1.9l0.4-1.1v-1.5c0.9-1.1,1.5-2.8,1.9-5.2h0.4c0.2-1,0.4-2,0.4-3h0.4
		l1.5-5.9l-0.4-0.4l0.7-3.3h0.4v-2.2v-0.4v-1.1v-0.4v-4.8v-0.4l-0.4-1.5H72.1z M94,43.1l1.1,2.2h0.4c0.5,1,0.7,2,0.7,3
		c0,1.1-0.6,2-1.9,2.6H94l-1.1,2.6c-0.5,0.5-1.2,0.7-2.2,0.7c-1.1,0-2-0.5-2.6-1.5l-0.7-4.5l1.1-2.6L88,43.8
		c0.9-1.2,1.7-1.9,2.6-1.9H91L94,43.1z M156,65l-0.7,0.4c-1.5,1.2-2.6,3-3.3,5.2l-0.7,2.2l-1.1,1.9l0.4,1.1c-2,6.7-3,13.6-3,20.8
		c0,0.2,0.1,0.5,0.2,0.7c0.1,0.2,0.2,0.3,0.2,0.5l0.4,2.2v2.2l0.4,2.6v1.1l0.7,1.1c0,2.6,0.5,4.6,1.5,5.9l1.5-0.4l0.7-0.7l0.4-1.1
		l1.1-0.7c0.5-1,0.7-1.6,0.7-1.9v-0.7c-0.1-1-0.3-1.9-0.4-2.8c-0.1-0.9-0.2-1.5-0.3-1.9c-0.1-0.4-0.1-0.7-0.1-0.8
		c0.2-1,0.4-1.7,0.4-2.2c0-0.5-0.1-0.9-0.4-1.1v-1.1v-0.4v-1.9c-0.2-1-0.4-2-0.4-3v-2.2l0.7-5.2v-1.5l0.7-1.1l-0.4-1.9
		c0.2-0.5,0.4-1,0.4-1.5l0.7-3c0-0.1-0.1-0.3-0.2-0.7c-0.1-0.3-0.2-0.6-0.2-0.8l1.1-5.2l0.7-2.6l-1.1-1.5L156,65L156,65z"/>
	<path d="M221.4,4.5l1.5,0.7l0.4,1.1l1.1,3v4.5l0.4,0.4l-0.4,1.5l0.4,1.5l0.4,1.5l0.4,8.5l1.1,4.8V36l0.7,1.5c0,0.2,0.1,0.5,0.4,0.7
		V42l0.7,1.9v3l0.4,0.4c0,0.7,0.1,1.2,0.4,1.5c0,1.1,0.1,2.4,0.2,4c0.1,1.5,0.2,2.6,0.2,3.1v1.5l0.4,0.4v1.9l0.7,6.3v3.3l0.7,1.9
		v1.9l1.1,8.9l0.7,0.4v-1.5l0.4-1.9c0-0.5,0.1-0.9,0.4-1.1c0.5-1,0.7-2.2,0.7-3.7v-1.1c0.6-1,1.1-2.6,1.5-4.8l0.4-1.5v-1.1l0.7-1.1
		v-0.7c0.2-1.2,0.4-2.4,0.4-3.3c0.5-1.2,0.7-2.2,0.7-3l0.4-4.1l0.4-1.5l0.4-1.5h0.4l0.4-2.6h0.4v-2.2c1-2,1.5-3.5,1.5-4.5
		c0-0.7-0.1-1.2-0.4-1.5l0.4-1.1v-0.4v-1.1l0.7-0.7v-1.5v-2.2l1.1-1.9l0.4-3l1.5-4.1l0.4-1.9h-0.4v-2.2h0.4v-1.1v-0.4v-1.5l0.7-1.5
		v-1.1l2.2-0.4l0.7,0.4c0.7,1.1,1.1,2.1,1.1,3v1.1l-0.7,4.1v5.2c0,0.1-0.1,0.3-0.2,0.6c-0.1,0.2-0.2,0.4-0.2,0.6
		c-0.2,0.2-0.4,0.7-0.4,1.5v0.7l0.4,1.1v0.7v4.1l-0.4,1.1h0.4v0.7l-0.4,3l0.4,2.6l-0.4,0.4v2.6l0.4,1.5l-1.1,2.2l0.7,1.5l-0.4,2.6
		l0.7,2.2c-0.2,1-0.4,1.9-0.4,2.6v0.4v1.5L250,68l0.4,2.6l-0.4,2.2l0.7,2.6l-0.4,2.6v1.1l0.7,2.6l-0.4,1.5l0.4,1.1v2.6l0.4,1.9
		c0.2,0.2,0.4,0.7,0.4,1.5v1.1h0.4v1.1c0.2,1.5,0.4,2.8,0.4,4.1c0,0.5-0.1,1-0.4,1.5v1.1l0.4,0.7v1.9l0.4,0.4l-0.4,2.2
		c0.5,1,0.7,2.1,0.7,3.3v1.1l0.4,1.5v1.1c0,0.7,0.1,1.1,0.4,1.1c0,0.5,0.1,0.9,0.4,1.1v0.4l1.1,0.4l0.4-0.7l1.9-8.5h0.7
		c0.7,1,1.1,3.2,1.1,6.7v0.4c0,0.5-0.1,1-0.4,1.5l-1.1,6.7c0,1.1-0.5,2.5-1.5,4.1l-0.4,1.1l-0.7,2.2l-0.7,1.5
		c-0.4,2.7-1.4,4.1-3,4.1c-0.7,0-1.4-0.1-1.9-0.4l-0.7-0.7v-1.1l-0.7-1.1l-1.9-5.2l-0.7-4.8v-1.9l-1.1-7.4v-1.5l-0.4-3.7v-2.6
		l-0.7-2.6l0.4-0.7V98l-0.4-1.1v-1.9c-0.5-3-0.7-5.1-0.7-6.3l0.4-13.4l-0.4-2.6v-1.9v-7.1l-0.4-1.1l0.4-3.3V59h-0.4l-0.4,0.7
		l-0.4,1.5c-0.3,0.5-0.4,1.5-0.4,3v1.5H241l-3,19.3h-0.4c0,2.2-0.3,4-0.7,5.2c0,0.5-0.1,1-0.2,1.5l-0.2,0.7v1.9l-0.4,1.5l-0.7,2.6
		v0.4v1.1v1.1l-0.4,0.4v1.1l-0.7,3c0,0.5,0.1,0.9,0.4,1.1l-0.7,1.1v1.5l-0.7,3.7l-0.4,0.7v1.1v1.5l0.4,0.7l-0.7,1.1v1.5v1.1
		l-0.7,2.6c0,1.2-0.1,2.4-0.4,3.3c0,2.2-0.7,3.3-2.2,3.3c-0.7,0-1.5-0.2-2.2-0.7c0-1-0.1-1.9-0.2-2.8c-0.1-0.9-0.2-1.4-0.2-1.7
		l-0.4-2.2l-0.4-4.5c0-1.2-0.1-2.7-0.4-4.5c-0.2-1-0.4-2.6-0.4-4.8l-0.4-1.9l-0.4-2.2l0.4-3l-0.4-1.9v-3l-0.7-4.1l-0.4-8.2v-1.1
		v-1.1l-0.7-13h-0.4v-6.7l0.4-1.5l-0.4-0.7v-1.1l-0.4-5.2l-0.4-1.5l-0.4,0.7v1.1l-0.4,2.2l-0.7,5.2v0.7v0.7v0.7l-0.4,0.4v2.2
		l-0.4,1.5h-0.4v1.1h0.4v1.1l-0.4,1.1v1.9c-0.1,0.4-0.2,0.8-0.3,1.4c-0.1,0.6-0.1,1.3-0.2,2.3c-0.1,1-0.2,1.9-0.3,2.6
		c0,2.2-0.3,4.3-0.7,6.3c0,0.2-0.1,0.5-0.2,0.8c-0.1,0.3-0.2,0.5-0.2,0.7v1.5v0.4l-0.7,1.9l0.4,1.5l-0.4,1.5c0,0.5-0.1,1.1-0.2,1.7
		c-0.1,0.6-0.2,1.1-0.2,1.3c-0.3,0.7-0.5,1.7-0.7,3c-0.2,0.2-0.4,0.6-0.4,1.1l0.4,1.1l-0.7,3.3l-0.4,4.8l-0.4,1.1v1.1v2.2
		c-0.1,0.2-0.2,0.6-0.4,0.9c-0.1,0.4-0.2,0.6-0.3,0.8c-0.1,0.2-0.1,0.3-0.1,0.5v1.1v1.1l-0.4,1.1c-0.2,1-0.4,2.1-0.4,3.3v0.7
		l-0.4,1.1l-2.6,11.9v1.5c0,1-0.4,2.2-1.1,3.7l-0.7,4.1l-0.7,2.6l-1.9,2.2v0.4l-2.2,1.5h-1.1c-0.5,0-1-0.1-1.5-0.4V153h-0.4v-0.4
		h-0.4l-0.7-1.5l-1.1-4.1v-0.4l-0.7-1.1v-1.1c-0.1-0.4-0.2-1-0.4-1.9c-0.1-0.9-0.2-1.5-0.4-1.8l-0.7-2.2l-0.7-1.1l-0.4-1.1v-1.9
		l-0.4-0.4v-0.4v-0.4c0-1.7,0.7-3.3,2.2-4.8l0.7,0.4v0.4h0.4l0.4,1.1h0.4v1.1c0.5,1.5,0.7,2.4,0.7,2.6h0.4v0.7h0.4l0.4,1.1l0.4,0.7
		l1.1,0.4c1-0.2,1.6-0.9,1.9-1.9l0.4-2.2l0.4-1.1c0.2-0.7,0.4-1.4,0.4-1.9c0.2-0.7,0.4-1.4,0.4-1.9l0.7-3.3l0.7-3.7
		c0-0.1,0.1-0.3,0.2-0.7c0.1-0.3,0.2-0.6,0.2-0.8l0.7-1.5v-1.5l0.7-5.2l0.7-4.8l0.7-2.2v-0.7c0-0.7-0.1-1.4-0.4-1.9
		c1-1.4,1.5-2.4,1.5-3c0-0.2-0.1-0.7-0.4-1.5v-1.1l0.7-1.1l0.4-2.2l1.1-1.9l-0.4-2.2c0.7-1.2,1.1-2.2,1.1-3v-3.7l0.7-4.1v-2.2V75
		l0.4-0.4l-0.4-1.1l1.1-4.1v-1.9l0.7-2.6l0.7-9.3l0.7-2.2l0.7-7.4v-0.7v-0.4v-0.7c0-0.2,0.2-1.4,0.7-3.3v-1.5
		c0.5-1.7,0.7-3.8,0.7-6.3v-1.1h0.4v-0.7l-0.4-0.4v-2.2l-0.4-3.3l-0.4-3v-1.1v-1.1v-4.5l-0.7-3v-1.9c0-1.2,0.1-2.2,0.4-3h0.4
		c0.6-2.2,1.4-3.3,2.2-3.3H221.4z M294.9,57.2l1.9,0.7l0.7,1.1v2.2c0,2.5,0.4,4.3,1.1,5.6l1.9-0.7v-0.4l2.2-1.1l1.5-1.9
		c1.2-1.2,2.5-2.1,3.7-2.6l0.7,0.4c0.1,0.4,0.6,0.7,1.5,1.1l1.1,1.1l0.4-0.4l0.4,0.4v0.4l0.7,1.5l-1.9,3.7l-1.5,3.3v1.5l-1.5,3.7
		l-0.4,2.6l-0.4,1.5c0,0.2-0.2,1.4-0.7,3.3v1.5H306l-0.4,0.7l0.4,0.7v0.4l-0.4,1.1l-0.7,4.8v1.5v1.9v0.4l-0.4,0.7v1.9l-0.7,5.9v0.4
		c0,0.2,0.2,1.9,0.7,4.8c1.2-0.6,1.9-1.1,1.9-1.5l0.7-1.1l1.9-1.9l0.7-1.5c0-0.1,0.1-0.3,0.2-0.6c0.1-0.2,0.2-0.4,0.2-0.6h0.4
		l0.7-1.1v-0.4h0.4l1.9-4.1l1.5-3l0.7-8.5h0.4c0.1-0.5,0.2-1.1,0.4-1.7c0.1-0.6,0.2-1.2,0.4-1.7c0-0.5,0.1-1,0.2-1.5l0.2-0.7
		l0.7-2.2l0.7-3L319,75c0.2-0.5,0.4-0.9,0.4-1.1c0.7-2.2,1.2-3.5,1.5-3.7l1.5-2.6l1.1-2.6l1.5-1.9l0.4-0.7l1.1-1.1
		c1.2-1.2,2.5-1.9,3.7-1.9l2.2,0.7l0.7,0.7c2.5,1.2,3.7,3.5,3.7,6.7l-0.4,0.4v4.5v0.7c0,2-0.4,3.7-1.1,5.2l-0.4,1.1h-0.4v0.4h-0.4
		l-0.4,1.5h-0.4l-0.7,1.1l-1.5,0.7l-1.5-0.7l-0.7-1.1l0.4-1.5l-0.4-0.7l0.4-0.7h0.4l1.5-3.3v-1.9l0.4-0.7l1.5-2.2v-0.4v-3l-0.4-1.5
		v-0.7l-0.7-1.1c-0.6,0-1.5,0.4-2.6,1.1l-1.1,1.9l-0.7,2.2l-1.1,1.5l-0.7,3l-1.5,3.7l-0.4,2.6l-0.7,3.3v1.1l0.4,1.9
		c-0.5,0.7-0.7,1.9-0.7,3.3v1.5c0,0.5,0,1-0.1,1.6c-0.1,0.6-0.1,1-0.2,1.4c-0.1,0.4-0.1,0.6-0.1,0.7v0.4l0.7,4.5v1.9l0.4,1.5
		l0.7,3.3c0,0.1,0.1,0.3,0.2,0.6c0.1,0.2,0.2,0.4,0.2,0.6c0.2,0.2,0.4,0.6,0.4,1.1l1.9,3.3h1.1l3.7-5.2h0.4l1.1-2.2l0.4-1.1
		c0.7-1.1,1.1-2.1,1.1-3h0.4v-0.4l0.7-0.7l2.2-5.6c2.6-4.7,4.1-10.3,4.5-16.7h0.4v-2.2l0.4-3v-1.5l0.4-1.1l1.1-5.6l0.7-1.5l0.4-1.5
		l0.4-0.4c0.2-0.1,0.5-0.2,0.8-0.4c0.3-0.1,0.6-0.2,0.7-0.3c0.2-0.1,0.4-0.1,0.6-0.1l3,0.4h1.1l0.7,1.1c0,0.5-0.1,0.9-0.4,1.1v3
		l-1.1,6.3l-0.4,3.3L351,75v1.9l-0.7,4.5v1.1v0.4c-0.1,0.5-0.2,1.1-0.4,1.7c-0.1,0.6-0.2,1.1-0.3,1.5c-0.1,0.4-0.1,0.8-0.1,1.3
		c0,3.5-0.1,5.3-0.4,5.6v0.7l-0.4,1.1l0.7,10v0.4l0.4,4.1l0.4,0.7h0.4l1.5-2.2l3.3-8.5l0.4-1.9h0.4c1.2-3.1,1.9-6.7,1.9-10.8
		l0.4-8.2l1.1-7.4l0.7-7.4L361,62l1.1-0.7l4.8-0.4l1.5,0.7l-0.4,1.5l-0.4,4.8l-0.7,1.5c-0.2,0.2-0.4,1.2-0.4,3v1.1l-0.4,0.4V75v1.5
		c0,1-0.1,2.1-0.4,3.3h0.4v5.6h-0.4l-0.4,3v2.2v4.1v2.2c0.2,1.5,0.4,2.8,0.4,4.1c0,0.7-0.1,1.2-0.4,1.5l0.7,7.8l0.7,0.7l1.1-0.4
		l1.5-6.3l3-10V94h0.4v-0.4l1.5-5.2h0.4l0.4-2.2h0.4l0.4-1.1l0.4-0.7c0-1,0.4-2.2,1.1-3.7h0.4l0.4-1.9v-1.5h0.4l1.1-3.3l1.1-2.2
		l0.4-1.1v-1.5l1.9-4.5l0.4-2.2c0-1,1-1.7,3-2.2l1.1,0.7v3.3l-0.7,3.7l-0.4,3l-0.4,7.4v0.7c0,2,0.1,3.6,0.4,4.8
		c0.2,0.7,0.4,1.5,0.4,2.2v1.1c0.2,0.2,0.4,0.7,0.4,1.5l1.5,8.5l0.7,0.4l2.2,1.1l2.2,0.4c0.2,0,0.9,0.2,1.9,0.7l1.9,1.1
		c0.3,0.2,0.6,0.4,1.1,0.4v0.4l1.1,0.7l0.4,1.5l-0.7,0.7l-1.5,0.4c-1-0.6-1.6-1.2-1.9-1.9l-1.1-0.4l-3.3-0.7l-0.7-0.4l-1.1-0.7h-0.4
		l0.4,2.6c0.7,3.7,1.1,5.7,1.1,5.9c0,0.1,0,0.3-0.1,0.6c-0.1,0.3-0.1,0.8-0.2,1.4c-0.1,0.6-0.1,1.3-0.1,2v1.1l-0.7,2.2h-0.4
		l-0.4,2.2l-0.7,0.7l-0.4,1.5l-0.7,0.4v0.4l-1.5,1.5h-0.4c-0.2,0.2-0.7,0.4-1.5,0.4c-1.4,0-2.9-0.5-4.5-1.5
		c-0.3-0.2-0.5-0.4-0.7-0.4v-0.4l-1.5-1.5l-0.4-0.4l-1.5-1.9h-0.4c-0.5-2-1.1-3.5-1.9-4.5c0-0.5-0.1-0.9-0.4-1.1
		c-0.2-0.2-0.4-0.9-0.4-1.9h-0.4L371,114h-0.4l-2.2,4.8h-0.4l-0.4,1.5l-1.5,1.9c-0.6,1.2-1.7,1.9-3.3,1.9l-2.6-1.9l-1.5-4.5
		l-0.4-3.3l-0.4-1.5l-0.4-3.3v-3.7l-0.4-1.5h-0.4l-1.1,1.9l-2.2,5.6v1.5c-0.7,0.7-1.2,1.6-1.5,2.6h-0.4l-0.4,1.1l-1.1,2.6
		c-2,2.2-3.5,3.3-4.5,3.3c-0.5,0-1.1-0.2-1.9-0.7c-1.2-1.2-1.9-2-1.9-2.2l-1.1-4.1v-1.1v-1.9l-0.4-7.1l0.4-1.9l-0.4-1.5v-0.4v-3.3
		c0.2-0.5,0.4-1.7,0.4-3.7l-0.7,1.5h-0.4v1.9l-1.1,1.1l-0.7,3h-0.4c0,0.1-0.1,0.3-0.2,0.6c-0.1,0.2-0.2,0.4-0.2,0.6
		c-0.2,0.5-0.4,1-0.4,1.5v0.7c-2,4-3.1,6.3-3.3,7.1c0,0.7-0.1,1.1-0.4,1.1c0,0.6-0.4,1.5-1.1,2.6l-0.4,0.7l-0.7,1.1l-1.5,1.5
		c-0.6,1.1-1.2,1.9-1.9,2.2l-3.7,3.3h-0.7c-0.1,0-0.4-0.1-0.7-0.2c-0.4-0.1-0.6-0.2-0.7-0.2c-1.7-1-2.9-2.2-3.3-3.7l-0.7-1.9
		l-1.9-6.7c-0.5-2-0.7-3.6-0.7-4.8v-1.5v-1.5h-0.4l-0.7,1.9h-0.4l-0.7,3h-0.4l-2.6,5.9l-1.1,1.1l-1.5,3.3h-0.4v0.7l-0.4,0.4
		l-0.4,0.4l-0.4,0.7l-1.5,0.7v0.4h-0.4v0.4l-1.5,0.7l-1.1,0.4l-1.9-1.9l-0.7-1.5c-0.5-1-0.7-1.6-0.7-1.9l-0.4-1.9l-0.7-2.6
		c-0.2-0.7-0.4-1.9-0.4-3.3v-3.3l0.7-4.5v-1.1v-0.4v-1.1c0-0.5,0.1-0.7,0.4-0.7l0.4-2.2l1.9-9.7c0.1-0.2,0.2-0.6,0.4-0.9
		c0.1-0.4,0.3-0.9,0.6-1.7c0.2-0.7,0.4-1.4,0.6-1.9c0.9-2.6,1.4-4.2,1.5-4.8l0.7-3c-1,0.7-2.4,1.5-4.1,2.2c-0.1,0-0.3,0.1-0.6,0.2
		c-0.2,0.1-0.4,0.2-0.6,0.2h-0.4l-1.5-0.4l-0.4-0.4l-0.7-1.1l-0.7,4.1l-0.4,1.1c-0.3,1-0.4,2.1-0.4,3.3v0.4V88l-0.7,3v0.7v1.5
		l-0.7,3.7v1.5l-0.4,1.1v0.7l-0.4,1.5l-0.4,3l-0.4,3.3v1.5l-0.4,1.5l-0.7,4.5c0,0.1-0.4,1.1-1.1,3c-0.5,2-1.5,3.8-3,5.6
		c-1,0.5-1.6,0.7-1.9,0.7c-0.9,0-1.9-0.7-3-2.2l-1.1-1.9l-0.7-1.1l-0.7-1.5l-1.9-3.7l-0.7,0.4v0.4l-0.4,0.7h-0.4l-0.7,1.1h-0.4
		l-0.4,1.1H273l-0.4,1.1h-0.4l-1.1,1.9l-0.4,0.4l-1.5,1.5c-0.2,0.1-0.5,0.2-0.8,0.4c-0.3,0.1-0.5,0.2-0.6,0.3
		c-0.1,0.1-0.3,0.1-0.4,0.1c-2,0-3.7-1.9-5-5.9c-1.4-3.9-2-8.8-2-14.6c0-6.9,0.5-11.9,1.5-14.9l1.9-9.3l0.7-3.7l1.5-3
		c0-0.1,0.1-0.3,0.2-0.6c0.1-0.2,0.2-0.4,0.2-0.6l1.1-3.3l0.7-1.5l3-3.7c1-1.7,2.1-2.6,3.3-2.6c0.1,0,1.1,0.4,3,1.1l2.2,2.6l1.5-0.7
		c0.2,0.2,0.6,0.4,1.1,0.4l1.1,1.1l-0.4,2.6l0.4,1.1c-0.5,0.5-0.7,1.1-0.7,1.9v0.7v1.9c-1,1.5-1.5,3.3-1.5,5.6v3.3v1.1l-0.4,0.4v2.6
		v5.6c0,2.2,0.7,7.6,2.2,16h0.4l1.1,2.6l0.7-1.5l0.7-4.1l1.1-5.2V98l1.1-5.6c0.2-0.2,0.4-0.6,0.4-1.1c0-0.5-0.1-1-0.4-1.5
		c0.5-1,0.7-2.2,0.7-3.7V85h0.4l0.4-3l0.4-1.1l0.7-4.1l0.7-2.6c0-0.1,0-0.4,0.1-0.7c0.1-0.4,0.2-0.9,0.3-1.6
		c0.1-0.7,0.2-1.4,0.4-2.1v-1.5v-0.7l1.1-9.3h0.4v-0.4L294.9,57.2z M271.1,72.1l-0.4,1.5l-0.4,3.3H270l-0.4,2.6v1.1l-0.4,1.1
		l-0.7,3.7l0.4,2.2v3v1.1c-0.2,0.5-0.4,1-0.4,1.5v0.4l-0.4,1.1v1.1c0.2,0.7,0.4,1.6,0.4,2.6v4.8l0.4,1.9l0.4,3v1.1v1.1
		c0,0.7,0.2,1.5,0.7,2.2c0.2,0.3,0.4,0.6,0.4,1.1c1.5-0.7,2.5-1.7,3-3c1.2-2.2,1.9-4.5,1.9-6.7v-3v-2.6l0.4-2.2v-5.9l0.4-1.1v-3.7
		l0.7-5.6v-1.5h-0.4l1.1-4.1c0-1.2,0.1-2.5,0.4-3.7c0.2-0.5,0.4-1,0.4-1.5c0-0.7-0.1-1.4-0.4-1.9h-0.7l-0.4-0.7V65l-0.4-0.7
		c-1.1,0-1.9,0.3-2.3,0.8c-0.4,0.6-1,2-1.8,4.4L271.1,72.1z M379.6,83.9v0.4v0.4l-0.4,1.1l-0.7,2.6l-1.5,5.2l-0.7,2.6l-0.4,0.7
		l-0.7,4.1c0.5,0,0.9-0.1,1.1-0.4c1.2-0.2,2.5-0.9,3.7-1.9c-0.3-1.2-0.4-2.5-0.4-3.7v-3.3v-1.9v-1.1l0.4-0.7v-1.9v-1.9L379.6,83.9z
		 M380.3,102.9h-0.4l-1.1,0.4l-0.4,0.4l-0.4,0.4v0.4h-0.4v0.4h-0.4v0.4H377c-0.7,1.1-1.1,2.5-1.1,4.1c0,0.5,0.1,0.9,0.4,1.1
		c0.9,2.8,2.2,4.5,4.1,4.8h0.4l0.4-0.4c0.2-1.2,0.4-2.3,0.4-3.3c0-1.5-0.1-3-0.4-4.5c0-0.1-0.1-0.3-0.2-0.6
		c-0.1-0.2-0.2-0.4-0.2-0.6v-2.6L380.3,102.9z"/>
</g>
</svg>
