<svg xmlns="http://www.w3.org/2000/svg" viewBox="-5977.891 7765.999 143.201 54.783">
  <defs>
    <style>
      .cls-1 {
        fill: #fff;
      }
    </style>
  </defs>
  <g id="Group_3171" data-name="Group 3171" transform="translate(-6007.891 7754.999)">
    <g id="Symbol_94_2" data-name="Symbol 94 – 2">
      <path id="Path_1995" data-name="Path 1995" class="cls-1" d="M19.537,0h.143l.394.25V.787l.537.537v.394a1.968,1.968,0,0,0-.25.68,2.817,2.817,0,0,1-.143.787h.143v.143l-.286.25v.537a.869.869,0,0,0-.143.394,2.259,2.259,0,0,1-.143.322.784.784,0,0,1-.107.286c0,.107,0,.143,0,.215l-.143.93-.143.25a.806.806,0,0,1-.036.25,4.969,4.969,0,0,0-.107.608c-.036.25-.072.537-.143.859v.394h.143L19,9.16V9.7a2.812,2.812,0,0,1-.143,1.181l-.143.394-.107,2.541-.394,1.718v.394l-.143.143V17a1.407,1.407,0,0,1-.072.215c-.036.107-.072.143-.072.215-.072.429-.143.716-.143.787a.446.446,0,0,0,.143.394l-.25.537.143.537-.143.537v.394l-.143,1.324-.25.68v1.61l-.143.68.143,1.181-.25,2.791.143,1.861-.143.68h.143v9.3l.25,3.471-.143.68a5.136,5.136,0,0,0,.394,1.61,2.26,2.26,0,0,0,.143.322.674.674,0,0,0,.143.322l-.537.537v1.073h-.537a3.684,3.684,0,0,1-1.718-.68l-.143-.25-.143-.394-.394-.394-.68-1.861h-.143a2.356,2.356,0,0,1-.25-1.073l-.143-.394V43.3l-.25-.394-.143-.25-.68-2.541h-.143l-.143-.394v-.394l-.537-1.181a1.362,1.362,0,0,0-.143-.68v-.537l-.143.143v-.537l-.25-1.073-.25-1.181-.143-.25v-.68l-.25-.537.143-.25H10.2l-.25-.787L9.8,31.238v-.394l-.143-.537-.25-1.073v-2l-.394-1.61a2.639,2.639,0,0,1-.143-.93l-.93-5.582H7.8v2.04a11.514,11.514,0,0,1-.036,1.181c-.036.322-.036.573-.072.823a3.708,3.708,0,0,0-.036.573v.215a4.513,4.513,0,0,0-.25,1.467v2.612l-.25,1.467v1.574l-.143.537.143.143v1.61a1.577,1.577,0,0,0-.25.93v.68l-.143.394v.787l-.25.394v1.61a1.362,1.362,0,0,1-.143.68c-.072,0-.143.143-.143.394H6.083v1.861H5.94l-.25,2.648L5.3,45.193v.68a1.01,1.01,0,0,1-.143.537H5.01v.93a2.259,2.259,0,0,1-.143.322.674.674,0,0,1-.143.322L4.58,49.058A8.859,8.859,0,0,1,3.65,51.6l-.143.143a5.1,5.1,0,0,1-.93.25.446.446,0,0,1-.394-.143l-.394-.143-.143-.394-.036-.143a3.341,3.341,0,0,1-.394-1.324l-.143-.93L.93,48.378.394,45.587,0,43.44l.25-.394L.5,42.9l.394.25a1.407,1.407,0,0,0,.072.215.509.509,0,0,1,.072.215,2.066,2.066,0,0,1,.394.93l.143.537.25.537.143.394.25.68h.25l.143-.143.537-2.254h.143v-.537l.25-.25.25-2.648.68-2.791.143-1.073.25-1.61.143-1.861L5.4,32.025v-.93l.143-.143v-.394l-.143-.25v-.143c0-.036.036-.143.072-.286a2.06,2.06,0,0,0,.072-.358,1.407,1.407,0,0,1,.072-.215.509.509,0,0,0,.072-.215H5.546v-.107h.179l.143-1.61V26.3a.8.8,0,0,0,.143-.537h.143l-.143-.394.143-.143V23.9L6.3,22.722V21.4L6.441,21v-.394L6.584,19l-.143-.787.143-1.181.25-2.934.25-1.718-.25-.93.143-.787V9.84a.31.31,0,0,1-.143-.25,13.857,13.857,0,0,1-.394-2.4A.869.869,0,0,0,6.3,6.8h.143V6.656a3.389,3.389,0,0,1-.143-.93,2.04,2.04,0,0,1,.143-.787,1.407,1.407,0,0,0-.072-.215A.509.509,0,0,1,6.3,4.509a3.39,3.39,0,0,1-.143-.93A.446.446,0,0,1,6.3,3.185l.25-.394v-.93l.143-.25h.394l.537.25.93.25.143.143.143.394.143,1.324L9.375,5.3V6.512h.143l.787,5.976v.644a.8.8,0,0,1,.143.537v.394l.25,1.718.394,1.61.143,1.861.25.93V21.4l.394.93.143.93.394,1.61v.93h.143l.143.787h.143l.143,1.181a6.658,6.658,0,0,1,.68,2.111l.25.93.143.394v.286a10.964,10.964,0,0,0,.68,2.254c.072.25.179.573.25.93h.036v-.68l.25-1.61V30.272l.143-.787v-.25a1.407,1.407,0,0,0-.072-.215.509.509,0,0,1-.072-.215l.143-.68.143-1.073.143-1.61v-.394l-.143-.143a1.823,1.823,0,0,0,.143-.394,5.813,5.813,0,0,1,.143-.68,3.8,3.8,0,0,1,.107-.5.889.889,0,0,0,.036-.286.446.446,0,0,1-.143-.394l.143-.787.143-1.61a2.817,2.817,0,0,1,.143-.787v-.537a.572.572,0,0,0,.143-.394V17.068a.446.446,0,0,1,.143-.394v-.394a.572.572,0,0,0,.143-.394.743.743,0,0,0-.143-.537l.25-.93-.143-.394.25-.537V12.309l.25-1.181.143-.394.143-.537V9.661l.072-.358v-.93l.68-3.042.25-2.4a.806.806,0,0,1,.036-.25,5.616,5.616,0,0,0,.107-.573,5.555,5.555,0,0,1,.143-.751L19.144.179ZM38.144,19.788l.394.143.537.25.143.537a9.266,9.266,0,0,0,.25,2.254c.179,1.073.25,1.646.25,1.718L39.575,28.8l.143,1.073-.143.68.143.537.25-1.467h.143l.537-1.861c0-.25.036-.394.143-.394a3.16,3.16,0,0,1,.25-1.073,3.154,3.154,0,0,0,.394-1.61v-.143l.68-1.718c.179-.537.322-.895.394-1.073l.537-.143.25.25.143.787-.143.143v.787l-.143.787-.143,1.073v.787l-.25.68.25,2.111-.072,3.793.143,1.324v.68l.25.93.143-.537.143-.537.25-1.073.25-.787.143-1.073.25-.68.68-3.471.143-.537c.036-.215.215-.895.537-2A9.119,9.119,0,0,0,46.66,22.4v-.394c.143-.537.394-.859.787-.93l.394.143.25.25-.25,1.467v.537l.143.68a1.279,1.279,0,0,0-.143.68v.93l.143.25-.25.787.143.93V31.31a1.5,1.5,0,0,1,.143.537v.394a.446.446,0,0,1-.143.394l.143.537.143,1.324V36.1a1.362,1.362,0,0,0,.143.68,1.01,1.01,0,0,0,.143.537V38l.394,1.073.143,1.324h.143l.25-.25.143-.537v-.394l.143-.394a2.135,2.135,0,0,0,.25-.93V37.5l.143-.93v-.93l.25-1.718.25-2.541.25-.93.25-1.073.537-1.61v-.394h.143l.394-1.324.394-.394.68-1.467.394-.537L54,23.115h.143l.143-.25h.143a2.493,2.493,0,0,1,1.181-.68v-.143a1.8,1.8,0,0,0,.429-.072,2.059,2.059,0,0,1,.358-.072c.036,0,.25.143.68.394l.143-.143.394-.25.68.143.25.93-.143.68-.25.93v2l-.25,2.648v2.541l.143,2.254c.179,1.431.25,2.219.25,2.4a.651.651,0,0,1,.143.394v.537l.143.394.394-.25v-.537l.25-.25a1.407,1.407,0,0,1,.072-.215.509.509,0,0,0,.072-.215l.143-1.181.25-.68.143-.537.25-.93a2.356,2.356,0,0,1,.25-1.073.572.572,0,0,0,.143-.394,1.362,1.362,0,0,1,.143-.68l.68-2.648a19.7,19.7,0,0,0,0-4.258,4.9,4.9,0,0,1,.072-.573c.036-.25.072-.394.072-.5l.394-.93a1.326,1.326,0,0,1,.25-.68l.25-.537.25-.143a1.291,1.291,0,0,1,.537.537l.394,2.541.143.68a7.489,7.489,0,0,0-.143,1.718v.537l.143,2-.143,1.073.143.93-.143.68.143.537v.68l.143,1.181V35.5a3.694,3.694,0,0,0,.143,1.073h.143l.25-.143.25-1.324a8.993,8.993,0,0,0,.787-2.111v-.429l.143-.394.25-.537c.072-.179.215-.573.394-1.181a2.762,2.762,0,0,1,.072-.537l.072-.25.25-1.073.537-2,.537-1.861v-.394l.68-2.254.394-.25.537-.143a2.546,2.546,0,0,1,.394,1.467v.25l-.143,2.111V26.3a38.261,38.261,0,0,1-.25,3.864V30.7l-.143,2.648.143.394v.394a12.346,12.346,0,0,0,.787,5.188h.143a3.094,3.094,0,0,0,.537-1.861h.143l.143-.394v-.25a1.45,1.45,0,0,1,.107-.429c.072-.215.107-.394.179-.644l.537-.143.25.143v.143l.25.25-.143.68-.25.93-.143.787a1.363,1.363,0,0,0-.25.787v.394h-.143l-.143.537a3.094,3.094,0,0,0-.537,1.861l-.394.68-.143.25H70.1l-.394.787-.68.68H68.63l-.25-.143-.787-.93v-.68H67.45l-.25-1.324V40.9c-.25-1.467-.394-2.29-.394-2.541a1.01,1.01,0,0,1-.143-.537.446.446,0,0,1-.143-.394V35.89h.143v-2.4h-.25v.537a12.088,12.088,0,0,1-.394,2.254c-.072.107-.143.179-.143.25l-.143.93a3.072,3.072,0,0,0-.537,1.61l-.394.787V40.4l-.68,1.718-.25,1.181-.787,1.073-.68.143h-.143l-.394-.537-.25-.68v-.358l-.143-.143V42.4a12.114,12.114,0,0,1-.394-1.324l.143-.143v-.25L61.08,39.9l.143-1.467v-.25l-.143-.787V37c0-.608.072-1.753.25-3.471v-.394h-.143v.143l-.394,1.073h.143l-.143.143v.394l-.25.394-.537,2.4-.25.93-.143.537v.394H59.4v.394a12.2,12.2,0,0,0-.68,2.111.446.446,0,0,0-.143.394q-.59,1.718-1.181,1.718a.911.911,0,0,1-.787-.537l-.25-.787-.25-1.718-.394-.143L54.64,42.688l-.537.93-.143.143c-.394.537-.751.787-1.073.787a.746.746,0,0,1-.537-.25l-.537-.394-.25-.394-.537-.787v-.394l-.25-.394-.394-1.181a4.255,4.255,0,0,1-.93,1.861h.143a2.447,2.447,0,0,0-.394.787l-.25.394-.143.394h-.143l-.25.25A.983.983,0,0,1,47.376,43.4a.572.572,0,0,1-.143-.394H47.09a5.328,5.328,0,0,1-.787-2.791v-.143a3.829,3.829,0,0,1-.25-1.467c-.072-.716-.143-1.288-.143-1.718a.869.869,0,0,0-.143-.394V36.14l-.143-.787a1.106,1.106,0,0,0-.072-.286,1.407,1.407,0,0,1-.072-.215V33.635h-.143l-.143.537-.68,2.541-.143.93-.143.787v.394l-.143.25-.143.93-.143.787v.93l-.25,1.324.143.143v.394h-.143l-.25.68h-.358l-.394-.143-1.073-.787-.25-1.073v-.787L40.971,40l-.25-.537v-.787h-.143a3.878,3.878,0,0,0,.143-1.073v-.68a6.919,6.919,0,0,0-.143-.966,5.885,5.885,0,0,0-.107-.644.944.944,0,0,1-.036-.25V33.993h-.143l-.143.394v.394a1.407,1.407,0,0,1-.072.215A.509.509,0,0,0,40,35.21a5.812,5.812,0,0,1-.143.68,2.253,2.253,0,0,1-.107.465.454.454,0,0,0-.036.215l-.25.787a3.778,3.778,0,0,0-.25,1.61l-.537,1.324.143.143-.143.537-.143,1.467-.25.93-.394.787-.143.394-.394.143a2.372,2.372,0,0,1-1.073.537,2.258,2.258,0,0,1-.68-.25v-.143l-.143-.143.143-.537.25-1.324v-.394c.036-.072.072-.179.107-.25s.072-.215.179-.429c.072-.215.179-.5.25-.787l-.143-.25a28.122,28.122,0,0,0,.537-3.972V34.888l.25-2.111-.143-.93a.572.572,0,0,0,.143-.394,3.044,3.044,0,0,0,.143-.787v-.143h.143l-.143-.787a2.059,2.059,0,0,1,.072-.358c.036-.143.072-.25.072-.286a4.21,4.21,0,0,0-.394-2.111h-.143v.25c-.036.179-.143.68-.25,1.467a1.106,1.106,0,0,1-.072.286.91.91,0,0,0-.072.25c-.25.68-.394,1-.394,1.073v.68l-.25.537-.394,1.861a1.362,1.362,0,0,1-.143.68,4.574,4.574,0,0,0-.143,1.181v.537l-.537,1.073a12.762,12.762,0,0,0-.537,2.111v.143h-.25l-.68,2.254H32.92v.394l-.143.394h-.143l-.143.394-.537.93c-.394.787-.859,1.181-1.324,1.181a1.567,1.567,0,0,1-1-.358,1.154,1.154,0,0,1-.465-.966l-.143-.787-.143-.787c-.107-.072-.143-.25-.143-.537v-.93l-.25-.537-.143.143-.25.394-.143.537-.25.143-.25.93a1.869,1.869,0,0,0-.68,1.181h-.143v.25l-.394.537-.394.394a1.987,1.987,0,0,1-1.324.68,2.03,2.03,0,0,1-1.61-.93h-.143a1.407,1.407,0,0,0-.072-.215.509.509,0,0,1-.072-.215c-.179-.25-.322-.429-.394-.537a.31.31,0,0,1-.143-.25l-.143-.143-.25-.394-.394-.143a3.053,3.053,0,0,1-.93,1.324l-.143.143-.394.68-.25.25-.25.25a.55.55,0,0,0-.143.215.749.749,0,0,1-.143.215,1.878,1.878,0,0,0-.25.394l-.68-.143V45.3l-.143-.143.537-.787.143-.143.537-.93v-.143l.787-.68a.728.728,0,0,0,.25-.394,2.784,2.784,0,0,1,.68-.93l.143-.394-.143-.143h-.143V40.47l-.143-.394V39.4l-.394-.93V37.393l-.143-2.111.25-1.61v-.787l.143-.68-.143-.143.143-.394.68-3.185v-.93a16.5,16.5,0,0,1,1.61-3.972H22.9v-.143a3.561,3.561,0,0,1,3.041-1.467l.394.143v.072l.143.143a5.855,5.855,0,0,1,.93,3.578c0,.25-.072,1.109-.25,2.541a3.858,3.858,0,0,1-.394,1.467l-.179,1.574a4.3,4.3,0,0,0-.394,1.073l-.429,1.467H25.62l-.25.93-.25.68v.143l-.537.93h-.143l-.143.68h-.143a3.417,3.417,0,0,0-.787,1.861v.787a6.316,6.316,0,0,0,.537,1.467l.143.394v.25h.143v.143h.143l.143.25h.143v.143l.394.537.25-.143.143-.394h.143l.143-.537h.143l.787-1.718.143-.394.072-.322.537-1.073h.143l.787-2.254.25-.537H28.7V34.387a14.086,14.086,0,0,0,.394-2.934V31.31l.25-1.073V29.163l.143-.537v-.25l.25-1.467v-.68a1.407,1.407,0,0,1,.072-.215.508.508,0,0,0,.072-.215c0-.036.036-.107.072-.25a1.106,1.106,0,0,0,.072-.286l-.143-.68.537-1.324v-.537l.25-.25.394-.143.68-.68.25-.143.537.25a2.9,2.9,0,0,1,.143.68v.394l-.107.573h.143a3.617,3.617,0,0,1,.394,1.073.131.131,0,0,1-.143.143l-.25,1.467v.537l-.143.608-.143.68-.143.394v.537l-.143,1.467-.25,1.073v3.185l-.25,1.467v.787l-.143.93.143,1.073-.143.537.25.68v.143h.143l.25-.537h.143l.25-1.181.25-.537.68-2.254.25-1.073a11.536,11.536,0,0,0,.537-2.254c.036-.179.072-.394.143-.68s.072-.465.107-.608a1.233,1.233,0,0,0,.036-.322,2.134,2.134,0,0,0,.25-.68l.537-1.467V28.2a7.982,7.982,0,0,1,.537-2.254l-.143-.25.394-.93,1.324-3.972h.143A3.86,3.86,0,0,1,38.144,19.788ZM25.8,23.509l-.25.143-.394.537h-.143a.446.446,0,0,1-.143.394c0,.036-.036.107-.072.25a1.106,1.106,0,0,0-.072.286,19.8,19.8,0,0,0-.787,2.648V28.3l-.394,1.181v.787l-.394,2,.143,1.718-.143.25v2h.25a5.845,5.845,0,0,0,.394-.93l.25-.68.143-.394v-.537a3.975,3.975,0,0,0,.68-1.861h.143a5.524,5.524,0,0,0,.143-1.073H25.3l.537-2.111-.143-.143.25-1.181h.143V24.01l-.143-.537H25.8Zm7.836-8.087.394.787h.143a2.356,2.356,0,0,1,.25,1.073,1,1,0,0,1-.68.93h-.107l-.394.93a1.178,1.178,0,0,1-1.718-.286l-.25-1.61.394-.93-.179-.644c.322-.429.608-.68.93-.68h.143ZM55.82,23.259l-.25.143a3.807,3.807,0,0,0-1.181,1.861l-.25.787-.394.68.143.394a25.821,25.821,0,0,0-1.073,7.443.663.663,0,0,0,.072.25c.036.072.072.107.072.179l.143.787v.787l.143.93v.394l.25.394a3.464,3.464,0,0,0,.537,2.111l.537-.143.25-.25.143-.394.394-.25a1.967,1.967,0,0,0,.25-.68v-.25c-.036-.358-.107-.68-.143-1a5.456,5.456,0,0,0-.107-.68,1.151,1.151,0,0,1-.036-.286,5.39,5.39,0,0,0,.143-.787.446.446,0,0,0-.143-.394V34.065a5.524,5.524,0,0,1-.143-1.073V32.2l.25-1.861v-.537l.25-.394-.143-.68a1.5,1.5,0,0,0,.143-.537l.25-1.073c0-.036-.036-.107-.072-.25a1.106,1.106,0,0,1-.072-.286l.394-1.861.25-.93-.394-.537Z" transform="translate(30 11)"/>
      <path id="Path_1996" data-name="Path 1996" class="cls-1" d="M203.355,4.5l.537.25.143.394.394,1.073v1.61l.143.143-.143.537.143.537.143.537.143,3.042.394,1.718v1.431l.25.537a.31.31,0,0,0,.143.25v1.36l.25.68v1.073l.143.143a.743.743,0,0,0,.143.537c0,.394.036.859.072,1.431.036.537.072.93.072,1.109v.537l.143.143v.68l.251,2.254v1.181l.25.68v.68l.394,3.185.25.143v-.537l.143-.68a.446.446,0,0,1,.143-.394,2.917,2.917,0,0,0,.25-1.324v-.394a5.39,5.39,0,0,0,.537-1.718l.143-.537V26.4l.25-.394v-.25a8.083,8.083,0,0,0,.143-1.181,2.842,2.842,0,0,0,.251-1.073l.143-1.467.143-.537.143-.537h.143l.143-.93h.143v-.787a4.119,4.119,0,0,0,.537-1.61.743.743,0,0,0-.143-.537l.143-.394v-.537l.251-.25V14.591l.394-.68.143-1.073.537-1.467.143-.68h-.143V9.9h.143V8.83l.25-.537V7.9l.787-.143.25.143a2.089,2.089,0,0,1,.394,1.073v.394l-.251,1.467v1.861a1.4,1.4,0,0,1-.072.215.509.509,0,0,0-.072.215.8.8,0,0,0-.143.537v.25l.143.394v1.718l-.143.394h.143v.25l-.143,1.073.143.93-.143.143v.93l.143.537-.394.787.25.537-.143.93.25.787a5.393,5.393,0,0,0-.143.93v.68l.143,2.29.143.93-.143.787.251.93-.143.93v.394l.25.93-.143.537.143.394v.93l.143.68a.8.8,0,0,1,.143.537v.394h.143v.394a11.26,11.26,0,0,1,.143,1.467,1.01,1.01,0,0,1-.143.537v.394l.143.25v.68l.143.143-.143.787a2.593,2.593,0,0,1,.25,1.181v.394l.143.537v.394c0,.25.036.394.143.394a.446.446,0,0,0,.143.394v.143l.394.143.143-.25.68-3.042h.25a4.763,4.763,0,0,1,.394,2.4v.143a1.01,1.01,0,0,1-.143.537l-.394,2.4a2.959,2.959,0,0,1-.537,1.467l-.143.394-.25.787-.25.537c-.143.966-.5,1.467-1.073,1.467a1.362,1.362,0,0,1-.68-.143l-.25-.25v-.394l-.25-.394-.68-1.861-.25-1.718v-.68l-.394-2.648v-.537l-.143-1.324v-.93l-.25-.93.143-.25v-.644l-.143-.394v-.68a15.334,15.334,0,0,1-.25-2.254l.143-4.795-.143-.93v-3.22l-.143-.394.143-1.181V24h-.143l-.143.25-.143.537a2.434,2.434,0,0,0-.143,1.073V26.4h-.179L209.295,33.3h-.143a6.123,6.123,0,0,1-.25,1.861,2.761,2.761,0,0,1-.072.537l-.072.25v.68l-.143.537-.25.93v.93l-.143.143v.394l-.25,1.073a.446.446,0,0,0,.143.394l-.25.394v.537l-.25,1.324-.143.25v.93l.143.25-.251.394v.93l-.25.93a3.956,3.956,0,0,1-.143,1.181c0,.787-.25,1.181-.787,1.181a1.363,1.363,0,0,1-.787-.25,8.793,8.793,0,0,0-.072-1c-.036-.322-.072-.5-.072-.608l-.143-.787-.143-1.61a9.815,9.815,0,0,0-.143-1.61,8.968,8.968,0,0,1-.143-1.718l-.143-.68-.143-.787.143-1.073-.143-.68V37.456l-.25-1.467L204,33.054v-.787l-.251-4.652h-.143v-2.4l.143-.537-.143-.25v-.394l-.143-1.861-.143-.537-.143.25v.394l-.143.787-.25,1.861v.751l-.143.143v.787l-.143.537h-.143v.394h.143v.394l-.143.394v.68c-.036.143-.072.286-.107.5s-.036.465-.072.823-.072.68-.107.93a11.445,11.445,0,0,1-.25,2.254,1.107,1.107,0,0,1-.072.286.91.91,0,0,0-.072.25v.68l-.25.68.143.537-.143.537a3.986,3.986,0,0,1-.072.608c-.036.215-.072.394-.072.465a4.767,4.767,0,0,0-.25,1.073.572.572,0,0,0-.143.394l.143.394-.25,1.181-.143,1.718-.143.394V43.9a2.258,2.258,0,0,1-.143.322,1.212,1.212,0,0,1-.107.286.323.323,0,0,0-.036.179v.787l-.143.394a5.927,5.927,0,0,0-.143,1.181v.25l-.143.394-.93,4.258v.537a3.341,3.341,0,0,1-.394,1.324l-.25,1.467-.25.93-.68.787v.143l-.787.537h-.394a1.01,1.01,0,0,1-.537-.143v.107h-.143v-.143h-.143l-.25-.537-.394-1.467v-.143l-.25-.394V54.56c-.036-.143-.072-.358-.143-.68a1.7,1.7,0,0,0-.143-.644l-.251-.787-.25-.394-.143-.394v-.68l-.143-.143v-.286a2.387,2.387,0,0,1,.787-1.718l.25.143v.143h.143l.143.394h.143v.394a5.094,5.094,0,0,1,.25.93h.143v.25h.143l.143.394.143.25.394.143a.883.883,0,0,0,.68-.68l.143-.787.143-.394a2.9,2.9,0,0,0,.143-.68,2.9,2.9,0,0,0,.143-.68l.25-1.181.25-1.324c0-.036.036-.107.072-.25a1.106,1.106,0,0,0,.072-.286l.25-.537V44.54l.251-1.861.25-1.718.25-.787v-.25a1.362,1.362,0,0,0-.143-.68,2.372,2.372,0,0,0,.537-1.073,1.921,1.921,0,0,0-.143-.537v-.394l.25-.394.143-.787.394-.68-.143-.787a2.331,2.331,0,0,0,.394-1.073V32.2l.25-1.467v-1l.143-.143-.143-.394.394-1.467v-.68l.25-.93.25-3.328.25-.787.25-2.648v-.644a8.435,8.435,0,0,1,.25-1.181v-.537a8.165,8.165,0,0,0,.251-2.254V14.34h.143v-.25l-.143-.143v-.787l-.143-1.181-.143-1.073v-2.4l-.251-1.073v-.68a3.12,3.12,0,0,1,.143-1.073h.143c.215-.787.5-1.181.787-1.181h.5Zm26.3,18.857.68.25.25.394v.787a4.216,4.216,0,0,0,.394,2l.68-.25V26.4l.787-.394.537-.68a4.28,4.28,0,0,1,1.324-.93l.25.143c.036.143.215.25.537.394l.394.394.143-.143.143.143v.143l.251.537-.68,1.324-.537,1.181v.537l-.537,1.324-.143.93-.143.537a8.428,8.428,0,0,1-.25,1.181v.537h-.107l-.143.25.143.25V34.2l-.143.394-.251,1.718v1.36l-.143.25v.68l-.25,2.111v.143c0,.072.072.68.25,1.718.429-.215.68-.394.68-.537l.25-.394.68-.68.25-.537a1.411,1.411,0,0,1,.072-.215.508.508,0,0,0,.072-.215h.143l.25-.394v-.143h.143l.68-1.467.537-1.073.25-3.042h.143a4.871,4.871,0,0,1,.143-.608,3.035,3.035,0,0,1,.143-.608,2.761,2.761,0,0,1,.072-.537l.072-.25.251-.787.25-1.073.107-.286a1.824,1.824,0,0,0,.143-.394,4.321,4.321,0,0,1,.537-1.324l.537-.93.394-.93.537-.68.143-.25.394-.394a1.987,1.987,0,0,1,1.324-.68l.787.25.25.25a2.421,2.421,0,0,1,1.324,2.4l-.143.143v1.861a4.317,4.317,0,0,1-.394,1.861l-.143.394h-.143v.143h-.143l-.143.537H243.4l-.25.394-.537.25-.537-.25-.251-.394.143-.537-.143-.25.143-.25h.143l.537-1.181v-.68l.143-.25.537-.787V26.828l-.143-.537v-.25l-.251-.394a2.066,2.066,0,0,0-.93.394l-.394.68-.251.787-.394.537-.25,1.073-.537,1.324-.143.93-.25,1.181v.394l.143.68a2.148,2.148,0,0,0-.25,1.181v.537a3.274,3.274,0,0,1-.036.573c-.036.215-.036.358-.072.5a.945.945,0,0,0-.036.25v.143l.25,1.61v.68l.143.537.251,1.181a1.4,1.4,0,0,0,.072.215.508.508,0,0,1,.072.215.572.572,0,0,1,.143.394l.68,1.181h.394l1.324-1.861H243l.394-.787.143-.394a2.089,2.089,0,0,0,.394-1.073h.143v-.143l.25-.25.787-2a14.045,14.045,0,0,0,1.61-5.976h.143v-.787l.143-1.073v-.537l.143-.394.394-2L247.8,25l.143-.537.143-.143a2.111,2.111,0,0,0,.286-.143.855.855,0,0,0,.25-.107.454.454,0,0,1,.215-.036l1.073.143h.394l.251.394a.446.446,0,0,1-.143.394v1.073l-.394,2.254-.143,1.181-.143.25v.68l-.251,1.61v.537a4.887,4.887,0,0,1-.143.608q-.054.322-.107.537a1.89,1.89,0,0,0-.036.465,5.9,5.9,0,0,1-.143,2v.25l-.143.394.25,3.578v.143L249.3,42l.143.25h.143l.537-.787,1.181-3.042.143-.68h.143a10.645,10.645,0,0,0,.68-3.864l.143-2.934.394-2.648.25-2.648.25-.573.394-.25,1.718-.143.537.25-.143.537-.143,1.718-.25.537a2.3,2.3,0,0,0-.143,1.073v.394l-.143.143v.93a4.823,4.823,0,0,1-.143,1.181h.143v2h-.143l-.143,1.073v3.042a11.257,11.257,0,0,1,.143,1.467.743.743,0,0,1-.143.537l.25,2.791.251.25.394-.143.537-2.254,1.073-3.578v-.107h.143v-.143l.537-1.861h.143l.143-.787h.143l.143-.394.143-.25a3.34,3.34,0,0,1,.394-1.324h.143l.143-.68V30.55h.143l.394-1.181.394-.787.143-.394v-.537l.68-1.61.143-.787c0-.358.358-.608,1.074-.787l.394.25V25.9l-.25,1.324L262.4,28.3l-.143,2.648v.25a7.484,7.484,0,0,0,.143,1.718,3.045,3.045,0,0,1,.143.787v.394a.8.8,0,0,1,.143.537l.537,3.042.25.143.787.394.787.143a2.258,2.258,0,0,1,.68.25l.68.394a.651.651,0,0,0,.394.143v.143l.394.25.143.537-.251.25-.537.143a1.54,1.54,0,0,1-.68-.68l-.394-.143-1.181-.25-.25-.143-.394-.25h-.143l.143.93c.25,1.324.394,2.04.394,2.111a.63.63,0,0,1-.036.215c-.036.107-.036.286-.072.5a4.564,4.564,0,0,0-.036.716v.394l-.25.787h-.143l-.143.787-.25.25-.143.537-.25.143v.143l-.537.537h-.143a.8.8,0,0,1-.537.143,3.072,3.072,0,0,1-1.61-.537c-.107-.072-.179-.143-.25-.143v-.143l-.537-.537-.143-.143-.537-.68h-.143a4.256,4.256,0,0,0-.68-1.61.446.446,0,0,0-.143-.394,1.173,1.173,0,0,1-.143-.68h-.143l-.286,1.36h-.143l-.787,1.718h-.143l-.143.537-.537.68a1.224,1.224,0,0,1-1.181.68l-.93-.68-.537-1.61-.143-1.181-.143-.537-.143-1.181V40.783l-.143-.537h-.143l-.394.68-.787,2v.537a2.2,2.2,0,0,0-.537.93h-.143l-.143.394-.394.93Q248.3,46.9,247.761,46.9a1.326,1.326,0,0,1-.68-.25,3.357,3.357,0,0,1-.68-.787l-.394-1.467V43.324l-.143-2.541.143-.68-.143-.537V38.243a4.213,4.213,0,0,0,.143-1.324l-.25.537h-.143v.68l-.394.394-.25,1.073h-.143a1.407,1.407,0,0,1-.072.215.508.508,0,0,0-.072.215,1.5,1.5,0,0,0-.143.537v.25a22.654,22.654,0,0,0-1.181,2.541c0,.25-.036.394-.143.394a2.065,2.065,0,0,1-.394.93l-.143.25-.25.394-.537.537a1.693,1.693,0,0,1-.68.787l-1.324,1.181h-.25a1.458,1.458,0,0,1-.25-.072c-.143-.036-.215-.072-.251-.072a2.326,2.326,0,0,1-1.181-1.324l-.25-.68-.68-2.4a7.294,7.294,0,0,1-.25-1.718V40.5h-.143l-.25.68h-.143l-.25,1.073h-.143l-.93,2.111-.394.394-.537,1.181h-.143v.25l-.143.143-.143.143-.143.25-.537.25v.143h-.143v.143l-.537.25-.394.143-.68-.68-.25-.537a1.967,1.967,0,0,1-.25-.68l-.143-.68-.25-.93a4.575,4.575,0,0,1-.143-1.181V41.785l.25-1.61v-.93c0-.179.036-.25.143-.25l.143-.787.68-3.471a2.263,2.263,0,0,1,.143-.322c.036-.143.107-.322.215-.608.072-.25.143-.5.215-.68a16.226,16.226,0,0,0,.537-1.718l.251-1.073a7.748,7.748,0,0,1-1.467.787,1.408,1.408,0,0,0-.215.072.509.509,0,0,1-.215.072h-.143l-.537-.143-.143-.143-.25-.394-.25,1.467-.143.394a4.11,4.11,0,0,0-.143,1.181v.751l-.251,1.073v.787l-.25,1.324V38.1l-.143.394v.25l-.143.537-.143,1.073-.143,1.181v.537l-.143.537-.25,1.61c0,.036-.143.394-.394,1.073a4.992,4.992,0,0,1-1.073,2,1.968,1.968,0,0,1-.68.25c-.322,0-.68-.25-1.074-.787l-.394-.68-.25-.394-.25-.537-.68-1.324-.25.143v.143l-.143.25h-.143l-.25.394h-.143l-.143.394h0l-.143.394h-.143l-.394.68-.143.143-.537.537a2.108,2.108,0,0,0-.286.143.583.583,0,0,0-.215.107.215.215,0,0,1-.143.036c-.716,0-1.324-.68-1.789-2.111a15.741,15.741,0,0,1-.716-5.224,18.712,18.712,0,0,1,.537-5.332l.68-3.328.25-1.324.537-1.073a1.407,1.407,0,0,1,.072-.215.509.509,0,0,0,.072-.215l.394-1.181.25-.537,1.073-1.324c.358-.608.751-.93,1.181-.93.036,0,.394.143,1.073.394l.787.93.537-.25a.572.572,0,0,0,.394.143l.394.394-.143.93.143.394a.891.891,0,0,0-.25.68v.93a3.482,3.482,0,0,0-.537,2v1.574l-.143.143v2.934a44.338,44.338,0,0,0,.787,5.725h.143l.394.93.25-.537.25-1.467.394-1.861v-.429l.394-2a.572.572,0,0,0,.143-.394,1.01,1.01,0,0,0-.143-.537,2.917,2.917,0,0,0,.25-1.324V33.3h.143l.143-1.073.143-.394.25-1.467.25-.93a.806.806,0,0,1,.036-.25,5.615,5.615,0,0,0,.107-.573,5.555,5.555,0,0,1,.143-.751v-.787l.394-3.328h.143v-.143Zm-8.516,5.332-.143.537-.143,1.181h-.107l-.143.93v.394l-.143.394-.251,1.324.143.787V35.7a1.5,1.5,0,0,0-.143.537v.143l-.143.394v.394a3.39,3.39,0,0,1,.143.93v1.718l.143.68.143,1.073v.787a1.363,1.363,0,0,0,.25.787.651.651,0,0,1,.143.394,1.969,1.969,0,0,0,1.073-1.073,5.082,5.082,0,0,0,.68-2.4v-2l.143-.787V35.165l.143-.394V33.448l.251-2v-.537h-.143l.394-1.467a5.558,5.558,0,0,1,.143-1.324,1.5,1.5,0,0,0,.143-.537,1.362,1.362,0,0,0-.143-.68h-.25l-.143-.25v-.5l-.143-.25a1.033,1.033,0,0,0-.823.286,7.97,7.97,0,0,0-.644,1.574Zm38.824,4.222V33.2l-.143.394-.251.93-.537,1.861-.25.93-.143.25-.25,1.467a.446.446,0,0,0,.394-.143,2.935,2.935,0,0,0,1.324-.68,5.558,5.558,0,0,1-.143-1.324V34.629l.143-.25v-1.36Zm.25,6.8h-.143l-.394.143-.143.143-.143.143v.143h-.143v.143H259.1v.143h-.072a2.714,2.714,0,0,0-.394,1.467.446.446,0,0,0,.143.394c.322,1,.787,1.61,1.467,1.718h.143l.143-.143a7.55,7.55,0,0,0,.143-1.181,8.165,8.165,0,0,0-.143-1.61,1.4,1.4,0,0,0-.072-.215.51.51,0,0,1-.072-.215v-.93Z" transform="translate(-94.133 8.111)"/>
    </g>
  </g>
</svg>
