<!-- Generated by IcoMoon.io -->
<svg version="1.1" xmlns="http://www.w3.org/2000/svg" width="32" height="32" viewBox="0 0 32 32">
<title>Password_Expired</title>
<path fill="#505050" d="M20.184 22.892h-8.368c-1.088 0-1.74-0.652-1.74-1.74v-6.762c0-1.235 0.59-1.828 1.854-1.861h0.068c0.095 0 0.179-0.029 0.28-0.039 0-0.114 0-0.228 0-0.326 0-0.326 0-0.622 0-0.945 0.024-1.812 1.307-3.317 3.012-3.684l0.025-0.005c0.21-0.042 0.452-0.067 0.7-0.067 1.557 0 2.89 0.961 3.436 2.323l0.009 0.025c0.156 0.465 0.27 1.007 0.318 1.567l0.002 0.026c0.010 0.164 0.016 0.355 0.016 0.547s-0.006 0.384-0.017 0.574l0.001-0.026h0.45c0.035-0.003 0.077-0.004 0.118-0.004 0.85 0 1.542 0.672 1.576 1.513l0 0.003v7.11c0 1.108-0.648 1.769-1.74 1.769zM12.442 12.79c-0.138 0.004-0.27 0.021-0.398 0.052l0.013-0.003-0.095 0.016c-1.114 0.029-1.561 0.476-1.561 1.535v6.762c0 0.912 0.502 1.414 1.414 1.414h8.368c0.912 0 1.414-0.512 1.414-1.444v-7.11c-0.016-0.347-0.174-0.655-0.416-0.869l-0.001-0.001c-0.224-0.204-0.523-0.328-0.851-0.328-0.028 0-0.057 0.001-0.084 0.003l0.004-0h-0.805v-0.173c0.014-0.184 0.022-0.398 0.022-0.614s-0.008-0.43-0.024-0.643l0.002 0.028c-0.043-0.556-0.148-1.072-0.307-1.563l0.013 0.048c-0.51-1.254-1.718-2.122-3.13-2.122-0.228 0-0.45 0.023-0.665 0.066l0.022-0.004c-1.581 0.334-2.756 1.704-2.786 3.353l-0 0.003c-0.020 0.326 0 0.613 0 0.925 0 0.163 0 0.326 0 0.502v0.163zM18.248 12.767h-4.562v-0.169c0-0.218 0-0.446 0-0.652-0.016-0.129-0.025-0.279-0.025-0.431 0-0.46 0.083-0.902 0.235-1.309l-0.008 0.026c0.338-0.793 1.077-1.355 1.956-1.433l0.009-0.001c0.052-0.004 0.112-0.006 0.172-0.006 1.261 0 2.294 0.976 2.385 2.214l0 0.008c0.020 0.362 0 0.704 0 1.066 0 0.179 0 0.365 0 0.554h-0.163zM14.012 12.442h4.073c0-0.124 0-0.248 0-0.368 0-0.355 0-0.691 0-1.040-0.079-1.074-0.97-1.915-2.057-1.915-0.052 0-0.104 0.002-0.156 0.006l0.007-0c-0.766 0.060-1.408 0.536-1.706 1.199l-0.005 0.013c-0.118 0.335-0.187 0.721-0.187 1.123 0 0.161 0.011 0.32 0.032 0.476l-0.002-0.018c0 0.173 0 0.349 0 0.525z"></path>
<path fill="#505050" d="M13.765 18.053l-1.444-1.33c-0.042-0.041-0.068-0.099-0.068-0.163s0.026-0.122 0.068-0.163l0-0c0.041-0.043 0.099-0.070 0.163-0.070s0.122 0.027 0.163 0.070l0 0 1.114 1.026 1.056-1.131c0.041-0.042 0.099-0.068 0.163-0.068s0.121 0.026 0.163 0.068l0 0c0.041 0.042 0.067 0.099 0.067 0.163s-0.026 0.121-0.067 0.163v0z"></path>
<path fill="#505050" d="M13.732 17.779c-0 0-0 0-0 0-0.123 0-0.223-0.097-0.228-0.218l-0-0c-0.002-0.043-0.004-0.093-0.004-0.143 0-0.992 0.536-1.858 1.334-2.326l0.013-0.007c0.978-0.58 2.353-0.163 2.408-0.143 0.095 0.029 0.163 0.116 0.163 0.219 0 0.023-0.003 0.046-0.010 0.067l0-0.002c-0.030 0.095-0.118 0.163-0.221 0.163-0.023 0-0.046-0.004-0.067-0.010l0.002 0s-1.248-0.378-2.043 0.098c-0.675 0.39-1.122 1.108-1.122 1.931 0 0.049 0.002 0.097 0.005 0.145l-0-0.007c0 0.003 0 0.006 0 0.010 0 0.122-0.097 0.221-0.218 0.225h-0z"></path>
<path fill="#505050" d="M17.271 19.145c-0.062-0-0.118-0.025-0.16-0.065l0 0c-0.042-0.041-0.068-0.099-0.068-0.163s0.026-0.122 0.068-0.163l0-0 1.385-1.431 1.44 1.336c0.042 0.042 0.067 0.099 0.067 0.163 0 0.127-0.103 0.23-0.23 0.23-0.064 0-0.121-0.026-0.163-0.067v0l-1.111-1.030-1.075 1.108c-0.037 0.046-0.091 0.076-0.152 0.081l-0.001 0z"></path>
<path fill="#505050" d="M16.124 20.598c-0.408-0.003-0.802-0.062-1.174-0.171l0.030 0.008c-0.094-0.029-0.162-0.116-0.162-0.218 0-0.126 0.102-0.228 0.228-0.228 0.024 0 0.047 0.004 0.068 0.010l-0.002-0s1.248 0.375 2.043-0.098c0.675-0.391 1.122-1.11 1.122-1.933 0-0.048-0.002-0.096-0.005-0.143l0 0.006c0-0.126 0.102-0.228 0.228-0.228s0.228 0.102 0.228 0.228v0c0.002 0.043 0.004 0.093 0.004 0.143 0 0.991-0.534 1.857-1.331 2.326l-0.013 0.007c-0.338 0.184-0.74 0.292-1.168 0.292-0.035 0-0.070-0.001-0.105-0.002l0.005 0z"></path>
<path fill="#505050" d="M16 32c-8.837 0-16-7.163-16-16s7.163-16 16-16c8.837 0 16 7.163 16 16v0c-0.009 8.833-7.167 15.991-15.999 16h-0.001zM16 0.456c-8.585 0-15.544 6.959-15.544 15.544s6.959 15.544 15.544 15.544c8.585 0 15.544-6.959 15.544-15.544v0c-0.011-8.58-6.964-15.533-15.543-15.544h-0.001z"></path>
</svg>
