<svg xmlns="http://www.w3.org/2000/svg" viewBox="0 0 58.838 19.83">
  <defs>
    <style>
      .cls-1 {
        fill: #d53560;
      }
    </style>
  </defs>
  <g id="Pinpad_Battery_Level" data-name="Pinpad Battery Level" transform="translate(-1264.682 -39.995)">
    <g id="Symbol_109_1" data-name="Symbol 109 – 1" transform="translate(-106 -5.082)">
      <path id="Path_1994" data-name="Path 1994" class="cls-1" d="M9.12,12.608h9.968v13.12H9.12Z" transform="translate(1381.238 35.826)"/>
      <path id="Path_1995" data-name="Path 1995" d="M45.179,12.078V29.317H8.428V12.078Zm.6-1.294H7.77a.632.632,0,0,0-.6.647V29.964a.632.632,0,0,0,.6.647H45.837a.632.632,0,0,0,.6-.647V11.372a.6.6,0,0,0-.657-.588Z" transform="translate(1379.849 34.296)"/>
      <path id="Path_1996" data-name="Path 1996" d="M32.617,15.31v5.354H30.645V15.31Zm.329-1.294h-2.63a.9.9,0,0,0-.876.941v6.06a.9.9,0,0,0,.876.941h2.629a.9.9,0,0,0,.876-.941v-6.06a.9.9,0,0,0-.876-.941Z" transform="translate(1395.698 37.007)"/>
    </g>
    <path id="Path_1997" data-name="Path 1997" d="M1.463,22.12V28.6H0V11.936H4.038A8.218,8.218,0,0,1,6.2,12.25a4.142,4.142,0,0,1,1.58.943,5.086,5.086,0,0,1,1,1.507,5.8,5.8,0,0,1,.351,2.012,6.529,6.529,0,0,1-.351,2.137,5.234,5.234,0,0,1-1.112,1.7A5.343,5.343,0,0,1,5.911,21.68a5.809,5.809,0,0,1-2.282.377l-2.165.063Zm0-8.8v7.355H3.511a4.19,4.19,0,0,0,3.043-1.006A3.846,3.846,0,0,0,7.607,16.84c0-2.326-1.287-3.52-3.862-3.52H1.463Z" transform="translate(1264.682 29.408)"/>
  </g>
</svg>
