<svg id="Layer_1" data-name="Layer 1" xmlns="http://www.w3.org/2000/svg" viewBox="0 0 100 100"><defs><style>.cls-1{fill:#10110d;}</style></defs><title>Pinpad Battery Level </title><rect x="31.68" y="39.68" width="40.41" height="20.64"/><path class="cls-1" d="M90.28,36.44V63.56H28.16V36.44H90.28m1-2H27.11a1,1,0,0,0-1,1V64.61a1,1,0,0,0,1,1H91.33a1,1,0,0,0,1-1V35.39a1,1,0,0,0-1-1Z"/><path class="cls-1" d="M95.83,45.8v8.41H92.47V45.8h3.36m.55-2H91.92a1.45,1.45,0,0,0-1.45,1.45v9.51a1.45,1.45,0,0,0,1.45,1.45h4.46a1.45,1.45,0,0,0,1.45-1.45V45.25a1.45,1.45,0,0,0-1.45-1.45Z"/><path d="M7.65,52.76v9.57H5.36V37.73h6.35a11.21,11.21,0,0,1,3.43.48,7,7,0,0,1,2.52,1.39,5.84,5.84,0,0,1,1.56,2.23,8,8,0,0,1,.53,3,8.19,8.19,0,0,1-.6,3.16,7.14,7.14,0,0,1-1.72,2.5,7.93,7.93,0,0,1-2.74,1.65,10.55,10.55,0,0,1-3.65.59Zm0-12.93V50.66H10.9a7,7,0,0,0,4.82-1.47A5.31,5.31,0,0,0,17.37,45q0-5.2-6.07-5.2Z"/></svg>