<svg xmlns="http://www.w3.org/2000/svg" viewBox="-4745.983 -19494.002 42.503 19.828">
  <defs>
    <style>
      .cls-1 {
        fill: #d53560;
      }
    </style>
  </defs>
  <g id="Symbol_109_1" data-name="Symbol 109 – 1" transform="translate(-6133 -19539.082)">
    <path id="Path_1994" data-name="Path 1994" class="cls-1" d="M9.12,12.608h9.968v13.12H9.12Z" transform="translate(1381.238 35.826)"/>
    <path id="Path_1995" data-name="Path 1995" d="M45.179,12.078V29.317H8.428V12.078Zm.6-1.294H7.77a.632.632,0,0,0-.6.647V29.964a.632.632,0,0,0,.6.647H45.837a.632.632,0,0,0,.6-.647V11.372a.6.6,0,0,0-.657-.588Z" transform="translate(1379.849 34.296)"/>
    <path id="Path_1996" data-name="Path 1996" d="M32.617,15.31v5.354H30.645V15.31Zm.329-1.294H30.316a.9.9,0,0,0-.876.941v6.06a.9.9,0,0,0,.876.941h2.629a.9.9,0,0,0,.876-.941v-6.06A.9.9,0,0,0,32.945,14.016Z" transform="translate(1395.698 37.007)"/>
  </g>
</svg>
