<svg xmlns="http://www.w3.org/2000/svg" viewBox="0 0 120 120">
    <defs>
        <style>
            .cls-1,.cls-2,.cls-3,.cls-6{fill:none}.cls-1,.cls-2,.cls-3{stroke:#505050;stroke-miterlimit:10;stroke-width:2px}.cls-1{stroke-linecap:round}.cls-1,.cls-3{stroke-linejoin:round}.cls-4{fill:#505050;stroke:#fff;stroke-width:.3px;font-size:22px;font-family:Roboto-Regular,Roboto}.cls-5{stroke:none}
        </style>
    </defs>
    <g id="Print_To_Register" transform="translate(-2501 -428)">
        <g id="SVGID_1_" class="cls-1" transform="translate(2501 428)">
            <circle cx="60" cy="60" r="60" class="cls-5"/>
            <circle cx="60" cy="60" r="59" class="cls-6"/>
        </g>
        <path id="Path_4453" d="M75.472 36.5H79.9a4.6 4.6 0 0 1 4.631 4.615v45.641a4.6 4.6 0 0 1-4.631 4.616H38.731a4.6 4.6 0 0 1-4.631-4.616V41.115a4.6 4.6 0 0 1 4.631-4.615h4.22" class="cls-2" data-name="Path 4453" transform="translate(2501.273 428.115)"/>
        <path id="Path_4454" d="M47.2 62.038h-4.43a2.5 2.5 0 0 1-2.47-2.462v-.615a2.5 2.5 0 0 1 2.47-2.461h4.43a2.5 2.5 0 0 1 2.47 2.462v.615a2.5 2.5 0 0 1-2.47 2.461z" class="cls-2" data-name="Path 4454" transform="translate(2501.454 429.628)"/>
        <path id="Path_4455" d="M60.8 62.038h-4.43a2.5 2.5 0 0 1-2.47-2.462v-.615a2.5 2.5 0 0 1 2.47-2.461h4.43a2.5 2.5 0 0 1 2.47 2.462v.615a2.373 2.373 0 0 1-2.47 2.461z" class="cls-2" data-name="Path 4455" transform="translate(2501.852 429.628)"/>
        <path id="Path_4456" d="M74.6 62.038h-4.53a2.5 2.5 0 0 1-2.47-2.462v-.615a2.5 2.5 0 0 1 2.47-2.461h4.43a2.5 2.5 0 0 1 2.47 2.462v.615a2.349 2.349 0 0 1-2.37 2.461z" class="cls-2" data-name="Path 4456" transform="translate(2502.251 429.628)"/>
        <path id="Path_4457" d="M47.2 73.038h-4.43a2.5 2.5 0 0 1-2.47-2.462v-.615a2.5 2.5 0 0 1 2.47-2.461h4.43a2.5 2.5 0 0 1 2.47 2.462v.615a2.5 2.5 0 0 1-2.47 2.461z" class="cls-2" data-name="Path 4457" transform="translate(2501.454 429.91)"/>
        <path id="Path_4458" d="M60.8 73.038h-4.43a2.5 2.5 0 0 1-2.47-2.462v-.615a2.5 2.5 0 0 1 2.47-2.461h4.43a2.5 2.5 0 0 1 2.47 2.462v.615a2.373 2.373 0 0 1-2.47 2.461z" class="cls-2" data-name="Path 4458" transform="translate(2501.852 429.91)"/>
        <path id="Path_4459" d="M47.2 84.038h-4.43a2.5 2.5 0 0 1-2.47-2.462v-.615a2.5 2.5 0 0 1 2.47-2.461h4.43a2.5 2.5 0 0 1 2.47 2.462v.615a2.5 2.5 0 0 1-2.47 2.461z" class="cls-2" data-name="Path 4459" transform="translate(2501.454 430.192)"/>
        <path id="Path_4460" d="M60.8 84.038h-4.43a2.5 2.5 0 0 1-2.47-2.462v-.615a2.5 2.5 0 0 1 2.47-2.461h4.43a2.5 2.5 0 0 1 2.47 2.462v.615a2.373 2.373 0 0 1-2.47 2.461z" class="cls-2" data-name="Path 4460" transform="translate(2501.852 430.192)"/>
        <path id="Path_4461" d="M74.8 67.9h-1.028a2.28 2.28 0 0 0-2.264 2.256v8.41h-1.544a2.28 2.28 0 0 0-2.264 2.257v1.026a2.28 2.28 0 0 0 2.264 2.251H74.9a2.28 2.28 0 0 0 2.264-2.256v-11.9A2.438 2.438 0 0 0 74.8 67.9z" class="cls-3" data-name="Path 4461" transform="translate(2502.254 429.92)"/>
        <path id="Path_4462" d="M73.257 53.828H44.544A1.58 1.58 0 0 1 43 52.29V26.238a1.58 1.58 0 0 1 1.544-1.538h28.713a1.58 1.58 0 0 1 1.543 1.538V52.29a1.456 1.456 0 0 1-1.543 1.538z" class="cls-2" data-name="Path 4462" transform="translate(2501.533 425.813)"/>
        <text id="_" class="cls-4" data-name="$" transform="translate(2553.932 472.73)">
            <tspan x="0" y="0">$</tspan>
        </text>
    </g>
</svg>
