<svg id="Layer_1" data-name="Layer 1" xmlns="http://www.w3.org/2000/svg" viewBox="0 0 100 100"><defs><style>.cls-1{fill:#505050;}</style></defs><title>Product Search</title><g id="SVGID"><path class="cls-1" d="M50,98.6A48.6,48.6,0,1,1,98.4,50,48.55,48.55,0,0,1,50,98.6ZM50,2.8A47.2,47.2,0,1,0,97,50,47.15,47.15,0,0,0,50,2.8Z"/></g><g id="SVGID-2" data-name="SVGID"><path class="cls-1" d="M59,52.3a7.21,7.21,0,1,1-7.18,7.21A7.2,7.2,0,0,1,59,52.3m0-1.4a8.61,8.61,0,1,0,8.58,8.61A8.59,8.59,0,0,0,59,50.9Z"/></g><path class="cls-1" d="M71.29,72.72a.7.7,0,0,1-.48-.2l-6.34-6.1a.7.7,0,1,1,1-1l6.34,6.1a.7.7,0,0,1-.48,1.21Z"/><path class="cls-1" d="M29.55,62.38a.7.7,0,0,1-.7-.7v-30a.7.7,0,1,1,1.4,0v30A.7.7,0,0,1,29.55,62.38Z"/><path class="cls-1" d="M34.92,62.38a.7.7,0,0,1-.7-.7v-30a.7.7,0,1,1,1.4,0v30A.7.7,0,0,1,34.92,62.38Z"/><path class="cls-1" d="M40.3,62.38a.7.7,0,0,1-.7-.7v-30a.7.7,0,1,1,1.4,0v30A.7.7,0,0,1,40.3,62.38Z"/><path class="cls-1" d="M45.67,62.38a.7.7,0,0,1-.7-.7v-30a.7.7,0,1,1,1.4,0v30A.7.7,0,0,1,45.67,62.38Z"/><path class="cls-1" d="M72.54,62.38a.7.7,0,0,1-.7-.7v-30a.7.7,0,1,1,1.4,0v30A.7.7,0,0,1,72.54,62.38Z"/><path class="cls-1" d="M51.74,51V31.72a.7.7,0,0,0-1.4,0V52.44A11.85,11.85,0,0,1,51.74,51Z"/><path class="cls-1" d="M57.12,31.72a.7.7,0,1,0-1.4,0V48.85a11.69,11.69,0,0,1,1.4-.35Z"/><path class="cls-1" d="M62.49,31.72a.7.7,0,0,0-1.4,0V48.43a11.74,11.74,0,0,1,1.4.3Z"/><path class="cls-1" d="M67.87,52V31.72a.7.7,0,0,0-1.4,0v19A11.83,11.83,0,0,1,67.87,52Z"/></svg>