<svg xmlns="http://www.w3.org/2000/svg" viewBox="-4620.53 -3434 82 82">
  <defs>
    <style>
      .cls-1 {
        fill: none;
        stroke: #fff;
        stroke-width: 2px;
      }

      .cls-2 {
        fill: #fff;
      }
    </style>
  </defs>
  <g id="Symbol_137_1" data-name="Symbol 137 – 1" transform="translate(-6058 -3557.688)">
    <path id="Path_2871" data-name="Path 2871" class="cls-1" d="M40,0A40,40,0,0,1,80,40a40.742,40.742,0,0,1-1.194,9.738A40,40,0,1,1,40,0Z" transform="translate(1438.47 124.688)"/>
    <g id="Group_176" data-name="Group 176" transform="translate(1459.559 145.531)">
      <path id="Path_596" data-name="Path 596" class="cls-2" d="M692.645,362.417l-6.8-6.63a9.481,9.481,0,0,0,2.155-6.04,9.962,9.962,0,0,0-10.1-9.847,10.425,10.425,0,0,0-3.569.656,11.753,11.753,0,0,0-2.357,1.247,9.775,9.775,0,0,0-4.175,7.943,13.352,13.352,0,0,0,.27,2.3,7.227,7.227,0,0,0,1.077,2.626,10.22,10.22,0,0,0,14.948,2.823l6.8,6.63a1.131,1.131,0,0,0,.875.328,1.3,1.3,0,0,0,.875-.328A1.206,1.206,0,0,0,692.645,362.417Zm-9.292-7.615c-.067.066-.135.066-.2.131s-.067.131-.135.2a7.609,7.609,0,0,1-5.184,2.035,7.355,7.355,0,1,1,7.541-7.352A6.845,6.845,0,0,1,683.353,354.8Z" transform="translate(-651.169 -322.832)"/>
      <g id="Group_28" data-name="Group 28" transform="translate(0)">
        <path id="Path_597" data-name="Path 597" class="cls-2" d="M700.273,345.411a.413.413,0,0,1-.269-.066c-.135-.131-.269-.328-.4-.46V314.622a.741.741,0,0,1,1.481,0v30.132A.86.86,0,0,1,700.273,345.411Z" transform="translate(-661.558 -313.9)"/>
        <path id="Path_598" data-name="Path 598" class="cls-2" d="M672.277,332.281l.4-.2V314.622a.741.741,0,0,0-1.481,0v18.316C671.6,332.675,671.941,332.478,672.277,332.281Z" transform="translate(-652.28 -313.9)"/>
        <path id="Path_599" data-name="Path 599" class="cls-2" d="M679.041,330.312a2.931,2.931,0,0,1,.741-.131V314.622a.741.741,0,0,0-1.481,0v15.952A3.335,3.335,0,0,1,679.041,330.312Z" transform="translate(-654.6 -313.9)"/>
        <path id="Path_600" data-name="Path 600" class="cls-2" d="M693.612,333.332l.269.263V314.622a.741.741,0,0,0-1.481,0v17.856A4,4,0,0,1,693.612,333.332Z" transform="translate(-659.206 -313.9)"/>
        <path id="Path_601" data-name="Path 601" class="cls-2" d="M686.847,330.443a4.019,4.019,0,0,0-1.212-.263c-.067,0-.067-.066-.135-.066V314.622a.741.741,0,0,1,1.481,0l-.134,15.821c.067-.066,0-.066,0,0Z" transform="translate(-656.952 -313.9)"/>
        <path id="Path_602" data-name="Path 602" class="cls-2" d="M664.3,314.622v30.132a.741.741,0,0,0,1.481,0V314.622a.741.741,0,0,0-1.481,0Z" transform="translate(-650.026 -313.9)"/>
        <path id="Path_603" data-name="Path 603" class="cls-2" d="M657.2,314.622v30.132a.741.741,0,0,0,1.481,0V314.622a.741.741,0,0,0-1.481,0Z" transform="translate(-647.707 -313.9)"/>
        <path id="Path_604" data-name="Path 604" class="cls-2" d="M650.2,314.622v30.132a.741.741,0,0,0,1.481,0V314.622a.741.741,0,0,0-1.481,0Z" transform="translate(-645.42 -313.9)"/>
        <path id="Path_605" data-name="Path 605" class="cls-2" d="M643.1,314.622v30.132a.741.741,0,0,0,1.481,0V314.622a.741.741,0,0,0-1.481,0Z" transform="translate(-643.1 -313.9)"/>
      </g>
    </g>
  </g>
</svg>
