<svg xmlns="http://www.w3.org/2000/svg" viewBox="0 0 81.736 81.655">
  <defs>
    <style>
      .cls-1, .cls-2 {
        fill: none;
        stroke-width: 1.5px;
      }

      .cls-1 {
        stroke: #613b8c;
      }

      .cls-2 {
        stroke: #010101;
      }
    </style>
  </defs>
  <g id="Profile" transform="translate(-1264.051 -391.276)">
    <path id="Path_2021_52_" class="cls-1" d="M1736.339,603.373a40.009,40.009,0,1,1,18.068-75.718,39.625,39.625,0,0,1,18.858,20.115,40.116,40.116,0,0,1-21.254,52.491h0A41.634,41.634,0,0,1,1736.339,603.373Z" transform="translate(-431.499 -131.192)"/>
    <path id="Path_486_46_" class="cls-2" d="M1744,572.4" transform="translate(-427.996 -127.591)"/>
    <g id="Group_4955" data-name="Group 4955" transform="translate(1288.416 410.137)">
      <path id="Path_3797" data-name="Path 3797" class="cls-1" d="M1734.188,561.139c-4.83,0-8.587-6.548-8.587-12.237,0-5.367,3.328-8.8,8.587-8.8,5.152,0,8.158,3.328,8.158,8.8C1742.346,554.7,1739.018,561.139,1734.188,561.139Z" transform="translate(-1717.764 -540.1)"/>
      <path id="Path_3798" data-name="Path 3798" class="cls-1" d="M1735.475,577.292a8.05,8.05,0,0,1-1.61,0,54.053,54.053,0,0,1-13.2-1.288,3.249,3.249,0,0,1-2.361-3.113c0-1.717.322-4.938,1.932-6.977s3.542-2.469,5.474-3.006a14.8,14.8,0,0,0,3.22-1.181c2.684-1.288,2.361-3.328,2.361-3.328" transform="translate(-1718.3 -538.756)"/>
      <path id="Path_3799" data-name="Path 3799" class="cls-1" d="M1733,577.285a8.049,8.049,0,0,0,1.61,0,54.05,54.05,0,0,0,13.2-1.288,3.249,3.249,0,0,0,2.361-3.113c0-1.717-.322-4.938-1.932-6.977s-3.542-2.469-5.474-3.006a14.791,14.791,0,0,1-3.22-1.181c-2.684-1.288-2.469-3.113-2.469-3.22" transform="translate(-1717.221 -538.749)"/>
    </g>
  </g>
</svg>
