<svg xmlns="http://www.w3.org/2000/svg" viewBox="0 0 80.107 80">
  <defs>
    <style>
      .cls-1 {
        fill: #4b2b6f;
      }

      .cls-2, .cls-3 {
        fill: none;
        stroke-width: 1.5px;
      }

      .cls-2 {
        stroke: #010101;
      }

      .cls-3 {
        stroke: #fff;
      }
    </style>
  </defs>
  <g id="Profile_Selected" transform="translate(-1400.001 -392.169)">
    <path id="Path_2021_51_" class="cls-1" d="M1871.533,603.361a39.914,39.914,0,1,1,15.67-3.112h0A41.627,41.627,0,0,1,1871.533,603.361Z" transform="translate(-431.499 -131.192)"/>
    <path id="Path_486_45_" class="cls-2" d="M1879.2,572.4" transform="translate(-428.004 -127.6)"/>
    <g id="Group_4956" data-name="Group 4956" transform="translate(1423.613 410.134)">
      <path id="Path_3800" data-name="Path 3800" class="cls-3" d="M1869.386,561.136c-4.83,0-8.586-6.547-8.586-12.235,0-5.366,3.327-8.8,8.586-8.8,5.152,0,8.157,3.327,8.157,8.8C1877.543,554.7,1874.216,561.136,1869.386,561.136Z" transform="translate(-1852.965 -540.1)"/>
      <path id="Path_3801" data-name="Path 3801" class="cls-3" d="M1870.672,577.289a8.052,8.052,0,0,1-1.61,0,54.043,54.043,0,0,1-13.2-1.288,3.249,3.249,0,0,1-2.361-3.112c0-1.717.322-4.937,1.932-6.976s3.542-2.469,5.474-3.005a14.791,14.791,0,0,0,3.22-1.181c2.683-1.288,2.361-3.327,2.361-3.327" transform="translate(-1853.5 -538.759)"/>
      <path id="Path_3802" data-name="Path 3802" class="cls-3" d="M1868.2,577.282a8.05,8.05,0,0,0,1.61,0,54.037,54.037,0,0,0,13.2-1.288,3.248,3.248,0,0,0,2.361-3.112c0-1.717-.322-4.937-1.932-6.976s-3.542-2.469-5.474-3.005a14.793,14.793,0,0,1-3.22-1.181c-2.683-1.288-2.469-3.112-2.469-3.22" transform="translate(-1852.423 -538.752)"/>
    </g>
  </g>
</svg>
