<svg xmlns="http://www.w3.org/2000/svg" viewBox="0 0 120 120">
  <defs>
    <style>
      .cls-1, .cls-4 {
        fill: none;
      }

      .cls-1 {
        stroke: #505050;
        stroke-linecap: round;
        stroke-linejoin: round;
        stroke-miterlimit: 10;
        stroke-width: 2px;
      }

      .cls-2 {
        fill: #505050;
        stroke: #fff;
      }

      .cls-3 {
        stroke: none;
      }
    </style>
  </defs>
  <g id="Group_6697" data-name="Group 6697" transform="translate(-901 -380)">
    <g id="Confirm_Email" transform="translate(-3108.701 -31.908)">
      <g id="SVGID_33_" class="cls-1" transform="translate(4009.701 411.908)">
        <ellipse class="cls-3" cx="60" cy="60" rx="60" ry="60"></ellipse>
        <ellipse class="cls-4" cx="60" cy="60" rx="59" ry="59"></ellipse>
      </g>
    </g>
    <g id="noun_1212066_cc" transform="translate(1098 424.348)">
      <g id="Group_6568" data-name="Group 6568" transform="translate(-168 -11)">
        <path id="Path_4435" data-name="Path 4435" class="cls-2" d="M63.541,10.115A10.127,10.127,0,0,0,53.426,0H10.115a10.113,10.113,0,0,0-.928,20.183V61.953a1.588,1.588,0,0,0,2.7,1.132l5.956-5.874,5.8,5.857a1.586,1.586,0,0,0,1.124.471h.005a1.591,1.591,0,0,0,1.122-.464l5.876-5.865,5.876,5.863a1.587,1.587,0,0,0,2.244,0l5.876-5.863,5.876,5.867a1.589,1.589,0,0,0,2.711-1.125V20.183A10.126,10.126,0,0,0,63.541,10.115Zm-60.364,0a6.944,6.944,0,0,1,6.01-6.869V16.983A6.943,6.943,0,0,1,3.177,10.115ZM46.89,53.841a1.588,1.588,0,0,0-2.244,0L38.769,59.7l-5.876-5.864a1.587,1.587,0,0,0-2.244,0L24.78,59.7l-5.789-5.85a1.588,1.588,0,0,0-2.244-.013l-4.382,4.321V3.177H51.177V58.122Zm7.464-36.857V3.246a6.93,6.93,0,0,1,0,13.738Z"></path>
        <path id="Path_4436" data-name="Path 4436" class="cls-2" d="M54.674,13.375H28.464a1.589,1.589,0,0,0,0,3.177H54.674a1.589,1.589,0,1,0,0-3.177Z" transform="translate(-9.798 -4.876)"></path>
        <path id="Path_4437" data-name="Path 4437" class="cls-2" d="M54.674,27.125H28.464a1.589,1.589,0,0,0,0,3.177H54.674a1.589,1.589,0,0,0,0-3.177Z" transform="translate(-9.798 -9.889)"></path>
        <path id="Path_4438" data-name="Path 4438" class="cls-2" d="M28.464,44.052H39.98a1.589,1.589,0,1,0,0-3.177H28.464a1.589,1.589,0,0,0,0,3.177Z" transform="translate(-9.798 -14.903)"></path>
        <path id="Path_4439" data-name="Path 4439" class="cls-2" d="M54.674,54.625H28.464a1.589,1.589,0,0,0,0,3.177H54.674a1.589,1.589,0,0,0,0-3.177Z" transform="translate(-9.798 -19.916)"></path>
        <path id="Path_4440" data-name="Path 4440" class="cls-2" d="M48.4,68.375H28.464a1.589,1.589,0,0,0,0,3.177H48.4a1.589,1.589,0,0,0,0-3.177Z" transform="translate(-9.798 -24.929)"></path>
      </g>
    </g>
  </g>
</svg>
