<svg xmlns="http://www.w3.org/2000/svg" viewBox="0 0 81.62 81.617">
  <defs>
    <style>
      .cls-1, .cls-2 {
        fill: none;
        stroke: #613b8c;
        stroke-width: 1.5px;
      }

      .cls-2 {
        stroke-linecap: round;
        stroke-linejoin: round;
      }
    </style>
  </defs>
  <g id="Reminder" transform="translate(-1752.25 -479.594)">
    <path id="Path_2021_1_" class="cls-1" d="M40.672,82.461a40.088,40.088,0,1,1,15.756-3.215h0A40.615,40.615,0,0,1,40.672,82.461Z" transform="translate(1752.201 478)"/>
    <line id="Line_574" data-name="Line 574" class="cls-1" x2="37.085" transform="translate(1771.329 509.871)"/>
    <line id="Line_575" data-name="Line 575" class="cls-2" y2="5.252" transform="translate(1781.19 500.439)"/>
    <line id="Line_576" data-name="Line 576" class="cls-2" y2="5.252" transform="translate(1785.799 500.224)"/>
    <line id="Line_577" data-name="Line 577" class="cls-2" y2="5.252" transform="translate(1793.73 500.224)"/>
    <line id="Line_578" data-name="Line 578" class="cls-2" y2="5.252" transform="translate(1798.125 500.224)"/>
    <path id="Path_3899" data-name="Path 3899" class="cls-1" d="M42.338,51.367v-6.86a7.861,7.861,0,0,1,8.253-7.288h0a7.934,7.934,0,0,1,4.287,1.715V26.18A2.8,2.8,0,0,0,52.2,23.5H20.58a2.654,2.654,0,0,0-2.68,2.68v23.9a2.654,2.654,0,0,0,2.68,2.68H42.016A2.967,2.967,0,0,0,42.338,51.367Z" transform="translate(1753.429 479.511)"/>
    <path id="Path_3900" data-name="Path 3900" class="cls-1" d="M58.936,53.322a2.608,2.608,0,0,1-2.572-2.572V44.64A7.958,7.958,0,0,0,49.076,36.6a7.724,7.724,0,0,0-8.253,7.288h0v6.86a2.608,2.608,0,0,1-2.572,2.572.733.733,0,0,0-.75.75v2.787a.733.733,0,0,0,.75.75h7.4a3.275,3.275,0,0,0,3.751,2.68,3.183,3.183,0,0,0,2.68-2.68h6.967a.733.733,0,0,0,.75-.75h0V54.072a.909.909,0,0,0-.857-.75Z" transform="translate(1754.837 480.451)"/>
  </g>
</svg>
