<svg xmlns="http://www.w3.org/2000/svg" viewBox="0 0 80 80">
  <defs>
    <style>
      .cls-1 {
        fill: #4b2b6f;
      }

      .cls-2, .cls-3 {
        fill: none;
        stroke: #fff;
        stroke-width: 1.5px;
      }

      .cls-2 {
        stroke-linecap: round;
        stroke-linejoin: round;
      }

      .cls-3 {
        stroke-miterlimit: 10;
      }
    </style>
  </defs>
  <g id="Reminder_Selected" transform="translate(-1854.501 -478)">
    <circle id="Ellipse_425" data-name="Ellipse 425" class="cls-1" cx="40" cy="40" r="40" transform="translate(1854.501 478)"/>
    <line id="Line_569" data-name="Line 569" class="cls-2" x2="34.185" transform="translate(1875.854 509.579)"/>
    <line id="Line_570" data-name="Line 570" class="cls-2" y2="4.912" transform="translate(1884.977 500.857)"/>
    <line id="Line_571" data-name="Line 571" class="cls-2" y2="4.912" transform="translate(1889.187 500.657)"/>
    <line id="Line_572" data-name="Line 572" class="cls-2" y2="4.912" transform="translate(1896.506 500.657)"/>
    <line id="Line_573" data-name="Line 573" class="cls-2" y2="4.912" transform="translate(1900.516 500.657)"/>
    <path id="Path_3897" data-name="Path 3897" class="cls-2" d="M146.156,50.864V44.549a7.312,7.312,0,0,1,7.619-6.717h0a7.114,7.114,0,0,1,3.91,1.6V27.606a2.482,2.482,0,0,0-2.506-2.506H126.006a2.462,2.462,0,0,0-2.406,2.506h0V49.661a2.462,2.462,0,0,0,2.406,2.506h19.749A2.015,2.015,0,0,0,146.156,50.864Z" transform="translate(1752.254 478.063)"/>
    <path id="Path_3898" data-name="Path 3898" class="cls-3" d="M163.049,53.439a2.439,2.439,0,0,1-2.406-2.406h0V45.419A7.34,7.34,0,0,0,153.927,38a7.113,7.113,0,0,0-7.619,6.717h0v6.316a2.44,2.44,0,0,1-2.406,2.406c-.4,0-.6.3-.6.7v2.506a.751.751,0,0,0,.6.7h6.817a3.047,3.047,0,0,0,3.509,2.406,3.117,3.117,0,0,0,2.406-2.406h6.416c.4,0,.6-.3.6-.7V54.14A.67.67,0,0,0,163.049,53.439Z" transform="translate(1752.303 478.095)"/>
  </g>
</svg>
