<svg id="Layer_1" data-name="Layer 1" xmlns="http://www.w3.org/2000/svg" viewBox="0 0 100 100"><defs><style>.cls-1{fill:#505050;}</style></defs><title>Sale</title><path class="cls-1" d="M50,99.1A49.1,49.1,0,1,1,99.1,50,49.16,49.16,0,0,1,50,99.1ZM50,2.3A47.7,47.7,0,1,0,97.7,50,47.75,47.75,0,0,0,50,2.3Z"/><path class="cls-1" d="M38.91,63.7a.85.85,0,0,1-.63-.25.88.88,0,0,1-.16-.77l3.36-23a1.22,1.22,0,0,1,.2-.51.82.82,0,0,1,.68-.3H57.67a.8.8,0,0,1,.65.3,1.22,1.22,0,0,1,.2.51l3.37,23.08a.86.86,0,0,1-.17.74.91.91,0,0,1-.75.25H38.91Zm.21-1H60.88L57.54,39.82H42.47Z"/><path class="cls-1" d="M50,50.93c-4.74,0-4.83-3.65-4.87-5,0-.8,0-3.2,0-3.2h1s0,2.38,0,3.17c0,2,.39,4,3.87,4s3.82-2.09,3.87-4c0-.79,0-3.17,0-3.17h1s0,2.4,0,3.2C54.83,47.28,54.75,50.93,50,50.93Z"/><path class="cls-1" d="M67.33,55.37h-.1a.82.82,0,0,1-.44-.28L66.71,55l-4.5-7.6s-.08-.24-.09-.32,0-.25,0-.25l0-.14,1-3.25a.5.5,0,0,1,1,.3l-1,3.21,0,.07,4.32,7.28.15-.07,1.76-1a.5.5,0,1,1,.51.86L68.1,55.1A1.89,1.89,0,0,1,67.33,55.37Z"/><path class="cls-1" d="M69.33,54.29a.5.5,0,0,1-.25-.93l2.11-1.25-4.29-7.31-.08-.08L63.3,44l-.11-.22A3.89,3.89,0,0,0,62,42.38a3,3,0,0,0-2.89-.18.5.5,0,1,1-.42-.91,4,4,0,0,1,3.8.22A4.45,4.45,0,0,1,64,43.13l3.24.68.21.13c.07.05.24.23.24.23l.06.08,4.47,7.63a.82.82,0,0,1,0,.52c0,.06-.08.24-.43.5l-2.21,1.31A.5.5,0,0,1,69.33,54.29Z"/><path class="cls-1" d="M65.32,47.62a1.16,1.16,0,1,1,1.16-1.16A1.16,1.16,0,0,1,65.32,47.62Zm0-1.61a.46.46,0,1,0,.46.46A.46.46,0,0,0,65.32,46Z"/></svg>