<svg xmlns="http://www.w3.org/2000/svg" viewBox="0 0 120 120">
    <defs>
        <style>
            .cls-1,.cls-2,.cls-3,.cls-4,.cls-5,.cls-6{fill:none}.cls-1,.cls-2,.cls-6{stroke-linecap:round}.cls-1,.cls-2,.cls-3,.cls-6{stroke-linejoin:round}.cls-1,.cls-4,.cls-5,.cls-6{stroke-miterlimit:10}.cls-2,.cls-3,.cls-4,.cls-5,.cls-6{stroke:#505050}.cls-2,.cls-3,.cls-6{stroke-width:2px}.cls-4{stroke-width:1.5px}.cls-7,.cls-9{fill:#505050}.cls-8,.cls-9{stroke:none}
        </style>
    </defs>
    <g id="Sale_Black" transform="translate(-900 -393)">
        <g id="SVGID_45_" class="cls-1">
            <path d="M60 0A60 60 0 1 1 0 60 60 60 0 0 1 60 0z" class="cls-8" transform="translate(900 393)"/>
            <path d="M60 2c-7.83 0-15.426 1.533-22.576 4.557a58.003 58.003 0 0 0-9.851 5.347 58.43 58.43 0 0 0-8.585 7.084 58.43 58.43 0 0 0-7.084 8.585 58.003 58.003 0 0 0-5.347 9.851C3.533 44.574 2 52.17 2 60c0 7.83 1.533 15.426 4.557 22.576a58.002 58.002 0 0 0 5.347 9.85 58.428 58.428 0 0 0 7.084 8.586 58.428 58.428 0 0 0 8.585 7.084 58.003 58.003 0 0 0 9.851 5.347C44.574 116.467 52.17 118 60 118c7.83 0 15.426-1.533 22.576-4.557a58.002 58.002 0 0 0 9.851-5.347 58.427 58.427 0 0 0 8.585-7.084 58.428 58.428 0 0 0 7.084-8.585 58.002 58.002 0 0 0 5.347-9.851C116.467 75.426 118 67.83 118 60c0-7.83-1.533-15.426-4.557-22.576a58.003 58.003 0 0 0-5.347-9.851 58.43 58.43 0 0 0-7.084-8.585 58.429 58.429 0 0 0-8.585-7.084 58.002 58.002 0 0 0-9.851-5.347C75.426 3.533 67.83 2 60 2m0-2c33.137 0 60 26.863 60 60s-26.863 60-60 60S0 93.137 0 60 26.863 0 60 0z" class="cls-9" transform="translate(900 393)"/>
        </g>
        <g id="Group_9598" data-name="Group 9598" transform="translate(935.277 426.542)">
            <path id="Path_4714" d="M482.64 292.3v6.147c-.084 3.115-.421 8.757-8.42 8.757s-8.336-5.641-8.42-8.757V292.3" class="cls-2" data-name="Path 4714" transform="translate(-449.949 -285.971)"/>
            <path id="Path_4713" d="M491.8 309.391l-3.466-23.835a2.192 2.192 0 0 0-.253-.589.493.493 0 0 0-.505-.168h-32.67a.831.831 0 0 0-.505.168 2.189 2.189 0 0 0-.253.589L447 334.644a1.06 1.06 0 0 0 .084.674c.168.253.674.168.674.168h46.815s.505 0 .674-.168a.682.682 0 0 0 .084-.674l-1.367-9.241" class="cls-3" data-name="Path 4713" transform="translate(-446.975 -284.784)"/>
        </g>
        <g id="Group_9597" data-name="Group 9597" transform="translate(970.145 448.471)">
            <path id="Path_4715" d="M494.779 313.525l3.473-.464 14.217-1.9a5.7 5.7 0 0 1 2.12-.082c.326.245.489 1.386.489 1.386l1.63 12.962a2.543 2.543 0 0 1-.163 1.223c-.245.326-1.141.489-1.141.489l-15.05 1.881-3.863.483" class="cls-4" data-name="Path 4715" transform="translate(-491.681 -310.264)"/>
            <path id="Path_4716" d="M513.679 326.47l-3.832.489a1.439 1.439 0 0 1-1.549-1.223 1.439 1.439 0 0 1 1.223-1.549l3.831-.489a1.439 1.439 0 0 1 1.549 1.223 1.439 1.439 0 0 1-1.222 1.549z" class="cls-5" data-name="Path 4716" transform="translate(-494.196 -312.611)"/>
            <path id="Path_4717" d="M493.935 310.1l-2.935.245 2.527 22.663 3.669-.408" class="cls-6" data-name="Path 4717" transform="translate(-491 -310.1)"/>
            <g id="Group_9596" data-name="Group 9596" transform="rotate(82 6.862 13.278)">
                <rect id="Rectangle_1140" width=".8" height="16" class="cls-7" data-name="Rectangle 1140" rx=".4"/>
                <rect id="Rectangle_1141" width=".8" height="14.4" class="cls-7" data-name="Rectangle 1141" rx=".4" transform="translate(3.2 1.6)"/>
            </g>
        </g>
    </g>
</svg>
