<svg xmlns="http://www.w3.org/2000/svg" viewBox="0 0 27.017 27.019">
  <defs>
    <style>
      .cls-1 {
        fill: #fff;
      }
    </style>
  </defs>
  <g id="Save" transform="translate(0.01 0.021)">
    <path id="Path_2432" data-name="Path 2432" class="cls-1" d="M0,13.449V3.1A2.894,2.894,0,0,1,3.087-.014c5.941,0,11.883-.012,17.824.025a1.806,1.806,0,0,1,1.176.478C23.594,1.922,25.064,3.4,26.5,4.9a1.859,1.859,0,0,1,.478,1.176Q27.012,14.987,27,23.9a2.894,2.894,0,0,1-3.112,3.087H3.136A2.893,2.893,0,0,1,0,23.862ZM23.129,25c1.384.2,1.985.037,1.972-1.58-.049-4.876-.012-9.764-.024-14.639a7.377,7.377,0,0,0-.086-2.609c-.306-.747-1.164-1.274-1.776-1.9s-1.25-1.262-2.009-2.021v.833c0,2.168.012,4.324,0,6.493a1.811,1.811,0,0,1-1.948,1.96c-3.822.012-7.632.012-11.454,0A1.814,1.814,0,0,1,5.831,9.554c-.012-2.3,0-4.618,0-6.922V1.909H3.283c-1.066,0-1.335.27-1.335,1.335V23.7a3.274,3.274,0,0,0,.012.49.9.9,0,0,0,.882.858,10.3,10.3,0,0,0,1.066,0V19.415A1.875,1.875,0,0,1,5.99,17.333H21.12a1.873,1.873,0,0,1,2.046,2.058C23.129,21.253,23.129,23.115,23.129,25Zm-1.923.049V19.3H5.807v5.75ZM19.27,9.615V1.946H17.359v.76c0,1.311.012,2.609,0,3.92a.987.987,0,0,1-.907,1.041.97.97,0,0,1-.992-.956c-.025-.368-.012-.735-.012-1.1V1.946H7.742V9.615Z"/>
  </g>
</svg>
