<svg xmlns="http://www.w3.org/2000/svg" viewBox="-3726.674 -7189.5 63 57.437">
    <defs>
        <style>
            .cls-1{fill:none;stroke:#613b8c;stroke-miterlimit:10;stroke-width:3px}
        </style>
    </defs>
    <g id="Scan_Item" transform="translate(-3725.174 -7188)">
        <g id="Group_5001" data-name="Group 5001">
            <path id="Path_2939_3_" d="M1714.7 1690.647V1679.6h10.952" class="cls-1" transform="translate(-1714.7 -1679.44)"/>
            <path id="Path_2940_3_" d="M1745.5 1679.5h10.952v11.047" class="cls-1" transform="translate(-1696.611 -1679.5)"/>
            <path id="Path_2941_3_" d="M1756.552 1706.6v11.048H1745.6" class="cls-1" transform="translate(-1696.552 -1663.211)"/>
            <path id="Path_2942_3_" d="M1725.752 1717.647H1714.8V1706.6" class="cls-1" transform="translate(-1714.641 -1663.211)"/>
            <path id="Line_49_3_" d="M0 0v25.297" class="cls-1" transform="translate(9.365 14.409)"/>
            <path id="Line_50_3_" d="M0 0v25.297" class="cls-1" transform="translate(17.302 14.409)"/>
            <path id="Line_51_3_" d="M0 0v25.297" class="cls-1" transform="translate(21.587 14.409)"/>
            <path id="Line_52_3_" d="M0 0v25.297" class="cls-1" transform="translate(29.206 14.409)"/>
            <path id="Line_53_3_" d="M0 0v25.297" class="cls-1" transform="translate(36.032 14.409)"/>
            <path id="Line_54_3_" d="M0 0v25.297" class="cls-1" transform="translate(40.476 14.409)"/>
            <path id="Line_55_3_" d="M0 0v25.297" class="cls-1" transform="translate(49.365 14.409)"/>
        </g>
    </g>
</svg>
