<svg xmlns="http://www.w3.org/2000/svg" viewBox="0 0 35.965 32.5">
    <defs>
        <style>
            .cls-1{fill:none;stroke:#fff;stroke-miterlimit:10;stroke-width:1.5px}
        </style>
    </defs>
    <g id="Scan_White" transform="translate(-1705.249 -1197.25)">
        <path id="Path_2939_2_" d="M1846.3 1685.891v-6.291h6.291" class="cls-1" transform="translate(-140.3 -481.509)"/>
        <path id="Path_2940_2_" d="M1877.1 1679.5h6.291v6.291" class="cls-1" transform="translate(-143.018 -481.5)"/>
        <path id="Path_2941_2_" d="M1883.491 1706.6v6.291h-6.291" class="cls-1" transform="translate(-143.027 -483.891)"/>
        <path id="Path_2942_2_" d="M1852.591 1712.891h-6.291v-6.291" class="cls-1" transform="translate(-140.3 -483.891)"/>
        <path id="Line_49_2_" d="M0 0v14.406" class="cls-1" transform="translate(1711.379 1206.206)"/>
        <path id="Line_50_2_" d="M0 0v14.406" class="cls-1" transform="translate(1715.938 1206.206)"/>
        <path id="Line_51_2_" d="M0 0v14.406" class="cls-1" transform="translate(1718.4 1206.206)"/>
        <path id="Line_52_2_" d="M0 0v14.406" class="cls-1" transform="translate(1722.685 1206.206)"/>
        <path id="Line_53_2_" d="M0 0v14.406" class="cls-1" transform="translate(1726.697 1206.206)"/>
        <path id="Line_54_2_" d="M0 0v14.406" class="cls-1" transform="translate(1729.158 1206.206)"/>
        <path id="Line_55_2_" d="M0 0v14.406" class="cls-1" transform="translate(1734.356 1206.206)"/>
    </g>
</svg>
