<svg xmlns="http://www.w3.org/2000/svg" viewBox="0 0 80 80">
    <defs>
        <style>
            .cls-1{fill:#fff}.cls-2,.cls-3,.cls-4,.cls-5{fill:none;stroke-width:1.5px}.cls-2{stroke:#505050}.cls-2,.cls-3,.cls-5{stroke-linecap:round;stroke-miterlimit:10}.cls-3,.cls-4,.cls-5{stroke:#613b8c}.cls-5{stroke-linejoin:round}
        </style>
    </defs>
    <g id="Search_Customer_White" transform="translate(-9461 -4488)">
        <path id="Path_2021_1_" d="M39.979 80.061a39.892 39.892 0 1 1 15.649-3.112 41.523 41.523 0 0 1-15.649 3.112z" class="cls-1" transform="translate(9461 4487.939)"/>
        <g id="Group_6367" data-name="Group 6367" transform="translate(3.483 2.162)">
            <g id="Group_4888" data-name="Group 4888" transform="translate(9479.219 4502.562)">
                <path id="Path_3712" d="M498.419 564.817c-1.72-2.132-3.714-2.614-5.778-3.233a17.892 17.892 0 0 1-3.371-1.169c-2.82-1.307-2.476-3.577-2.476-3.715" class="cls-3" data-name="Path 3712" transform="translate(-465.745 -536.81)"/>
                <path id="Path_3714" d="M474.291 576.886a14.343 14.343 0 0 1-1.72 0c-7.773 0-12.106-.894-13.895-1.376a3.362 3.362 0 0 1-2.476-3.3c0-1.788.275-5.228 1.995-7.291s3.714-2.614 5.778-3.233a17.9 17.9 0 0 0 3.371-1.169c2.82-1.307 2.476-3.577 2.476-3.715" class="cls-3" data-name="Path 3714" transform="translate(-456.2 -536.842)"/>
                <path id="Path_3715" d="M480.3 585.938a14.331 14.331 0 0 0 1.72 0c1.926 0 3.646-.069 5.159-.138" class="cls-3" data-name="Path 3715" transform="translate(-463.722 -545.893)"/>
                <path id="Path_3973" d="M1869.385 561.133c-4.829 0-8.585-6.546-8.585-12.234 0-5.365 3.327-8.8 8.585-8.8 5.151 0 8.155 3.327 8.155 8.8.001 5.796-3.326 12.234-8.155 12.234z" class="cls-4" data-name="Path 3973" transform="translate(-1852.139 -540.1)"/>
            </g>
            <g id="Group_4891" data-name="Group 4891" transform="translate(9500.543 4529.605)">
                <ellipse id="SVGID_49_" cx="7.498" cy="7.567" class="cls-5" rx="7.498" ry="7.567"/>
                <path id="Line_428" d="M0 0l5.503 5.365" class="cls-3" data-name="Line 428" transform="translate(12.726 13.138)"/>
            </g>
        </g>
    </g>
</svg>
