<svg xmlns="http://www.w3.org/2000/svg" viewBox="0 0 27.99 27.511">
  <defs>
    <style>
      .cls-1 {
        fill: #613b8c;
        stroke: #613b8c;
        stroke-width: 0.5px;
      }
    </style>
  </defs>
  <g id="Search_Purple" transform="translate(-1691.751 -628.747)">
    <path id="Path_2167" data-name="Path 2167" class="cls-1" d="M29.31,40.3h-.038a11.315,11.315,0,0,1-11.46-11.161,11.464,11.464,0,0,1,22.92,0h0A11.31,11.31,0,0,1,29.31,40.3Zm0-20.655h-.038a9.486,9.486,0,1,0,9.737,9.483h0a9.6,9.6,0,0,0-9.7-9.471h0Z" transform="translate(1674.189 611.019)"/>
    <path id="Path_2168" data-name="Path 2168" class="cls-1" d="M31.123,31.784a.876.876,0,0,1-.592-.24h0l-7.805-7.313a.836.836,0,0,1-.254-.6.857.857,0,0,1,.869-.847.882.882,0,0,1,.616.247h0l7.805,7.313a.822.822,0,0,1,.273.611.849.849,0,0,1-.862.839h0Z" transform="translate(1687.456 624.214)"/>
  </g>
</svg>
