<svg xmlns="http://www.w3.org/2000/svg" viewBox="-3533 2088 300 300">
    <defs>
        <style>
            .cls-1,.cls-2{fill:none}.cls-1{stroke:#505050;stroke-linecap:round;stroke-linejoin:round;stroke-width:5px}.cls-3,.cls-4{stroke:none}.cls-4{fill:#505050}
        </style>
    </defs>
    <g id="Send_SFF" transform="translate(-4245.5 1176)">
        <path id="Path_3997" d="M1120.6 557.359l147.943-62.259-33.287 129.45-41.918-27.741-18.493 24.043-15.428-43.766z" class="cls-1" data-name="Path 3997" transform="translate(-343.815 501.697)"/>
        <g id="Ellipse_206" class="cls-2" data-name="Ellipse 206">
            <path d="M150 0A150 150 0 1 1 0 150 150 150 0 0 1 150 0z" class="cls-3" transform="translate(712.5 912)"/>
            <path d="M150 295c9.841 0 19.675-.991 29.228-2.946a144.232 144.232 0 0 0 27.211-8.447 145.002 145.002 0 0 0 24.628-13.368 146.067 146.067 0 0 0 21.464-17.708 146.067 146.067 0 0 0 17.708-21.464 145.002 145.002 0 0 0 13.368-24.628 144.232 144.232 0 0 0 8.447-27.211A146.099 146.099 0 0 0 295 150c0-9.841-.991-19.675-2.946-29.228a144.232 144.232 0 0 0-8.447-27.211 145.003 145.003 0 0 0-13.368-24.628 146.067 146.067 0 0 0-17.708-21.463 146.065 146.065 0 0 0-21.464-17.71 145.004 145.004 0 0 0-24.628-13.367 144.232 144.232 0 0 0-27.211-8.447A146.097 146.097 0 0 0 150 5c-9.841 0-19.675.991-29.228 2.946a144.232 144.232 0 0 0-27.211 8.447A145.005 145.005 0 0 0 68.933 29.76 146.065 146.065 0 0 0 47.47 47.47a146.065 146.065 0 0 0-17.71 21.463A145.005 145.005 0 0 0 16.394 93.56a144.232 144.232 0 0 0-8.447 27.211A146.097 146.097 0 0 0 5 150c0 9.841.991 19.675 2.946 29.228a144.232 144.232 0 0 0 8.447 27.211 145.004 145.004 0 0 0 13.368 24.628 146.065 146.065 0 0 0 17.709 21.464 146.067 146.067 0 0 0 21.463 17.708 145.003 145.003 0 0 0 24.628 13.368 144.232 144.232 0 0 0 27.211 8.447A146.099 146.099 0 0 0 150 295m0 5C67.157 300 0 232.843 0 150S67.157 0 150 0s150 67.157 150 150-67.157 150-150 150z" class="cls-4" transform="translate(712.5 912)"/>
        </g>
    </g>
</svg>
