<svg xmlns="http://www.w3.org/2000/svg" viewBox="0 0 300 300">
    <defs>
        <style>
            .cls-1{fill:#505050}.cls-2,.cls-3{fill:none;stroke:#505050;stroke-linecap:round;stroke-linejoin:round}.cls-2{stroke-width:5.085px}.cls-3{stroke-width:3.814px}
        </style>
    </defs>
    <g id="Services_Large_SFF" transform="translate(-3360 -3170)">
        <g id="Group_8908" data-name="Group 8908" transform="translate(3360 3170)">
            <path id="Path_6352" d="M150 5a141.464 141.464 0 0 1 28.3 2.8 137.682 137.682 0 0 1 27.2 8.3 140.654 140.654 0 0 1 25.1 13.4 146.45 146.45 0 0 1 22 18A145.806 145.806 0 0 1 284 94.6a152.47 152.47 0 0 1 8.3 27.2 149.2 149.2 0 0 1 2.8 28.3 141.464 141.464 0 0 1-2.8 28.3 137.682 137.682 0 0 1-8.3 27.2 140.655 140.655 0 0 1-13.4 25.1 146.449 146.449 0 0 1-18 22 145.806 145.806 0 0 1-47.1 31.4 152.47 152.47 0 0 1-27.2 8.3 149.2 149.2 0 0 1-28.3 2.8 141.464 141.464 0 0 1-28.3-2.8 137.682 137.682 0 0 1-27.2-8.3 140.654 140.654 0 0 1-25.1-13.4 146.449 146.449 0 0 1-22-18A145.806 145.806 0 0 1 16 205.6a152.471 152.471 0 0 1-8.3-27.2A150.934 150.934 0 0 1 5 150a141.464 141.464 0 0 1 2.8-28.3 137.682 137.682 0 0 1 8.3-27.2 140.653 140.653 0 0 1 13.4-25.1 146.45 146.45 0 0 1 18-22A145.806 145.806 0 0 1 94.6 16a152.471 152.471 0 0 1 27.2-8.3A147.291 147.291 0 0 1 150 5m0-5a150.944 150.944 0 0 0-57.4 11.4 150.091 150.091 0 0 0-25.9 13.9 156.907 156.907 0 0 0-22.8 18.6 145.831 145.831 0 0 0-18.6 22.8 150.09 150.09 0 0 0-13.9 25.9 146.69 146.69 0 0 0-8.5 28.1 150.441 150.441 0 0 0 8.5 86.7 150.09 150.09 0 0 0 13.9 25.9A145.674 145.674 0 0 0 44 256a149.856 149.856 0 0 0 48.6 32.6 146.69 146.69 0 0 0 28.1 8.5A150.838 150.838 0 0 0 150 300a150.944 150.944 0 0 0 57.4-11.4 150.089 150.089 0 0 0 25.9-13.9A145.674 145.674 0 0 0 256 256a149.856 149.856 0 0 0 32.6-48.6 146.69 146.69 0 0 0 8.5-28.1 150.441 150.441 0 0 0-8.5-86.7 150.09 150.09 0 0 0-13.9-25.9A145.674 145.674 0 0 0 256 44a149.856 149.856 0 0 0-48.6-32.6 146.69 146.69 0 0 0-28.1-8.5A152.4 152.4 0 0 0 150 0z" class="cls-1" data-name="Path 6352"/>
        </g>
        <path id="Line_1511" d="M0 78.3L77 0" class="cls-2" data-name="Line 1511" transform="translate(3416.5 3292)"/>
        <path id="Path_6353" d="M93.8 127.7a10.351 10.351 0 0 1-6.4-9.3c.5-6.9 7.8-12.8 15.2-16.7a36.3 36.3 0 0 1 23.5-3.9c5.9.5 27.8 9.4 27.6 26.9.9 10.9-7.3 46.9 21.1 54.7 10.3 1.5 20.5-1.1 31.8-10.9s20.6-24.5 20.6-37.3-13.7-24-22.6-24.5a24.625 24.625 0 0 0-21.1 11.3c-3.4 5.9-5.4 17.7 5.4 29.4 4.4 4.9 10.3 7.4 20.6 8.8a85.135 85.135 0 0 0 27.5-3.4" class="cls-3" data-name="Path 6353" transform="translate(3360 3170)"/>
        <path id="Line_1512" d="M0 0h7.8" class="cls-2" data-name="Line 1512" transform="translate(3441.5 3372.3)"/>
        <path id="Line_1513" d="M0 0h7.9" class="cls-2" data-name="Line 1513" transform="translate(3467 3372.3)"/>
        <path id="Line_1514" d="M0 0h7.9" class="cls-2" data-name="Line 1514" transform="translate(3492.5 3372.3)"/>
        <path id="Line_1515" d="M0 0h7.9" class="cls-2" data-name="Line 1515" transform="translate(3518 3372.3)"/>
        <path id="Line_1516" d="M0 0h7.9" class="cls-2" data-name="Line 1516" transform="translate(3543.5 3372.3)"/>
        <path id="Line_1517" d="M0 0h7.9" class="cls-2" data-name="Line 1517" transform="translate(3569 3372.3)"/>
        <path id="Line_1518" d="M0 0h7.8" class="cls-2" data-name="Line 1518" transform="translate(3594.6 3372.3)"/>
        <path id="Path_6354" d="M158.6 107.9L147 119.6a8.588 8.588 0 0 1-6.1 2.7 7.934 7.934 0 0 1-6.1-2.7 8.588 8.588 0 0 1-2.7-6.1 7.784 7.784 0 0 1 2.7-6.1l11.6-11.6a8.588 8.588 0 0 1 6.1-2.7 7.784 7.784 0 0 1 6.1 2.7 8.588 8.588 0 0 1 2.7 6.1 10.855 10.855 0 0 1-2.7 6z" class="cls-2" data-name="Path 6354" transform="translate(3360 3170)"/>
    </g>
</svg>
