<svg xmlns="http://www.w3.org/2000/svg" viewBox="9198 -769.105 72.104 72.113">
  <defs>
    <style>
      .cls-1, .cls-2, .cls-3 {
        fill: none;
        stroke: #613b8c;
      }

      .cls-1, .cls-2 {
        stroke-width: 2px;
      }

      .cls-2, .cls-3 {
        stroke-linecap: round;
        stroke-linejoin: round;
      }

      .cls-3 {
        stroke-width: 1.2px;
      }
    </style>
  </defs>
  <g id="Services" transform="translate(8486 -1454)">
    <g id="Group_6668" data-name="Group 6668" transform="translate(21 9)">
      <path id="Path_2021_1_" class="cls-1" d="M35.728,70.753a34.92,34.92,0,1,1,13.593-2.719h0A31.932,31.932,0,0,1,35.728,70.753Z" transform="translate(691.3 676.247)"/>
      <line id="Line_747" data-name="Line 747" class="cls-2" y1="15.58" x2="15.58" transform="translate(707.37 705.908)"/>
      <path id="Path_4467" data-name="Path 4467" class="cls-2" d="M37.54,25.294,34.194,28.64a2.527,2.527,0,0,1-3.66,0h0a2.527,2.527,0,0,1,0-3.66l3.346-3.346a2.527,2.527,0,0,1,3.66,0h0A2.526,2.526,0,0,1,37.54,25.294Z" transform="translate(692.625 677.163)"/>
      <path id="Path_4468" data-name="Path 4468" class="cls-3" d="M23.06,28.783A2.193,2.193,0,0,1,21.7,26.8c.1-1.464,1.673-2.719,3.241-3.555a7.708,7.708,0,0,1,5.019-.836c1.255.1,5.918,1.995,5.875,5.726.2,2.332-1.562,10,4.492,11.66,2.2.314,4.376-.238,6.781-2.329S51.5,32.234,51.5,29.515s-2.928-5.123-4.81-5.228a5.252,5.252,0,0,0-4.5,2.4c-.732,1.255-1.15,3.764,1.15,6.274.941,1.046,2.2,1.568,4.392,1.882a18.005,18.005,0,0,0,5.855-.732" transform="translate(692.257 677.229)"/>
      <line id="Line_748" data-name="Line 748" class="cls-2" x2="1.673" transform="translate(712.703 721.905)"/>
      <line id="Line_749" data-name="Line 749" class="cls-2" x2="1.673" transform="translate(718.14 721.905)"/>
      <line id="Line_750" data-name="Line 750" class="cls-2" x2="1.673" transform="translate(723.577 721.905)"/>
      <line id="Line_751" data-name="Line 751" class="cls-2" x2="1.673" transform="translate(729.014 721.905)"/>
      <line id="Line_752" data-name="Line 752" class="cls-2" x2="1.673" transform="translate(734.451 721.905)"/>
      <line id="Line_753" data-name="Line 753" class="cls-2" x2="1.673" transform="translate(739.888 721.905)"/>
      <line id="Line_754" data-name="Line 754" class="cls-2" x2="1.673" transform="translate(745.326 721.905)"/>
    </g>
  </g>
</svg>
