<svg xmlns="http://www.w3.org/2000/svg" viewBox="15149 -1710 70 70.004">
    <defs>
        <style>
            .cls-1{fill:#4b2b6f}.cls-2,.cls-3{fill:none;stroke:#fff;stroke-linecap:round;stroke-linejoin:round}.cls-2{stroke-width:2px}.cls-3{stroke-width:1.2px}
        </style>
    </defs>
    <g id="Services" transform="translate(14435.811 -2396.155)">
        <g id="Group_6668" data-name="Group 6668" transform="translate(713.19 686.155)">
            <path id="Path_2021_1_" d="M35.8 70.9a35 35 0 1 1 13.626-2.72A32 32 0 0 1 35.8 70.9z" class="cls-1" transform="translate(-.89 -.908)"/>
            <path id="Line_747" d="M0 15.614L15.614 0" class="cls-2" data-name="Line 747" transform="translate(15.213 28.815)"/>
            <path id="Path_4467" d="M37.557 25.3L34.2 28.657a2.532 2.532 0 0 1-3.668 0 2.532 2.532 0 0 1 0-3.668l3.353-3.353a2.532 2.532 0 0 1 3.668 0 2.531 2.531 0 0 1 0 3.668z" class="cls-2" data-name="Path 4467" transform="translate(.501 .053)"/>
            <path id="Path_4468" d="M23.063 28.8a2.2 2.2 0 0 1-1.363-1.99c.1-1.467 1.677-2.725 3.248-3.563a7.725 7.725 0 0 1 5.03-.838c1.258.1 5.931 2 5.888 5.738.2 2.337-1.565 10.022 4.5 11.685 2.2.315 4.386-.239 6.8-2.334s4.4-5.243 4.4-7.968-2.934-5.134-4.82-5.239a5.263 5.263 0 0 0-4.51 2.405c-.734 1.258-1.152 3.772 1.153 6.288.943 1.048 2.2 1.571 4.4 1.886a18.044 18.044 0 0 0 5.868-.734" class="cls-3" data-name="Path 4468" transform="translate(.115 .122)"/>
            <path id="Line_748" d="M0 0h1.677" class="cls-2" data-name="Line 748" transform="translate(20.558 44.847)"/>
            <path id="Line_749" d="M0 0h1.677" class="cls-2" data-name="Line 749" transform="translate(26.007 44.847)"/>
            <path id="Line_750" d="M0 0h1.677" class="cls-2" data-name="Line 750" transform="translate(31.456 44.847)"/>
            <path id="Line_751" d="M0 0h1.677" class="cls-2" data-name="Line 751" transform="translate(36.904 44.847)"/>
            <path id="Line_752" d="M0 0h1.677" class="cls-2" data-name="Line 752" transform="translate(42.353 44.847)"/>
            <path id="Line_753" d="M0 0h1.677" class="cls-2" data-name="Line 753" transform="translate(47.802 44.847)"/>
            <path id="Line_754" d="M0 0h1.677" class="cls-2" data-name="Line 754" transform="translate(53.252 44.847)"/>
        </g>
    </g>
</svg>
