<svg xmlns="http://www.w3.org/2000/svg" viewBox="0 0 30.722 27.324">
  <defs>
    <style>
      .cls-1 {
        fill: #e38d8d;
        stroke: #e38d8d;
      }
    </style>
  </defs>
  <g id="Text_Error_Red" transform="translate(-49.84 -365.099)">
    <g id="Group_2796" data-name="Group 2796" transform="translate(50.375 365.599)">
      <path id="Path_2462" data-name="Path 2462" class="cls-1" d="M-122.56,315.224h-24.477a2.577,2.577,0,0,1-2.233-1.288,2.519,2.519,0,0,1,0-2.577l12.239-21.171A2.527,2.527,0,0,1-134.8,288.9a2.527,2.527,0,0,1,2.233,1.288l12.239,21.171a2.519,2.519,0,0,1,0,2.577A2.63,2.63,0,0,1-122.56,315.224Zm-12.24-24.907a1.047,1.047,0,0,0-.988.6l-12.239,21.171a1.124,1.124,0,0,0,0,1.159,1.236,1.236,0,0,0,.988.6h24.477a1.047,1.047,0,0,0,.988-.6,1.124,1.124,0,0,0,0-1.159l-12.239-21.171A1.14,1.14,0,0,0-134.8,290.317Z" transform="translate(149.625 -288.9)"/>
    </g>
    <g id="Group_2797" data-name="Group 2797" transform="translate(64.342 373.956)">
      <path id="Path_2463" data-name="Path 2463" class="cls-1" d="M-116.112,312.563h-.3c-.386,0-.687-.213-.687-.486v-7.29c0-.273.3-.486.687-.486h.3c.386,0,.687.213.687.486v7.29C-115.425,312.35-115.726,312.563-116.112,312.563Z" transform="translate(117.1 -304.3)"/>
    </g>
    <g id="Group_2798" data-name="Group 2798" transform="translate(64.385 385.569)">
      <path id="Path_2464" data-name="Path 2464" class="cls-1" d="M-116.012,336.773h-.3a.642.642,0,0,1-.471-.159.642.642,0,0,1-.216-.448v-.759a.642.642,0,0,1,.216-.448.642.642,0,0,1,.471-.159h.3a.642.642,0,0,1,.471.159.642.642,0,0,1,.216.448v.759a.642.642,0,0,1-.216.448.642.642,0,0,1-.471.159Z" transform="translate(117 -334.8)"/>
    </g>
  </g>
</svg>
