<svg xmlns="http://www.w3.org/2000/svg" viewBox="0 0 81.724 81.617">
  <defs>
    <style>
      .cls-1, .cls-2, .cls-3 {
        fill: none;
        stroke: #613b8c;
        stroke-width: 1.5px;
      }

      .cls-2, .cls-3 {
        stroke-linecap: round;
        stroke-miterlimit: 10;
      }

      .cls-2 {
        stroke-linejoin: round;
      }
    </style>
  </defs>
  <g id="View_Cards" transform="translate(-1984.051 -380.202)">
    <path id="Path_2021_44_" class="cls-1" d="M1736.333,1532.261a39.914,39.914,0,1,1,15.67-3.112h0A41.624,41.624,0,0,1,1736.333,1532.261Z" transform="translate(288.501 -1071.192)"/>
    <path id="Path_486_28_" class="cls-1" d="M1743.9,1501.1" transform="translate(291.988 -1067.614)"/>
    <circle id="SVGID_23_" class="cls-2" cx="7.084" cy="7.084" r="7.084" transform="translate(2029.663 423.075)"/>
    <line id="Line_522" data-name="Line 522" class="cls-3" x2="5.259" y2="5.044" transform="translate(2041.684 435.418)"/>
    <path id="Path_3824" data-name="Path 3824" class="cls-2" d="M1739.939,1501.917h-23.075a3.847,3.847,0,0,1-3.864-3.864v-18.89a3.847,3.847,0,0,1,3.864-3.864h33.486a3.847,3.847,0,0,1,3.864,3.864v20.285" transform="translate(289.724 -1069.504)"/>
    <line id="Line_523" data-name="Line 523" class="cls-2" x2="41.213" transform="translate(2002.724 413.845)"/>
    <line id="Line_524" data-name="Line 524" class="cls-2" x2="15.348" transform="translate(2007.018 424.256)"/>
    <line id="Line_525" data-name="Line 525" class="cls-2" x2="19.533" transform="translate(2007.018 420.07)"/>
    <path id="Path_486_27_" class="cls-1" d="M1743.1,1504.7" transform="translate(291.93 -1067.35)"/>
  </g>
</svg>
