<svg xmlns="http://www.w3.org/2000/svg" viewBox="0 0 60.1 42">
  <defs>
    <style>
      .cls-1 {
        fill: #505050;
      }

      .cls-2 {
        fill: #fff;
      }
    </style>
  </defs>
  <g id="Visa" transform="translate(-0.101 -8.4)">
    <g id="Symbol_148_1" transform="translate(-6026 420)">
      <g id="Group_4723" data-name="Group 4723">
        <path id="Path_3620" data-name="Path 3620" class="cls-1" d="M6086.2-408.9v36.6c-.7,2-2.2,2.7-4.3,2.7-17.2-.1-34.3-.1-51.5,0-2.1,0-3.6-.7-4.3-2.7v-36.6c.7-2,2.2-2.7,4.3-2.7,17.2.1,34.3.1,51.5,0C6084-411.6,6085.4-410.9,6086.2-408.9Zm-3.6,35.9v-35h-53v35Z"/>
        <path id="Path_3621" data-name="Path 3621" class="cls-2" d="M6074.3-393.1c.1,1,.2,2,.3,3.1h-2c.5-1.1,1-2.1,1.4-3.1C6074.1-393.2,6074.3-393.2,6074.3-393.1Z"/>
      </g>
    </g>
    <g id="Group_4724" data-name="Group 4724">
      <path id="Path_3622" data-name="Path 3622" class="cls-1" d="M53.2,37H49.6c-.2-.7-.3-1.5-.5-2.3H44.3c-.2,0-.2,0-.3.2-.2.6-.5,1.3-.7,1.9a.215.215,0,0,1-.2.2h-4c0-.1,0-.1.1-.2,1.9-4.5,3.8-9.1,5.7-13.6a1.914,1.914,0,0,1,1.9-1.3h3c.1,0,.1.1.2.2.3,1.3.5,2.6.8,3.9.7,3.6,1.5,7.2,2.2,10.7C53.1,36.8,53.1,36.9,53.2,37ZM47.3,26c-.7,1.9-1.4,3.8-2.1,5.6h3.2C48.1,29.8,47.7,27.9,47.3,26Z"/>
      <path id="Path_3623" data-name="Path 3623" class="cls-1" d="M40,22.3c-.2,1.1-.3,2.1-.5,3.2-.1,0-.2-.1-.3-.1a7.222,7.222,0,0,0-3.6-.6,2.106,2.106,0,0,0-1.3.5.889.889,0,0,0-.1,1.5c.1.1.3.2.4.3a10.93,10.93,0,0,0,1.5.8A6.191,6.191,0,0,1,37.8,29,4.038,4.038,0,0,1,39,33.7a4.735,4.735,0,0,1-2.9,2.8,8.571,8.571,0,0,1-3.6.7,13.858,13.858,0,0,1-4-.6c-.5-.2-.5-.2-.4-.7.1-.9.3-1.8.4-2.7V33c.4.2.9.4,1.3.6a7.444,7.444,0,0,0,3.6.4,2.22,2.22,0,0,0,1.1-.5,1.126,1.126,0,0,0,.1-1.8,6.014,6.014,0,0,0-1.3-.9,13.241,13.241,0,0,1-2-1.2,4.116,4.116,0,0,1-1.6-2.1,4.484,4.484,0,0,1,.8-3.7,5.208,5.208,0,0,1,3.2-2,11.135,11.135,0,0,1,6.3.5C39.9,22.2,40,22.2,40,22.3Z"/>
      <path id="Path_3624" data-name="Path 3624" class="cls-1" d="M22.8,21.9c0,.1-.1.1-.1.2l-6,14.7c-.1.1-.1.2-.3.2H12.5c-1.1-4.3-2.3-8.5-3.4-12.8a13.29,13.29,0,0,1,2.6,2.1,13.5,13.5,0,0,1,2,2.7,8.864,8.864,0,0,1,1.1,3.1h0c0-.1,0-.1.1-.2,1.2-3.3,2.5-6.6,3.7-9.9a.215.215,0,0,1,.2-.2h3.9A.1.1,0,0,0,22.8,21.9Z"/>
      <path id="Path_3625" data-name="Path 3625" class="cls-1" d="M25.9,37H22c.8-5,1.6-10.1,2.4-15.1h3.9C27.5,26.9,26.7,32,25.9,37Z"/>
      <path id="Path_3626" data-name="Path 3626" class="cls-1" d="M5,22.2v-.3h6.1a2.769,2.769,0,0,1,.9.1,1.39,1.39,0,0,1,1,1.2c.4,2.2.9,4.5,1.3,6.7h0C12.7,25.7,9.3,23.4,5,22.2Z"/>
    </g>
  </g>
</svg>
